RobotoAvar2-opsz14-wdth100-wght1000.ufo
<glyph name="exclam" format="2">
  <advance width="753.0953271028037"/>
  <unicode hex="0021"/>
  <outline>
    <contour>
      <point x="150.8" y="178.5046728971963" type="qcurve" smooth="yes"/>
      <point x="150.8" y="267.9906542056075"/>
      <point x="267.5383177570094" y="395.52336448598135"/>
      <point x="376.54766355140185" y="395.52336448598135" type="qcurve" smooth="yes"/>
      <point x="486.0897196261682" y="395.52336448598135"/>
      <point x="602.2953271028038" y="267.9906542056075"/>
      <point x="602.2953271028038" y="178.5046728971963" type="qcurve" smooth="yes"/>
      <point x="602.2953271028038" y="89.55140186915888"/>
      <point x="486.0897196261682" y="-37.981308411214954"/>
      <point x="376.54766355140185" y="-37.981308411214954" type="qcurve" smooth="yes"/>
      <point x="267.5383177570094" y="-37.981308411214954"/>
      <point x="150.8" y="89.55140186915888"/>
    </contour>
    <contour>
      <point x="198.65981308411216" y="493.63551401869165" type="line"/>
      <point x="167.67850467289722" y="1456.0" type="line"/>
      <point x="585.4168224299065" y="1456.0" type="line"/>
      <point x="554.4355140186916" y="493.63551401869165" type="line"/>
    </contour>
  </outline>
</glyph>
<glyph name="numbersign" format="2">
  <advance width="1438.6758808696245"/>
  <unicode hex="0023"/>
  <outline>
    <contour>
      <point x="147.82100456621006" y="-20.0" type="line"/>
      <point x="443.7251141552512" y="1501.0000000000002" type="line"/>
      <point x="740.9589450010224" y="1501.0000000000002" type="line"/>
      <point x="445.0548354119812" y="-20.0" type="line"/>
    </contour>
    <contour>
      <point x="689.4749267361822" y="-20.0" type="line"/>
      <point x="985.3790363252232" y="1501.0000000000002" type="line"/>
      <point x="1282.6128671709944" y="1501.0000000000002" type="line"/>
      <point x="986.7087575819534" y="-20.0" type="line"/>
    </contour>
    <contour>
      <point x="53.2" y="297.4579439252336" type="line"/>
      <point x="53.2" y="595.2710280373832" type="line"/>
      <point x="1332.8777073536428" y="595.2710280373832" type="line"/>
      <point x="1332.8777073536428" y="297.4579439252336" type="line"/>
    </contour>
    <contour>
      <point x="99.49680365296804" y="832.4579439252336" type="line"/>
      <point x="99.49680365296804" y="1130.271028037383" type="line"/>
      <point x="1374.8822735636884" y="1130.271028037383" type="line"/>
      <point x="1374.8822735636884" y="832.4579439252336" type="line"/>
    </contour>
  </outline>
</glyph>
<glyph name="dollar" format="2">
  <advance width="1232.1947083173302"/>
  <unicode hex="0024"/>
  <outline>
    <contour>
      <point x="18.8" y="403.6019900497513" type="qcurve" smooth="yes"/>
      <point x="18.8" y="412.3034825870647" type="line"/>
      <point x="408.8841121495327" y="412.3034825870647" type="line"/>
      <point x="408.8841121495327" y="403.6019900497513" type="line" smooth="yes"/>
      <point x="408.8841121495327" y="326.1243781094528"/>
      <point x="515.5644774463364" y="242.98507462686567"/>
      <point x="611.3589979942815" y="242.98507462686567" type="qcurve" smooth="yes"/>
      <point x="701.2606540973279" y="242.98507462686567"/>
      <point x="809.1261212819529" y="312.66485330357557"/>
      <point x="809.1261212819529" y="372.08229878644164" type="qcurve" smooth="yes"/>
      <point x="809.1261212819529" y="425.11517180452876"/>
      <point x="740.6403609911013" y="516.9065420560748"/>
      <point x="572.5233815559254" y="581.0373831775701" type="qcurve" smooth="yes"/>
      <point x="273.44387829129863" y="672.9345794392523"/>
      <point x="46.800000000000004" y="896.4579439252337"/>
      <point x="46.800000000000004" y="1064.9065420560748" type="qcurve" smooth="yes"/>
      <point x="46.800000000000004" y="1246.0093457943926"/>
      <point x="341.6692869030854" y="1458.0"/>
      <point x="613.5873084965647" y="1458.0" type="qcurve" smooth="yes"/>
      <point x="887.0380403704178" y="1458.0"/>
      <point x="1190.0230188196133" y="1210.4825870646766"/>
      <point x="1190.0230188196133" y="1058.3781094527365" type="qcurve" smooth="yes"/>
      <point x="1190.0230188196133" y="1048.1442786069654" type="line"/>
      <point x="799.9389066700805" y="1048.1442786069654" type="line"/>
      <point x="799.9389066700805" y="1058.3781094527365" type="line" smooth="yes"/>
      <point x="799.9389066700805" y="1130.8159203980101"/>
      <point x="706.733427218026" y="1224.4875621890546"/>
      <point x="614.0576281312678" y="1224.4875621890546" type="qcurve" smooth="yes"/>
      <point x="525.6438832594167" y="1224.4875621890546"/>
      <point x="434.8841121495327" y="1163.5280606314225"/>
      <point x="434.8841121495327" y="1105.457246477891" type="qcurve" smooth="yes"/>
      <point x="434.8841121495327" y="1057.6115683265914"/>
      <point x="494.07367387871807" y="974.747663551402"/>
      <point x="664.7790893184824" y="907.8878504672898" type="qcurve" smooth="yes"/>
      <point x="986.2445440191184" y="807.9345794392525"/>
      <point x="1197.2102334314854" y="584.5327102803737"/>
      <point x="1197.2102334314854" y="408.14953271028037" type="qcurve" smooth="yes"/>
      <point x="1197.2102334314854" y="215.85046728971963"/>
      <point x="891.5859429010371" y="-6.0"/>
      <point x="611.8293176289847" y="-6.0" type="qcurve" smooth="yes"/>
      <point x="327.7779587531552" y="-6.0"/>
      <point x="18.8" y="210.81094527363183"/>
    </contour>
    <contour>
      <point x="474.16145606623144" y="-170.0" type="line"/>
      <point x="474.16145606623144" y="745.7716894977168" type="line"/>
      <point x="748.6661289634278" y="745.7716894977168" type="line"/>
      <point x="748.6661289634278" y="80.0" type="line"/>
      <point x="762.6661289634276" y="70.0" type="line"/>
      <point x="762.6661289634276" y="-170.0" type="line"/>
    </contour>
    <contour>
      <point x="488.1614560662314" y="745.7716894977168" type="line"/>
      <point x="488.1614560662314" y="1386.0000000000002" type="line"/>
      <point x="474.16145606623144" y="1396.0" type="line"/>
      <point x="474.16145606623144" y="1586.0" type="line"/>
      <point x="762.6661289634276" y="1586.0" type="line"/>
      <point x="762.6661289634276" y="745.7716894977168" type="line"/>
    </contour>
  </outline>
</glyph>
<glyph name="asterisk" format="2">
  <advance width="953.4155523751108"/>
  <unicode hex="002A"/>
  <outline>
    <contour>
      <point x="37.290547263681596" y="1072.0652218360253" type="line"/>
      <point x="129.0650991617256" y="1318.3388536768214" type="line"/>
      <point x="378.71772643631164" y="1178.4500102228585" type="line"/>
      <point x="343.7824030532271" y="1476.0" type="line"/>
      <point x="609.2500647447694" y="1476.0" type="line"/>
      <point x="574.3147413616848" y="1178.4500102228585" type="line"/>
      <point x="823.9673686362707" y="1318.3388536768214" type="line"/>
      <point x="915.7419205343148" y="1072.0652218360253" type="line"/>
      <point x="635.2152388741226" y="999.111701765147" type="line"/>
      <point x="845.7124787023786" y="791.367682137259" type="line"/>
      <point x="626.0988345941525" y="634.8236897703264" type="line"/>
      <point x="476.7077761875554" y="889.440059974102" type="line"/>
      <point x="327.31671778095824" y="634.8236897703264" type="line"/>
      <point x="107.70307367273224" y="791.367682137259" type="line"/>
      <point x="317.8172289238738" y="999.111701765147" type="line"/>
    </contour>
  </outline>
</glyph>
<glyph name="comma" format="2">
  <advance width="717.6168224299066"/>
  <unicode hex="002C"/>
  <outline>
    <contour>
      <point x="70.0" y="-218.00000000000003" type="line"/>
      <point x="118.00000000000001" y="-154.0"/>
      <point x="170.53271028037386" y="-20.0"/>
      <point x="170.0" y="70.0" type="qcurve" smooth="yes"/>
      <point x="170.0" y="321.21495327102804" type="line"/>
      <point x="563.6168224299065" y="321.21495327102804" type="line"/>
      <point x="563.6168224299065" y="70.0" type="line" smooth="yes"/>
      <point x="563.6168224299065" y="-55.981308411214954"/>
      <point x="361.60747663551405" y="-241.04672897196264"/>
      <point x="175.0" y="-291.00000000000006" type="qcurve"/>
    </contour>
  </outline>
</glyph>
<glyph name="hyphen" format="2">
  <advance width="554.8995433789955"/>
  <unicode hex="002D"/>
  <outline>
    <contour>
      <point x="62.0" y="471.5514018691589" type="line"/>
      <point x="62.0" y="788.4485981308412" type="line"/>
      <point x="481.1415525114155" y="788.4485981308412" type="line"/>
      <point x="481.1415525114155" y="471.5514018691589" type="line"/>
    </contour>
  </outline>
</glyph>
<glyph name="slash" format="2">
  <advance width="547.6138485653922"/>
  <unicode hex="002F"/>
  <outline>
    <contour>
      <point x="-108.64676616915423" y="-125.00000000000001" type="line"/>
      <point x="284.8874804061883" y="1456.0" type="line"/>
      <point x="656.2606147345465" y="1456.0" type="line"/>
      <point x="262.72636815920396" y="-125.00000000000001" type="line"/>
    </contour>
  </outline>
</glyph>
<glyph name="zero" format="2">
  <advance width="1344.9123458370675"/>
  <unicode hex="0030"/>
  <outline>
    <contour>
      <point x="90.0" y="471.882900183502" type="qcurve" smooth="yes"/>
      <point x="90.0" y="979.8842231041695" type="line" smooth="yes"/>
      <point x="90.0" y="1223.856185720992"/>
      <point x="398.97866256988004" y="1486.0"/>
      <point x="672.1586224555115" y="1486.0" type="qcurve" smooth="yes"/>
      <point x="943.8712926215167" y="1486.0"/>
      <point x="1254.9123458370675" y="1223.856185720992"/>
      <point x="1254.9123458370675" y="979.8842231041695" type="qcurve" smooth="yes"/>
      <point x="1254.9123458370675" y="471.882900183502" type="line" smooth="yes"/>
      <point x="1254.9123458370675" y="232.61413391371144"/>
      <point x="943.8712926215167" y="-30.0"/>
      <point x="672.1586224555115" y="-30.0" type="qcurve" smooth="yes"/>
      <point x="398.97866256988004" y="-30.0"/>
      <point x="90.0" y="232.61413391371144"/>
    </contour>
    <contour>
      <point x="500.2803738317757" y="513.7515163906495" type="line" smooth="yes"/>
      <point x="500.2803738317757" y="398.00722415320655"/>
      <point x="583.4858532838306" y="290.4278606965174"/>
      <point x="672.6913327358853" y="290.4278606965174" type="qcurve" smooth="yes"/>
      <point x="761.8968121879402" y="290.4278606965174"/>
      <point x="844.6319720052916" y="398.00722415320655"/>
      <point x="844.6319720052916" y="513.7515163906495" type="qcurve" smooth="yes"/>
      <point x="844.6319720052916" y="938.5731615893137" type="line" smooth="yes"/>
      <point x="844.6319720052916" y="1057.9927758467936"/>
      <point x="763.3077710920497" y="1165.1890547263683"/>
      <point x="672.6913327358853" y="1165.1890547263683" type="qcurve" smooth="yes"/>
      <point x="582.074894379721" y="1165.1890547263683"/>
      <point x="500.2803738317757" y="1057.9927758467936"/>
      <point x="500.2803738317757" y="938.5731615893137" type="qcurve" smooth="yes"/>
    </contour>
  </outline>
</glyph>
<glyph name="three" format="2">
  <advance width="1350.1123458370673"/>
  <unicode hex="0033"/>
  <outline>
    <contour>
      <point x="66.0" y="395.6598749945064" type="qcurve" smooth="yes"/>
      <point x="66.0" y="458.61882177895563" type="line"/>
      <point x="486.392523364486" y="458.61882177895563" type="line"/>
      <point x="486.392523364486" y="397.070833898616" type="line" smooth="yes"/>
      <point x="486.392523364486" y="323.34673833495435"/>
      <point x="562.7518858148128" y="244.8407960199005"/>
      <point x="652.198054026373" y="244.8407960199005" type="qcurve" smooth="yes"/>
      <point x="753.3341371493575" y="244.8407960199005"/>
      <point x="828.6638501258908" y="320.68309967255004"/>
      <point x="828.6638501258908" y="424.9004975124378" type="qcurve" smooth="yes"/>
      <point x="828.6638501258908" y="518.7149300227834"/>
      <point x="737.707898861855" y="611.8955223880598"/>
      <point x="631.0" y="611.1293532338309" type="qcurve" smooth="yes"/>
      <point x="485.0499722613408" y="611.1293532338309" type="line"/>
      <point x="485.0499722613408" y="881.2039800995026" type="line"/>
      <point x="628.5251141552511" y="881.2039800995026" type="line" smooth="yes"/>
      <point x="723.4789609754328" y="881.2039800995026"/>
      <point x="805.9423889386762" y="970.8319616868928"/>
      <point x="805.9423889386762" y="1054.3370530524946" type="qcurve" smooth="yes"/>
      <point x="805.9423889386762" y="1146.1348054249302"/>
      <point x="738.921988444667" y="1211.1592039800996"/>
      <point x="662.6698672811847" y="1211.1592039800996" type="qcurve" smooth="yes"/>
      <point x="589.4450153533955" y="1211.1592039800996"/>
      <point x="526.392523364486" y="1140.164290568665"/>
      <point x="526.392523364486" y="1071.99336501464" type="qcurve" smooth="yes"/>
      <point x="526.392523364486" y="1022.1409773562098" type="line"/>
      <point x="123.57943925233644" y="1022.1409773562098" type="line"/>
      <point x="123.57943925233644" y="1084.2216755169231" type="line" smooth="yes"/>
      <point x="123.57943925233644" y="1279.1654739998637"/>
      <point x="403.82749483920816" y="1486.0"/>
      <point x="668.0305551999318" y="1486.0" type="qcurve" smooth="yes"/>
      <point x="921.2111029795333" y="1486.0"/>
      <point x="1188.1199590321341" y="1308.168699454972"/>
      <point x="1188.1199590321341" y="1100.0" type="qcurve" smooth="yes"/>
      <point x="1188.1199590321341" y="957.7479622754236"/>
      <point x="1027.1141125762813" y="795.2365289160396"/>
      <point x="916.172406435369" y="758.3383084577115" type="qcurve"/>
      <point x="916.6427260700722" y="754.3383084577115" type="line"/>
      <point x="1047.5763666623993" y="728.7308318221974"/>
      <point x="1235.7479622754236" y="549.5887850467291"/>
      <point x="1235.7479622754236" y="401.0" type="qcurve" smooth="yes"/>
      <point x="1235.7479622754236" y="179.4798469564863"/>
      <point x="945.6269312762777" y="-30.0"/>
      <point x="655.2071437716043" y="-30.0" type="qcurve" smooth="yes"/>
      <point x="365.7755913812069" y="-30.0"/>
      <point x="66.0" y="189.42708490577456"/>
    </contour>
  </outline>
</glyph>
<glyph name="five" format="2">
  <advance width="1348.9123458370675"/>
  <unicode hex="0035"/>
  <outline>
    <contour>
      <point x="65.05402637306364" y="390.43931029782595" type="qcurve" smooth="yes"/>
      <point x="65.05402637306364" y="451.2338308457712" type="line"/>
      <point x="426.57133102889094" y="451.2338308457712" type="line"/>
      <point x="426.57133102889094" y="394.20186737545157" type="line" smooth="yes"/>
      <point x="426.57133102889094" y="339.93109793498263"/>
      <point x="534.1929489665996" y="266.29353233830847"/>
      <point x="645.0144756947562" y="266.29353233830847" type="qcurve" smooth="yes"/>
      <point x="742.2487052638485" y="266.29353233830847"/>
      <point x="854.1051081807707" y="351.48231445512164"/>
      <point x="854.1051081807707" y="481.4726368159204" type="qcurve" smooth="yes"/>
      <point x="854.1051081807707" y="602.0565664826553"/>
      <point x="768.0767064689358" y="688.7137599672869"/>
      <point x="686.7511890044082" y="689.1840796019901" type="qcurve" smooth="yes"/>
      <point x="635.6381802420493" y="689.6543992366933"/>
      <point x="574.0139438513488" y="647.9567659080096"/>
      <point x="538.9686970346067" y="612.0696517412935" type="qcurve"/>
      <point x="135.29701702726925" y="743.7485934811923" type="line"/>
      <point x="193.58929714505186" y="1456.0" type="line"/>
      <point x="1179.9509665855844" y="1456.0" type="line"/>
      <point x="1179.9509665855844" y="1168.776119402985" type="line"/>
      <point x="533.6841964801521" y="1168.776119402985" type="line"/>
      <point x="509.3403931564811" y="903.9651741293533" type="line"/>
      <point x="526.5659667352649" y="922.1109947637311"/>
      <point x="660.308811849089" y="952.0"/>
      <point x="683.0423761362182" y="952.0" type="qcurve" smooth="yes"/>
      <point x="992.3024367345197" y="952.0"/>
      <point x="1257.1892203303034" y="708.6392694063927"/>
      <point x="1257.1892203303034" y="465.0" type="qcurve" smooth="yes"/>
      <point x="1257.1892203303034" y="230.29680365296804"/>
      <point x="928.465113301754" y="-30.0"/>
      <point x="639.2735458541373" y="-30.0" type="qcurve" smooth="yes"/>
      <point x="356.8161719886039" y="-30.0"/>
      <point x="65.05402637306364" y="197.63620254889935"/>
    </contour>
  </outline>
</glyph>
<glyph name="colon" format="2">
  <advance width="713.1233644859814"/>
  <unicode hex="003A"/>
  <outline>
    <contour>
      <point x="142.8" y="183.29906542056077" type="qcurve" smooth="yes"/>
      <point x="142.8" y="267.4579439252337"/>
      <point x="253.14579439252338" y="388.0654205607476"/>
      <point x="356.29532710280375" y="388.0654205607476" type="qcurve" smooth="yes"/>
      <point x="459.977570093458" y="388.0654205607476"/>
      <point x="570.3233644859813" y="267.4579439252337"/>
      <point x="570.3233644859813" y="183.29906542056077" type="qcurve" smooth="yes"/>
      <point x="570.3233644859813" y="98.607476635514"/>
      <point x="459.977570093458" y="-22.0"/>
      <point x="356.29532710280375" y="-22.0" type="qcurve" smooth="yes"/>
      <point x="253.14579439252338" y="-22.0"/>
      <point x="142.8" y="98.607476635514"/>
    </contour>
    <contour>
      <point x="142.8" y="862.7009345794394" type="qcurve" smooth="yes"/>
      <point x="142.8" y="947.3925233644861"/>
      <point x="253.14579439252338" y="1068.0"/>
      <point x="356.29532710280375" y="1068.0" type="qcurve" smooth="yes"/>
      <point x="459.977570093458" y="1068.0"/>
      <point x="570.3233644859813" y="947.3925233644861"/>
      <point x="570.3233644859813" y="862.7009345794394" type="qcurve" smooth="yes"/>
      <point x="570.3233644859813" y="778.5420560747664"/>
      <point x="459.977570093458" y="657.9345794392524"/>
      <point x="356.29532710280375" y="657.9345794392524" type="qcurve" smooth="yes"/>
      <point x="253.14579439252338" y="657.9345794392524"/>
      <point x="142.8" y="778.5420560747664"/>
    </contour>
  </outline>
</glyph>
<glyph name="equal" format="2">
  <advance width="776.6246575342466"/>
  <unicode hex="003D"/>
  <outline>
    <contour>
      <point x="47.6" y="324.0" type="line"/>
      <point x="47.6" y="603.2710280373832" type="line"/>
      <point x="729.0246575342466" y="603.2710280373832" type="line"/>
      <point x="729.0246575342466" y="324.0" type="line"/>
    </contour>
    <contour>
      <point x="47.6" y="722.7289719626169" type="line"/>
      <point x="47.6" y="1002.0" type="line"/>
      <point x="729.0246575342466" y="1002.0" type="line"/>
      <point x="729.0246575342466" y="722.7289719626169" type="line"/>
    </contour>
  </outline>
</glyph>
<glyph name="greater" format="2">
  <advance width="822.1498911791064"/>
  <unicode hex="003E"/>
  <outline>
    <contour>
      <point x="146.06027397260274" y="114.45794392523366" type="line"/>
      <point x="86.80000000000001" y="429.7509921905006" type="line"/>
      <point x="437.0495199078224" y="677.0302991507702" type="line"/>
      <point x="86.80000000000001" y="928.3217257713482" type="line"/>
      <point x="146.06027397260274" y="1229.5420560747664" type="line"/>
      <point x="740.1498911791066" y="821.7757009345794" type="line"/>
      <point x="740.1498911791066" y="524.355140186916" type="line"/>
    </contour>
  </outline>
</glyph>
<glyph name="question" format="2">
  <advance width="1211.754815857978"/>
  <unicode hex="003F"/>
  <outline>
    <contour>
      <point x="354.98301540562454" y="178.5046728971963" type="qcurve" smooth="yes"/>
      <point x="354.98301540562454" y="267.9906542056075"/>
      <point x="471.7213331626339" y="395.52336448598135"/>
      <point x="580.7306789570265" y="395.52336448598135" type="qcurve" smooth="yes"/>
      <point x="690.2727350317928" y="395.52336448598135"/>
      <point x="806.4783425084283" y="267.9906542056075"/>
      <point x="806.4783425084283" y="178.5046728971963" type="qcurve" smooth="yes"/>
      <point x="806.4783425084283" y="89.55140186915888"/>
      <point x="690.2727350317928" y="-37.981308411214954"/>
      <point x="580.7306789570265" y="-37.981308411214954" type="qcurve" smooth="yes"/>
      <point x="471.7213331626339" y="-37.981308411214954"/>
      <point x="354.98301540562454" y="89.55140186915888"/>
    </contour>
    <contour>
      <point x="50.0" y="1008.3868042962756" type="line"/>
      <point x="50.0" y="1028.3868042962758" type="line" smooth="yes"/>
      <point x="50.0" y="1241.2723764355792"/>
      <point x="278.94300485792775" y="1481.3271028037384"/>
      <point x="594.5407331540989" y="1481.3271028037384" type="qcurve" smooth="yes"/>
      <point x="908.9892077189268" y="1481.3271028037384"/>
      <point x="1134.5548158579782" y="1279.541033151997"/>
      <point x="1134.5548158579782" y="1105.3271028037384" type="qcurve" smooth="yes"/>
      <point x="1134.5548158579782" y="954.8130841121495"/>
      <point x="1036.0824051551233" y="778.7757009345794"/>
      <point x="917.995732513976" y="720.1028037383178" type="qcurve" smooth="yes"/>
      <point x="797.8799982930055" y="660.4662655229804"/>
      <point x="770.740024751419" y="564.5794392523364"/>
      <point x="767.0110527888022" y="516.9532710280374" type="qcurve" smooth="yes"/>
      <point x="764.347501386933" y="501.0934579439253" type="line"/>
      <point x="369.5250714803909" y="500.02803738317766" type="line"/>
      <point x="369.5250714803909" y="520.1495327102804" type="line" smooth="yes"/>
      <point x="369.5250714803909" y="592.9439252336449"/>
      <point x="415.7200955916869" y="710.4043869756326"/>
      <point x="490.99244654973756" y="792.588785046729" type="qcurve" smooth="yes"/>
      <point x="561.699995732514" y="869.3271028037383"/>
      <point x="734.9379934280716" y="1012.0666294694751"/>
      <point x="734.9379934280716" y="1079.5044404147488" type="qcurve" smooth="yes"/>
      <point x="734.9379934280716" y="1144.6798251731993"/>
      <point x="663.1184609534583" y="1215.894266982843"/>
      <point x="593.6000938846926" y="1215.894266982843" type="qcurve" smooth="yes"/>
      <point x="523.4027927192867" y="1215.894266982843"/>
      <point x="448.08411214953276" y="1118.0236202166739"/>
      <point x="448.08411214953276" y="1028.3868042962758" type="qcurve" smooth="yes"/>
      <point x="448.08411214953276" y="1008.3868042962756" type="line"/>
    </contour>
  </outline>
</glyph>
<glyph name="at" format="2">
  <advance width="1750.9342465753427"/>
  <unicode hex="0040"/>
  <outline>
    <contour>
      <point x="427.2747663551402" y="396.80373831775705" type="qcurve" smooth="yes"/>
      <point x="439.9733964921265" y="680.0"/>
      <point x="746.5491230316222" y="1052.0"/>
      <point x="930.5789954337899" y="1052.0" type="qcurve" smooth="yes"/>
      <point x="1007.8803652968037" y="1052.0"/>
      <point x="1130.6018264840181" y="985.0000000000002"/>
      <point x="1171.6657534246574" y="946.0000000000001" type="qcurve"/>
      <point x="1324.6407886314173" y="946.0000000000001" type="line"/>
      <point x="1204.6407886314173" y="350.0" type="line" smooth="yes"/>
      <point x="1180.6407886314173" y="230.0"/>
      <point x="1194.3710835147015" y="136.0"/>
      <point x="1249.3241411684378" y="136.0" type="qcurve" smooth="yes"/>
      <point x="1336.5378995433794" y="136.0"/>
      <point x="1477.7342465753427" y="420.0"/>
      <point x="1477.7342465753427" y="650.0" type="qcurve" smooth="yes"/>
      <point x="1477.7342465753427" y="920.0"/>
      <point x="1171.8118721461187" y="1330.0"/>
      <point x="900.9488584474886" y="1330.0" type="qcurve" smooth="yes"/>
      <point x="630.0858447488584" y="1330.0"/>
      <point x="279.20000000000005" y="820.0"/>
      <point x="279.20000000000005" y="460.0" type="qcurve" smooth="yes"/>
      <point x="279.20000000000005" y="100.0"/>
      <point x="580.4328767123288" y="-290.0"/>
      <point x="837.1634703196348" y="-290.0" type="qcurve" smooth="yes"/>
      <point x="967.2867579908677" y="-290.0"/>
      <point x="1134.0082191780823" y="-236.00000000000003"/>
      <point x="1190.6018264840184" y="-200.0" type="qcurve"/>
      <point x="1191.5424657534247" y="-356.0" type="line"/>
      <point x="1128.5972602739728" y="-400.0"/>
      <point x="957.4100456621005" y="-446.0"/>
      <point x="831.5196347031964" y="-446.0" type="qcurve" smooth="yes"/>
      <point x="519.0219178082192" y="-454.4657534246576"/>
      <point x="93.2" y="35.29680365296804"/>
      <point x="93.2" y="459.05936073059365" type="qcurve" smooth="yes"/>
      <point x="93.2" y="882.3515981735159"/>
      <point x="568.2045662100456" y="1486.0"/>
      <point x="900.9488584474886" y="1486.0" type="qcurve" smooth="yes"/>
      <point x="1233.6931506849317" y="1486.0"/>
      <point x="1657.7342465753422" y="1000.0000000000001"/>
      <point x="1657.7342465753422" y="650.0" type="qcurve" smooth="yes"/>
      <point x="1657.7342465753422" y="360.0"/>
      <point x="1410.4237442922376" y="0.0"/>
      <point x="1231.1178082191782" y="0.0" type="qcurve" smooth="yes"/>
      <point x="1126.875799086758" y="0.0"/>
      <point x="973.5698630136986" y="100.0"/>
      <point x="945.3278538812785" y="180.0" type="qcurve"/>
      <point x="902.8529680365298" y="100.0"/>
      <point x="783.5470319634704" y="0.0"/>
      <point x="692.3984807749755" y="0.0" type="qcurve" smooth="yes"/>
      <point x="563.0958306661546" y="0.0"/>
      <point x="418.80901293048265" y="220.0"/>
    </contour>
    <contour>
      <point x="699.0625869500279" y="442.48824371294216" type="qcurve" smooth="yes"/>
      <point x="691.0671531600735" y="340.8763034144347"/>
      <point x="714.5032048820042" y="235.0309042420722"/>
      <point x="762.5262493065336" y="234.56058460736898" type="qcurve" smooth="yes"/>
      <point x="810.3686077358694" y="234.0902649726658"/>
      <point x="912.4725025493453" y="323.4818972605924"/>
      <point x="938.392443237659" y="437.20663804266337" type="qcurve" smooth="yes"/>
      <point x="1017.1390214463468" y="807.9402985074628" type="line"/>
      <point x="1002.3428365788521" y="822.4932812572652"/>
      <point x="950.5810865019419" y="835.8534042118176"/>
      <point x="924.9402381257203" y="835.8534042118176" type="qcurve" smooth="yes"/>
      <point x="849.9714277161115" y="836.3237238465208"/>
      <point x="713.642495625827" y="615.6022996017225"/>
    </contour>
  </outline>
</glyph>
<glyph name="A" format="2">
  <advance width="1452.746476935512"/>
  <unicode hex="0041"/>
  <anchor x="884.6622959966523" y="0.0" name="bottom"/>
  <anchor x="1631.7464081461849" y="0.0" name="ogonek"/>
  <anchor x="991.2043520714187" y="1456.0" name="top"/>
  <anchor x="454.39126795926904" y="1074.0" name="tonos"/>
  <outline>
    <contour>
      <point x="25.515981735159816" y="0.0" type="line"/>
      <point x="479.09337259420477" y="1462.803738317757" type="line"/>
      <point x="950.4141595186277" y="1462.803738317757" type="line"/>
      <point x="1412.6732812700038" y="0.0" type="line"/>
      <point x="952.1779541672001" y="0.0" type="line"/>
      <point x="714.0398583194641" y="938.5265224256391" type="line" smooth="yes"/>
      <point x="705.6152434600777" y="970.9938121452653"/>
      <point x="688.4646865531515" y="1034.059232706013"/>
      <point x="684.8817052874151" y="1065.4611018648914" type="qcurve"/>
      <point x="678.8314343020527" y="1065.4611018648914" type="line"/>
      <point x="675.78116331669" y="1034.059232706013"/>
      <point x="658.5058251184228" y="970.4611018648916"/>
      <point x="650.0812102590363" y="938.5265224256391" type="qcurve" smooth="yes"/>
      <point x="405.0300004267486" y="0.0" type="line"/>
    </contour>
    <contour>
      <point x="424.55664450758627" y="260.0945273631841" type="line"/>
      <point x="507.9451812758" y="558.3034825870648" type="line"/>
      <point x="1065.0015573139297" y="558.3034825870648" type="line"/>
      <point x="1148.5052034667274" y="260.0945273631841" type="line"/>
    </contour>
  </outline>
</glyph>
<glyph name="G" format="2">
  <advance width="1521.327555157257"/>
  <unicode hex="0047"/>
  <anchor x="666.6976486152007" y="0.0" name="bottom"/>
  <anchor x="645.3892374002475" y="1456.0" name="top"/>
  <outline>
    <contour>
      <point x="94.0" y="579.8351043400334" type="qcurve" smooth="yes"/>
      <point x="94.0" y="878.7036657704946" type="line" smooth="yes"/>
      <point x="94.0" y="1170.380509435921"/>
      <point x="477.3816183453492" y="1486.0"/>
      <point x="783.7531259335126" y="1485.5296803652968" type="qcurve" smooth="yes"/>
      <point x="1069.7099523506524" y="1486.0"/>
      <point x="1385.0303679400972" y="1261.6634660521488"/>
      <point x="1396.9530149788761" y="1045.1338538392406" type="qcurve" smooth="yes"/>
      <point x="1398.0154056245467" y="985.9452736318407" type="line"/>
      <point x="986.7595271625485" y="985.9452736318407" type="line"/>
      <point x="985.161396321427" y="1065.6389961598995" type="line" smooth="yes"/>
      <point x="979.8342935176887" y="1126.365613998883"/>
      <point x="867.8255668272388" y="1175.2786069651743"/>
      <point x="768.1522212264755" y="1175.2786069651743" type="qcurve" smooth="yes"/>
      <point x="659.0713243410396" y="1175.2786069651743"/>
      <point x="526.1214953271028" y="1037.743650840663"/>
      <point x="526.1214953271028" y="928.0480907458611" type="qcurve" smooth="yes"/>
      <point x="526.1214953271028" y="542.3686719392413" type="line" smooth="yes"/>
      <point x="526.1214953271028" y="417.1864955086302"/>
      <point x="673.381905604483" y="258.88557213930346"/>
      <point x="788.8703537745914" y="258.88557213930346" type="qcurve" smooth="yes"/>
      <point x="876.7426361980904" y="258.88557213930346"/>
      <point x="967.2604580477462" y="288.3067539017243"/>
      <point x="1001.0621345965092" y="329.21890547263683" type="qcurve"/>
      <point x="1001.0621345965092" y="538.9701492537314" type="line"/>
      <point x="784.3909017197968" y="538.9701492537314" type="line"/>
      <point x="784.3909017197968" y="806.9154228855721" type="line"/>
      <point x="1414.5294243161354" y="806.9154228855721" type="line"/>
      <point x="1416.127555157257" y="164.70319634703196" type="line"/>
      <point x="1347.2972304015705" y="96.58447488584476"/>
      <point x="1041.586267229975" y="-30.0"/>
      <point x="815.7937950753211" y="-30.0" type="qcurve" smooth="yes"/>
      <point x="480.8957313037934" y="-30.0"/>
      <point x="94.0" y="289.5068289330457"/>
    </contour>
  </outline>
</glyph>
<glyph name="H" format="2">
  <advance width="1555.2967609781078"/>
  <unicode hex="0048"/>
  <anchor x="925.5327102803737" y="0.0" name="bottom"/>
  <anchor x="925.5327102803737" y="1100.0" name="center"/>
  <anchor x="925.5327102803737" y="1456.0" name="top"/>
  <anchor x="1623.8598130841124" y="0.0" name="cy_descender"/>
  <anchor x="-107.00000000000001" y="1074.0" name="tonos"/>
  <outline>
    <contour>
      <point x="138.0" y="0.0" type="line"/>
      <point x="138.0" y="1456.0" type="line"/>
      <point x="558.5327102803739" y="1456.0" type="line"/>
      <point x="558.5327102803739" y="0.0" type="line"/>
    </contour>
    <contour>
      <point x="351.33644859813086" y="595.3830845771145" type="line"/>
      <point x="351.33644859813086" y="907.3830845771145" type="line"/>
      <point x="1208.6332095762386" y="907.3830845771145" type="line"/>
      <point x="1208.6332095762386" y="595.3830845771145" type="line"/>
    </contour>
    <contour>
      <point x="996.7640506977341" y="0.0" type="line"/>
      <point x="996.7640506977341" y="1456.0" type="line"/>
      <point x="1417.2967609781078" y="1456.0" type="line"/>
      <point x="1417.2967609781078" y="0.0" type="line"/>
    </contour>
  </outline>
</glyph>
<glyph name="J" format="2">
  <advance width="1272.095719711518"/>
  <unicode hex="004A"/>
  <anchor x="522.5630094311441" y="0.0" name="bottom"/>
  <anchor x="960.273289804976" y="1456.0" name="top"/>
  <outline>
    <contour>
      <point x="23.598130841121495" y="452.3045730252845" type="qcurve" smooth="yes"/>
      <point x="23.598130841121495" y="521.0945273631842" type="line"/>
      <point x="405.2429906542056" y="521.0945273631842" type="line"/>
      <point x="405.2429906542056" y="433.9621072718599" type="line" smooth="yes"/>
      <point x="405.2429906542056" y="358.1475499216248"/>
      <point x="493.0942139895835" y="277.273631840796"/>
      <point x="572.5945888277216" y="277.273631840796" type="qcurve" smooth="yes"/>
      <point x="652.0949636658597" y="277.273631840796"/>
      <point x="739.9461870012376" y="367.67818442036395"/>
      <point x="739.9461870012376" y="451.9073127513119" type="qcurve" smooth="yes"/>
      <point x="739.9461870012376" y="1456.0" type="line"/>
      <point x="1160.4788972816116" y="1456.0" type="line"/>
      <point x="1160.4788972816116" y="474.01233558236214" type="line" smooth="yes"/>
      <point x="1160.4788972816116" y="221.421446091779"/>
      <point x="852.1740688441035" y="-30.0"/>
      <point x="558.2114112576281" y="-30.0" type="qcurve" smooth="yes"/>
      <point x="296.74408077395634" y="-30.0"/>
      <point x="23.598130841121495" y="210.13431434556827"/>
    </contour>
  </outline>
</glyph>
<glyph name="O" format="2">
  <advance width="1553.136474203047"/>
  <unicode hex="004F"/>
  <anchor x="946.5887850467291" y="0.0" name="bottom"/>
  <anchor x="946.5887850467291" y="728.0" name="center"/>
  <anchor x="1229.822429906542" y="0.0" name="ogonek"/>
  <anchor x="946.5887850467291" y="1456.0" name="top"/>
  <anchor x="1224.822429906542" y="1456.0" name="topright"/>
  <anchor x="-11.448598130841116" y="1074.0" name="tonos"/>
  <anchor x="524.5233644859812" y="750.0" name="yu_dash"/>
  <outline>
    <contour>
      <point x="94.0" y="577.2963342295054" type="qcurve" smooth="yes"/>
      <point x="94.0" y="877.0431442837025" type="line" smooth="yes"/>
      <point x="94.0" y="1164.2499039815643"/>
      <point x="442.0093457943925" y="1486.0"/>
      <point x="776.3330772841718" y="1486.0" type="qcurve" smooth="yes"/>
      <point x="1110.656808773951" y="1486.0"/>
      <point x="1459.136474203047" y="1164.2499039815643"/>
      <point x="1459.136474203047" y="877.0431442837025" type="qcurve" smooth="yes"/>
      <point x="1459.136474203047" y="577.2963342295054" type="line" smooth="yes"/>
      <point x="1459.136474203047" y="290.62228481201726"/>
      <point x="1104.326676055136" y="-30.0"/>
      <point x="776.3330772841718" y="-30.0" type="qcurve" smooth="yes"/>
      <point x="448.33947851320784" y="-30.0"/>
      <point x="94.0" y="290.62228481201726"/>
    </contour>
    <contour>
      <point x="526.1214953271028" y="516.7737340693792" type="line" smooth="yes"/>
      <point x="526.1214953271028" y="416.4232944864718"/>
      <point x="659.7653309435411" y="301.7910447761194"/>
      <point x="777.3361071992489" y="301.7910447761194" type="qcurve" smooth="yes"/>
      <point x="894.9068834549566" y="301.7910447761194"/>
      <point x="1028.080399436692" y="416.4232944864718"/>
      <point x="1028.080399436692" y="516.7737340693792" type="qcurve" smooth="yes"/>
      <point x="1028.080399436692" y="942.5185033735434" type="line" smooth="yes"/>
      <point x="1028.080399436692" y="1041.457984052341"/>
      <point x="893.9662441855503" y="1154.2089552238808"/>
      <point x="777.3361071992489" y="1154.2089552238808" type="qcurve" smooth="yes"/>
      <point x="660.7059702129475" y="1154.2089552238808"/>
      <point x="526.1214953271028" y="1041.457984052341"/>
      <point x="526.1214953271028" y="942.5185033735434" type="qcurve" smooth="yes"/>
    </contour>
  </outline>
</glyph>
<glyph name="P" format="2">
  <advance width="1382.711902018521"/>
  <unicode hex="0050"/>
  <anchor x="514.7289719626169" y="0.0" name="bottom"/>
  <anchor x="797.0654205607476" y="1456.0" name="top"/>
  <outline>
    <contour>
      <point x="138.0" y="0.0" type="line"/>
      <point x="138.0" y="1456.0" type="line"/>
      <point x="891.0394742457219" y="1456.0" type="line" smooth="yes"/>
      <point x="1092.3629496863398" y="1456.0"/>
      <point x="1340.711902018521" y="1215.0909834389695"/>
      <point x="1340.711902018521" y="984.7363184079601" type="qcurve" smooth="yes"/>
      <point x="1340.711902018521" y="760.8940911878962"/>
      <point x="1092.3629496863398" y="524.7960199004976"/>
      <point x="891.0394742457219" y="525.179104477612" type="qcurve" smooth="yes"/>
      <point x="354.53271028037386" y="525.179104477612" type="line"/>
      <point x="354.53271028037386" y="790.4427860696517" type="line"/>
      <point x="723.2357359279648" y="790.4427860696517" type="line" smooth="yes"/>
      <point x="829.3064099550895" y="790.4427860696517"/>
      <point x="911.6558272521657" y="880.9928439991822"/>
      <point x="911.6558272521657" y="984.7363184079601" type="qcurve" smooth="yes"/>
      <point x="911.6558272521657" y="1087.7136236625095"/>
      <point x="829.3064099550895" y="1175.4129353233832"/>
      <point x="723.2357359279648" y="1175.4129353233832" type="qcurve" smooth="yes"/>
      <point x="564.9252336448598" y="1175.4129353233832" type="line"/>
      <point x="564.9252336448598" y="0.0" type="line"/>
    </contour>
  </outline>
</glyph>
<glyph name="T" format="2">
  <advance width="1105.669235693253"/>
  <unicode hex="0054"/>
  <anchor x="702.396261682243" y="0.0" name="bottom"/>
  <anchor x="702.396261682243" y="728.0" name="center"/>
  <anchor x="702.396261682243" y="1456.0" name="top"/>
  <anchor x="817.4616822429907" y="0.0" name="cy_descender"/>
  <outline>
    <contour>
      <point x="339.6383561643836" y="0.0" type="line"/>
      <point x="339.6383561643836" y="1378.0000000000002" type="line"/>
      <point x="766.0308795288696" y="1378.0000000000002" type="line"/>
      <point x="766.0308795288696" y="0.0" type="line"/>
    </contour>
    <contour>
      <point x="21.200000000000003" y="1144.0" type="line"/>
      <point x="21.200000000000003" y="1456.0" type="line"/>
      <point x="1084.4692356932533" y="1456.0" type="line"/>
      <point x="1084.4692356932533" y="1144.0" type="line"/>
    </contour>
  </outline>
</glyph>
<glyph name="V" format="2">
  <advance width="1363.4593521956217"/>
  <unicode hex="0056"/>
  <anchor x="750.9531430034566" y="0.0" name="bottom"/>
  <anchor x="862.8223018819613" y="1456.0" name="top"/>
  <outline>
    <contour>
      <point x="2.0" y="1456.0" type="line"/>
      <point x="467.02803738317755" y="1456.0" type="line"/>
      <point x="690.2014680151922" y="561.4969914223532" type="line" smooth="yes"/>
      <point x="696.4952417530832" y="534.3568045064652"/>
      <point x="708.3247556864252" y="487.6184867494559"/>
      <point x="711.9016771220074" y="456.0203559083344" type="qcurve"/>
      <point x="717.0767293987113" y="456.0203559083344" type="line"/>
      <point x="720.6536508342936" y="487.6184867494559"/>
      <point x="733.5455554133061" y="534.3568045064652"/>
      <point x="739.839329151197" y="561.4969914223532" type="qcurve" smooth="yes"/>
      <point x="974.1251653650836" y="1456.0" type="line"/>
      <point x="1361.4593521956217" y="1456.0" type="line"/>
      <point x="918.9714078436393" y="-10.0" type="line"/>
      <point x="450.7844919557889" y="-10.0" type="line"/>
    </contour>
  </outline>
</glyph>
<glyph name="W" format="2">
  <advance width="1829.9169973968337"/>
  <unicode hex="0057"/>
  <anchor x="1616.0732319709864" y="0.0" name="bottom"/>
  <anchor x="1722.6152880457525" y="1456.0" name="top"/>
  <outline>
    <contour>
      <point x="303.58447488584477" y="-10.0" type="line"/>
      <point x="42.0" y="1456.0" type="line"/>
      <point x="501.4205607476635" y="1456.0" type="line"/>
      <point x="619.1995049716213" y="570.3084112149534" type="line" smooth="yes"/>
      <point x="624.377587163402" y="535.2429906542056"/>
      <point x="628.3684974181709" y="495.30841121495325"/>
      <point x="630.4248282336875" y="461.2429906542055" type="qcurve"/>
      <point x="637.0078094994238" y="461.2429906542055" type="line"/>
      <point x="639.0641403149405" y="495.30841121495325"/>
      <point x="641.927239363291" y="535.7757009345794"/>
      <point x="647.6350019203687" y="570.3084112149534" type="qcurve" smooth="yes"/>
      <point x="743.5799940255197" y="1455.4672897196263" type="line"/>
      <point x="1084.0753211283234" y="1455.4672897196263" type="line"/>
      <point x="1214.6641061750524" y="571.9065420560748" type="line" smooth="yes"/>
      <point x="1220.3718687321298" y="537.3738317757009"/>
      <point x="1223.7676780608545" y="495.30841121495325"/>
      <point x="1226.2943285110741" y="461.2429906542055" type="qcurve"/>
      <point x="1231.9397004224813" y="461.2429906542055" type="line"/>
      <point x="1234.4663508727008" y="495.30841121495325"/>
      <point x="1239.3324798361286" y="537.9065420560748"/>
      <point x="1243.5699227585028" y="571.9065420560748" type="qcurve" smooth="yes"/>
      <point x="1327.832885247301" y="1456.0" type="line"/>
      <point x="1787.9169973968337" y="1456.0" type="line"/>
      <point x="1546.085947168523" y="-10.0" type="line"/>
      <point x="1050.581274271327" y="-10.0" type="line"/>
      <point x="942.8702257500107" y="878.6802799470831" type="line" smooth="yes"/>
      <point x="938.2278837536808" y="913.7457005078309"/>
      <point x="928.5201211966031" y="968.8858874237188"/>
      <point x="924.052831476977" y="1002.9513079844663" type="qcurve"/>
      <point x="916.052831476977" y="1002.9513079844663" type="line"/>
      <point x="911.5855417573508" y="968.8858874237188"/>
      <point x="904.3541586651304" y="914.216020142534"/>
      <point x="899.6494260231298" y="878.6802799470831" type="qcurve" smooth="yes"/>
      <point x="790.5657832970596" y="-10.0" type="line"/>
    </contour>
  </outline>
</glyph>
<glyph name="Y" format="2">
  <advance width="1178.2007425425682"/>
  <unicode hex="0059"/>
  <anchor x="715.8130841121496" y="0.0" name="bottom"/>
  <anchor x="848.4579439252336" y="1456.0" name="top"/>
  <anchor x="-176.0" y="1074.0" name="tonos"/>
  <outline>
    <contour>
      <point x="375.9041095890411" y="0.0" type="line"/>
      <point x="375.9041095890411" y="544.0" type="line"/>
      <point x="14.0" y="1456.0" type="line"/>
      <point x="464.39252336448595" y="1456.0" type="line"/>
      <point x="589.890923057227" y="1000.8785046728972" type="line" smooth="yes"/>
      <point x="596.5181154781718" y="977.803738317757"/>
      <point x="612.7007638799982" y="920.8785046728972"/>
      <point x="621.411556352153" y="893.8785046728972" type="qcurve"/>
      <point x="627.411556352153" y="893.8785046728972" type="line"/>
      <point x="635.5896385439337" y="920.8785046728972"/>
      <point x="652.2426065804635" y="973.2589083770752"/>
      <point x="660.9382494772331" y="1000.8785046728972" type="qcurve" smooth="yes"/>
      <point x="784.1353219818205" y="1456.0" type="line"/>
      <point x="1164.2007425425682" y="1456.0" type="line"/>
      <point x="802.2966329535271" y="544.0" type="line"/>
      <point x="802.2966329535271" y="0.0" type="line"/>
    </contour>
  </outline>
</glyph>
<glyph name="Z" format="2">
  <advance width="1238.3440617931976"/>
  <unicode hex="005A"/>
  <anchor x="764.588785046729" y="0.0" name="bottom"/>
  <anchor x="764.588785046729" y="1456.0" name="top"/>
  <outline>
    <contour>
      <point x="54.0" y="0.0" type="line"/>
      <point x="54.0" y="254.92537313432837" type="line"/>
      <point x="586.8386807480967" y="1144.766169154229" type="line"/>
      <point x="66.0" y="1144.766169154229" type="line"/>
      <point x="66.0" y="1456.0" type="line"/>
      <point x="1149.6675628387316" y="1456.0" type="line"/>
      <point x="1149.6675628387316" y="1201.0746268656717" type="line"/>
      <point x="620.7913129271069" y="308.16915422885575" type="line"/>
      <point x="1183.5440617931977" y="308.16915422885575" type="line"/>
      <point x="1183.5440617931977" y="0.0" type="line"/>
    </contour>
  </outline>
</glyph>
<glyph name="b" format="2">
  <advance width="1378.5854222677422"/>
  <unicode hex="0062"/>
  <anchor x="893.007476635514" y="0.0" name="bottom"/>
  <anchor x="568.0542056074768" y="1535.4672897196263" name="top"/>
  <outline>
    <contour>
      <point x="120.40000000000002" y="0.0" type="line"/>
      <point x="120.40000000000002" y="1536.0" type="line"/>
      <point x="519.4841121495326" y="1536.0" type="line"/>
      <point x="519.4841121495326" y="137.0" type="line"/>
      <point x="509.4841121495327" y="137.0" type="line"/>
      <point x="501.48411214953273" y="0.0" type="line"/>
    </contour>
    <contour>
      <point x="678.548039090172" y="270.29353233830847" type="qcurve" smooth="yes"/>
      <point x="775.4019203687108" y="270.29353233830847"/>
      <point x="865.5480390901719" y="374.9916854085736"/>
      <point x="865.5480390901719" y="451.4869488175561" type="qcurve" smooth="yes"/>
      <point x="865.5480390901719" y="599.3637974511007" type="line" smooth="yes"/>
      <point x="865.5480390901719" y="677.0083145914265"/>
      <point x="775.4019203687108" y="781.7064676616915"/>
      <point x="678.548039090172" y="781.7064676616915" type="qcurve" smooth="yes"/>
      <point x="587.8722400034139" y="781.7064676616915"/>
      <point x="476.48411214953273" y="675.0109725345874"/>
      <point x="476.48411214953273" y="603.037415661419" type="qcurve" smooth="yes"/>
      <point x="476.48411214953273" y="457.15790908471354" type="line" smooth="yes"/>
      <point x="476.48411214953273" y="374.2281741975056"/>
      <point x="590.9909614646012" y="270.29353233830847"/>
    </contour>
    <contour>
      <point x="814.6278410788206" y="-20.0" type="qcurve" smooth="yes"/>
      <point x="612.5380531728758" y="-20.0"/>
      <point x="372.7271028037383" y="228.3150684931507"/>
      <point x="372.7271028037383" y="450.392694063927" type="qcurve" smooth="yes"/>
      <point x="372.7271028037383" y="620.7853881278538" type="line" smooth="yes"/>
      <point x="372.7271028037383" y="809.1184488516324"/>
      <point x="596.8889303323352" y="1072.0"/>
      <point x="814.6278410788206" y="1072.0" type="qcurve" smooth="yes"/>
      <point x="1024.4375112021507" y="1072.0"/>
      <point x="1276.6228054453122" y="811.0701147953741"/>
      <point x="1276.6228054453122" y="610.3259079076516" type="qcurve" smooth="yes"/>
      <point x="1276.6228054453122" y="439.0105406904793" type="line" smooth="yes"/>
      <point x="1276.6228054453122" y="239.3317543635045"/>
      <point x="1024.4375112021507" y="-20.0"/>
    </contour>
  </outline>
</glyph>
<glyph name="c" format="2">
  <advance width="1246.7595100926044"/>
  <unicode hex="0063"/>
  <anchor x="776.5420560747664" y="0.0" name="bottom"/>
  <anchor x="776.5420560747664" y="1052.0" name="top"/>
  <outline>
    <contour>
      <point x="70.0" y="423.93150684931504" type="qcurve" smooth="yes"/>
      <point x="70.0" y="628.068493150685" type="line" smooth="yes"/>
      <point x="70.0" y="827.972602739726"/>
      <point x="387.71826057269664" y="1082.0"/>
      <point x="665.0427175351001" y="1082.0" type="qcurve" smooth="yes"/>
      <point x="921.0800886108441" y="1082.0"/>
      <point x="1189.5595100926046" y="854.275471955292"/>
      <point x="1189.5595100926046" y="680.8294827233694" type="qcurve" smooth="yes"/>
      <point x="1189.5595100926046" y="639.9316036639234" type="line"/>
      <point x="807.7247044765928" y="639.9316036639234" type="line"/>
      <point x="807.7247044765928" y="673.7746882028215" type="line" smooth="yes"/>
      <point x="807.7247044765928" y="719.8707830709467"/>
      <point x="741.3536828722856" y="788.2587064676618"/>
      <point x="658.0215081295609" y="788.2587064676618" type="qcurve" smooth="yes"/>
      <point x="566.6927410062733" y="788.2587064676618"/>
      <point x="479.60141680536" y="702.375042595243"/>
      <point x="479.60141680536" y="640.19437061269" type="qcurve" smooth="yes"/>
      <point x="479.60141680536" y="411.8056293873101" type="line" smooth="yes"/>
      <point x="479.60141680536" y="349.6249574047571"/>
      <point x="566.6927410062733" y="263.35820895522386"/>
      <point x="658.0215081295609" y="263.35820895522386" type="qcurve" smooth="yes"/>
      <point x="741.3536828722856" y="263.35820895522386"/>
      <point x="807.7247044765928" y="329.08258095006977"/>
      <point x="807.7247044765928" y="375.7113860985687" type="qcurve" smooth="yes"/>
      <point x="807.7247044765928" y="411.68531175896226" type="line"/>
      <point x="1189.5595100926046" y="411.68531175896226" type="line"/>
      <point x="1189.5595100926046" y="370.7874326995161" type="line" smooth="yes"/>
      <point x="1189.5595100926046" y="197.34144346759354"/>
      <point x="925.3129653231729" y="-30.0"/>
      <point x="665.5130371698033" y="-30.0" type="qcurve" smooth="yes"/>
      <point x="387.71826057269664" y="-30.0"/>
      <point x="70.0" y="224.027397260274"/>
    </contour>
  </outline>
</glyph>
<glyph name="f" format="2">
  <advance width="765.4204327230829"/>
  <unicode hex="0066"/>
  <anchor x="389.4324670336705" y="0.0" name="bottom"/>
  <anchor x="442.7034950710536" y="1536.0" name="top"/>
  <outline>
    <contour>
      <point x="178.8904109589041" y="0.0" type="line"/>
      <point x="178.8904109589041" y="1138.2056074766356" type="line" smooth="yes"/>
      <point x="178.8904109589041" y="1342.570093457944"/>
      <point x="417.1703153672172" y="1556.0"/>
      <point x="651.5744889685487" y="1556.0" type="qcurve" smooth="yes"/>
      <point x="715.8490590193318" y="1556.0"/>
      <point x="809.7035804207741" y="1545.8691588785048"/>
      <point x="839.4204327230829" y="1538.9345794392525" type="qcurve"/>
      <point x="831.3017112618957" y="1274.009206304924" type="line"/>
      <point x="811.6533094354116" y="1278.0092063049242"/>
      <point x="767.7674646865532" y="1285.0746268656717"/>
      <point x="745.0597021294756" y="1285.0746268656717" type="qcurve" smooth="yes"/>
      <point x="666.3473733623522" y="1285.0746268656717"/>
      <point x="580.1053642299321" y="1185.8407960199006"/>
      <point x="580.1053642299321" y="1085.0746268656717" type="qcurve" smooth="yes"/>
      <point x="580.1053642299321" y="882.4378109452737" type="line"/>
      <point x="580.1053642299321" y="970.0000000000002" type="line"/>
      <point x="580.1053642299321" y="0.0" type="line"/>
    </contour>
    <contour>
      <point x="22.0" y="756.7661691542289" type="line"/>
      <point x="22.0" y="1052.0" type="line"/>
      <point x="248.8904109589041" y="1052.0" type="line"/>
      <point x="507.97452310843676" y="1052.0" type="line"/>
      <point x="780.3565057824436" y="1052.0" type="line"/>
      <point x="780.3565057824436" y="756.7661691542289" type="line"/>
    </contour>
  </outline>
</glyph>
<glyph name="g" format="2">
  <advance width="1321.0527119873684"/>
  <unicode hex="0067"/>
  <anchor x="737.803738317757" y="-416.0" name="bottom"/>
  <anchor x="780.9532710280374" y="1052.0" name="top"/>
  <outline>
    <contour>
      <point x="566.6173345282294" y="-436.00000000000006" type="qcurve" smooth="yes"/>
      <point x="412.05983015405627" y="-436.00000000000006"/>
      <point x="178.71313958946786" y="-344.82648401826486"/>
      <point x="100.84619980369564" y="-284.00000000000006" type="qcurve"/>
      <point x="224.1115711928133" y="-25.24378109452737" type="line"/>
      <point x="277.6201376933028" y="-77.77611940298507"/>
      <point x="435.8310890815415" y="-149.49751243781097"/>
      <point x="526.7032390218923" y="-149.49751243781097" type="qcurve" smooth="yes"/>
      <point x="676.6581788280464" y="-149.49751243781097"/>
      <point x="827.1386932957795" y="-47.14813781559492"/>
      <point x="827.1386932957795" y="91.99442042125818" type="qcurve" smooth="yes"/>
      <point x="827.1386932957795" y="915.0" type="line"/>
      <point x="833.376136218154" y="915.0" type="line"/>
      <point x="838.5542184099347" y="1052.0" type="line"/>
      <point x="1226.2228054453121" y="1052.0" type="line"/>
      <point x="1226.2228054453121" y="86.05607476635512" type="line" smooth="yes"/>
      <point x="1226.2228054453121" y="-195.20560747663552"/>
      <point x="856.3080271412111" y="-436.00000000000006"/>
    </contour>
    <contour>
      <point x="663.5016452750967" y="270.29353233830847" type="qcurve" smooth="yes"/>
      <point x="750.3878831422201" y="270.29353233830847"/>
      <point x="860.7608614207162" y="376.9890274654127"/>
      <point x="860.7608614207162" y="449.34566891569557" type="qcurve" smooth="yes"/>
      <point x="860.7608614207162" y="594.7548558576979" type="line" smooth="yes"/>
      <point x="860.7608614207162" y="677.7718258024944"/>
      <point x="751.6861219443686" y="781.7064676616915"/>
      <point x="663.5016452750967" y="781.7064676616915" type="qcurve" smooth="yes"/>
      <point x="568.9922219653238" y="781.7064676616915"/>
      <point x="481.0747663551402" y="677.0083145914265"/>
      <point x="481.0747663551402" y="598.8934778163974" type="qcurve" smooth="yes"/>
      <point x="481.0747663551402" y="451.9572684522593" type="line" smooth="yes"/>
      <point x="481.0747663551402" y="374.9916854085736"/>
      <point x="568.9922219653238" y="270.29353233830847"/>
    </contour>
    <contour>
      <point x="528.4338596353784" y="-20.0" type="qcurve" smooth="yes"/>
      <point x="320.8528526233256" y="-20.0"/>
      <point x="70.0" y="237.67123287671234"/>
      <point x="70.0" y="435.689497716895" type="qcurve" smooth="yes"/>
      <point x="70.0" y="616.310502283105" type="line" smooth="yes"/>
      <point x="70.0" y="814.3287671232878"/>
      <point x="320.8528526233256" y="1072.0"/>
      <point x="528.4338596353784" y="1072.0" type="qcurve" smooth="yes"/>
      <point x="735.7802470173776" y="1072.0"/>
      <point x="964.0475511318075" y="811.7990867579908"/>
      <point x="964.0475511318075" y="607.1917808219177" type="qcurve" smooth="yes"/>
      <point x="964.0475511318075" y="430.68949771689506" type="line" smooth="yes"/>
      <point x="964.0475511318075" y="239.20091324200916"/>
      <point x="734.2475367370038" y="-20.0"/>
    </contour>
  </outline>
</glyph>
<glyph name="h" format="2">
  <advance width="1319.0778133401614"/>
  <unicode hex="0068"/>
  <anchor x="752.3532710280374" y="0.0" name="bottom"/>
  <anchor x="398.94205607476636" y="1327.0" name="center"/>
  <anchor x="308.02616822429906" y="1536.0" name="top"/>
  <anchor x="1199.026168224299" y="0.0" name="engtail"/>
  <outline>
    <contour>
      <point x="519.4841121495326" y="0.0" type="line"/>
      <point x="120.40000000000002" y="0.0" type="line"/>
      <point x="120.40000000000002" y="1536.0" type="line"/>
      <point x="519.4841121495326" y="1536.0" type="line"/>
    </contour>
    <contour>
      <point x="400.5034639884688" y="767.8224299065421" type="line"/>
      <point x="475.5635907009569" y="935.8691588785048"/>
      <point x="698.6653949558315" y="1072.0"/>
      <point x="840.0203644433064" y="1072.0" type="qcurve" smooth="yes"/>
      <point x="1010.4740835573764" y="1072.0"/>
      <point x="1206.6778133401613" y="893.5195237485598"/>
      <point x="1206.6778133401613" y="722.9412367174498" type="qcurve" smooth="yes"/>
      <point x="1206.6778133401613" y="0.0" type="line"/>
      <point x="807.5937011906286" y="0.0" type="line"/>
      <point x="807.5937011906286" y="534.403734750903" type="line" smooth="yes"/>
      <point x="807.5937011906286" y="660.403734750903"/>
      <point x="733.630230870994" y="760.4676616915424"/>
      <point x="662.2406520718646" y="760.4676616915424" type="qcurve" smooth="yes"/>
      <point x="583.9349293731063" y="760.4676616915424"/>
      <point x="441.2695541623593" y="558.676402394633"/>
      <point x="400.5034639884688" y="396.83214767285074" type="qcurve"/>
    </contour>
  </outline>
</glyph>
<glyph name="l" format="2">
  <advance width="652.6841121495327"/>
  <unicode hex="006C"/>
  <anchor x="328.47289719626167" y="0.0" name="bottom"/>
  <anchor x="328.47289719626167" y="791.0" name="center"/>
  <anchor x="328.47289719626167" y="1536.0" name="top"/>
  <anchor x="630.6785046728971" y="1052.0" name="topright"/>
  <anchor x="325.8093457943925" y="542.0" name="yu_dash"/>
  <outline>
    <contour>
      <point x="126.8" y="0.0" type="line"/>
      <point x="126.8" y="1536.0" type="line"/>
      <point x="525.8841121495327" y="1536.0" type="line"/>
      <point x="525.8841121495327" y="0.0" type="line"/>
    </contour>
  </outline>
</glyph>
<glyph name="m" format="2">
  <advance width="1986.615260530022"/>
  <unicode hex="006D"/>
  <anchor x="1067.4841121495328" y="0.0" name="bottom"/>
  <anchor x="1067.4841121495328" y="1052.0" name="top"/>
  <outline>
    <contour>
      <point x="120.40000000000002" y="0.0" type="line"/>
      <point x="120.40000000000002" y="1052.0" type="line"/>
      <point x="501.48411214953273" y="1052.0" type="line"/>
      <point x="519.4841121495326" y="757.0000000000001" type="line"/>
      <point x="519.4841121495326" y="0.0" type="line"/>
    </contour>
    <contour>
      <point x="1201.3777237229547" y="707.6355140186917" type="qcurve" smooth="yes"/>
      <point x="1201.3777237229547" y="0.0" type="line"/>
      <point x="793.237536807067" y="0.0" type="line"/>
      <point x="793.237536807067" y="525.4676616915423" type="line" smooth="yes"/>
      <point x="793.237536807067" y="651.4676616915423"/>
      <point x="721.9224683139162" y="760.4676616915424"/>
      <point x="656.3151623778432" y="760.4676616915424" type="qcurve" smooth="yes"/>
      <point x="596.3562582682542" y="760.4676616915424"/>
      <point x="498.6804591814962" y="642.4676616915424"/>
      <point x="430.48411214953273" y="429.46766169154233" type="qcurve"/>
      <point x="430.48411214953273" y="764.0" type="line"/>
      <point x="509.04212862202877" y="946.7943925233644"/>
      <point x="731.416344471472" y="1072.0"/>
      <point x="846.6955234071609" y="1072.0" type="qcurve" smooth="yes"/>
      <point x="1004.4127171083516" y="1072.0"/>
      <point x="1201.3777237229547" y="889.0"/>
    </contour>
    <contour>
      <point x="1144.440610543493" y="823.0" type="line"/>
      <point x="1169.7220085719143" y="919.196261682243"/>
      <point x="1350.5175692399607" y="1072.0"/>
      <point x="1496.6762770451924" y="1072.0" type="qcurve" smooth="yes"/>
      <point x="1679.493756667947" y="1072.0"/>
      <point x="1874.215260530022" y="891.0"/>
      <point x="1874.215260530022" y="679.0" type="qcurve" smooth="yes"/>
      <point x="1874.215260530022" y="0.0" type="line"/>
      <point x="1475.1311483804893" y="0.0" type="line"/>
      <point x="1475.1311483804893" y="525.4676616915423" type="line" smooth="yes"/>
      <point x="1475.1311483804893" y="651.4676616915423"/>
      <point x="1402.8754406179319" y="760.4676616915424"/>
      <point x="1329.0900524900783" y="760.4676616915424" type="qcurve" smooth="yes"/>
      <point x="1254.3046643622242" y="760.4676616915424"/>
      <point x="1169.7419804065069" y="579.4676616915423"/>
      <point x="1144.440610543493" y="429.46766169154233" type="qcurve"/>
    </contour>
  </outline>
</glyph>
<glyph name="q" format="2">
  <advance width="1346.6228054453122"/>
  <unicode hex="0071"/>
  <anchor x="669.6168224299066" y="0.0" name="bottom"/>
  <anchor x="669.6168224299066" y="1052.0" name="top"/>
  <outline>
    <contour>
      <point x="827.1386932957795" y="-416.0" type="line"/>
      <point x="827.1386932957795" y="915.0" type="line"/>
      <point x="837.1386932957795" y="915.0" type="line"/>
      <point x="845.1386932957794" y="1052.0" type="line"/>
      <point x="1226.2228054453121" y="1052.0" type="line"/>
      <point x="1226.2228054453121" y="-416.0" type="line"/>
    </contour>
    <contour>
      <point x="667.5420560747664" y="270.29353233830847" type="qcurve" smooth="yes"/>
      <point x="756.3024322759522" y="270.29353233830847"/>
      <point x="869.6059830154057" y="414.1442786069652"/>
      <point x="869.6059830154057" y="511.4278606965174" type="qcurve" smooth="yes"/>
      <point x="869.6059830154057" y="529.8507462686567" type="line" smooth="yes"/>
      <point x="869.6059830154057" y="641.5572139303483"/>
      <point x="757.0145565859093" y="781.7064676616915"/>
      <point x="667.5420560747664" y="781.7064676616915" type="qcurve" smooth="yes"/>
      <point x="570.6881747962275" y="781.7064676616915"/>
      <point x="480.5420560747664" y="640.3233830845771"/>
      <point x="480.5420560747664" y="535.8706467661692" type="qcurve" smooth="yes"/>
      <point x="480.5420560747664" y="514.9800995024875" type="line" smooth="yes"/>
      <point x="480.5420560747664" y="411.67661691542287"/>
      <point x="570.6881747962275" y="270.29353233830847"/>
    </contour>
    <contour>
      <point x="531.5246447317886" y="-20.0" type="qcurve" smooth="yes"/>
      <point x="321.71497460845814" y="-20.0"/>
      <point x="70.0" y="280.0"/>
      <point x="70.0" y="510.0" type="qcurve" smooth="yes"/>
      <point x="70.0" y="542.0" type="line" smooth="yes"/>
      <point x="70.0" y="772.0000000000001"/>
      <point x="321.71497460845814" y="1072.0"/>
      <point x="531.5246447317886" y="1072.0" type="qcurve" smooth="yes"/>
      <point x="742.3967055007895" y="1072.0"/>
      <point x="972.8926727264969" y="769.0"/>
      <point x="972.8926727264969" y="531.0" type="qcurve" smooth="yes"/>
      <point x="972.8926727264969" y="505.0" type="line" smooth="yes"/>
      <point x="972.8926727264969" y="282.0"/>
      <point x="741.3343148551189" y="-20.0"/>
    </contour>
  </outline>
</glyph>
<glyph name="s" format="2">
  <advance width="1180.1494900354203"/>
  <unicode hex="0073"/>
  <anchor x="695.5607476635514" y="0.0" name="bottom"/>
  <anchor x="684.9065420560747" y="1052.0" name="top"/>
  <outline>
    <contour>
      <point x="66.0" y="354.82089552238807" type="line"/>
      <point x="427.7943925233645" y="354.82089552238807" type="line"/>
      <point x="427.7943925233645" y="321.60171744019624" type="line" smooth="yes"/>
      <point x="427.7943925233645" y="270.2103068067676"/>
      <point x="519.6065976607807" y="227.34825870646767"/>
      <point x="607.8118038663423" y="227.34825870646767" type="qcurve" smooth="yes"/>
      <point x="644.2772509237196" y="227.34825870646767"/>
      <point x="696.9405348115396" y="252.1985431949203"/>
      <point x="696.9405348115396" y="290.20901955464007" type="qcurve" smooth="yes"/>
      <point x="696.9405348115396" y="327.6633189194216"/>
      <point x="611.7701188080848" y="364.89928032351366"/>
      <point x="534.2935176887295" y="388.5776469082064" type="qcurve" smooth="yes"/>
      <point x="297.9609709740887" y="430.58892007763006"/>
      <point x="108.76661118934837" y="598.3457491699103"/>
      <point x="108.76661118934837" y="744.1019929159733" type="qcurve" smooth="yes"/>
      <point x="108.76661118934837" y="911.5940824618426"/>
      <point x="351.27460380850835" y="1082.0"/>
      <point x="623.4490675543037" y="1082.0" type="qcurve" smooth="yes"/>
      <point x="863.2417486246912" y="1082.0"/>
      <point x="1108.7549182776427" y="871.2813145895157"/>
      <point x="1109.695557547049" y="742.5306344987392" type="qcurve" smooth="yes"/>
      <point x="1109.695557547049" y="707.9004975124378" type="line"/>
      <point x="713.2095762386377" y="707.9004975124378" type="line"/>
      <point x="713.2095762386377" y="741.3571185170041" type="line" smooth="yes"/>
      <point x="713.2095762386377" y="792.7346171459947"/>
      <point x="661.5922092265595" y="829.63184079602"/>
      <point x="605.2745273759228" y="829.63184079602" type="qcurve" smooth="yes"/>
      <point x="569.3261206450145" y="829.63184079602"/>
      <point x="496.86384299218287" y="808.8654124079385"/>
      <point x="496.86384299218287" y="775.7748996663081" type="qcurve" smooth="yes"/>
      <point x="496.86384299218287" y="732.5975951760848"/>
      <point x="607.6291803051062" y="689.1411327691335"/>
      <point x="710.3654248282337" y="664.8340801433876" type="qcurve" smooth="yes"/>
      <point x="942.9100108215802" y="628.2746910690435"/>
      <point x="1114.14949003542" y="465.2693210429736"/>
      <point x="1114.14949003542" y="331.2922801177826" type="qcurve" smooth="yes"/>
      <point x="1114.14949003542" y="165.18947637946488"/>
      <point x="851.1567020868008" y="-30.0"/>
      <point x="582.2417104083984" y="-30.0" type="qcurve" smooth="yes"/>
      <point x="351.49955382478214" y="-30.0"/>
      <point x="66.0" y="149.00953560197988"/>
      <point x="66.0" y="318.7797996319771" type="qcurve" smooth="yes"/>
    </contour>
  </outline>
</glyph>
<glyph name="t" format="2">
  <advance width="809.5818290445098"/>
  <unicode hex="0074"/>
  <anchor x="522.5233644859813" y="0.0" name="bottom"/>
  <anchor x="427.68224299065423" y="619.0" name="center"/>
  <anchor x="427.68224299065423" y="1312.0" name="top"/>
  <anchor x="915.0841121495326" y="1052.0" name="topright"/>
  <outline>
    <contour>
      <point x="2.0" y="756.7661691542289" type="line"/>
      <point x="2.0" y="1052.0" type="line"/>
      <point x="767.58182904451" y="1052.0" type="line"/>
      <point x="767.58182904451" y="756.7661691542289" type="line"/>
    </contour>
    <contour>
      <point x="165.5433789954338" y="366.5420560747663" type="qcurve" smooth="yes"/>
      <point x="165.5433789954338" y="966.0" type="line"/>
      <point x="165.5433789954338" y="996.0000000000002" type="line"/>
      <point x="165.5433789954338" y="1312.0" type="line"/>
      <point x="564.6274911449665" y="1312.0" type="line"/>
      <point x="564.6274911449665" y="386.4179104477612" type="line" smooth="yes"/>
      <point x="564.6274911449665" y="316.4179104477612"/>
      <point x="614.0430162591217" y="256.4179104477612"/>
      <point x="667.4585413732771" y="256.4179104477612" type="qcurve" smooth="yes"/>
      <point x="692.1663039303546" y="256.4179104477612"/>
      <point x="740.0521486792131" y="268.4179104477612"/>
      <point x="764.7599112362908" y="278.4179104477612" type="qcurve"/>
      <point x="764.7599112362908" y="0.0" type="line"/>
      <point x="740.1708701404004" y="-12.0"/>
      <point x="603.216574915717" y="-30.0"/>
      <point x="508.5648871249946" y="-30.0" type="qcurve" smooth="yes"/>
      <point x="347.34865360815945" y="-30.0"/>
      <point x="165.5433789954338" y="168.59813084112147"/>
    </contour>
  </outline>
</glyph>
<glyph name="w" format="2">
  <advance width="1705.5345452993643"/>
  <unicode hex="0077"/>
  <anchor x="1156.214953271028" y="0.0" name="bottom"/>
  <anchor x="1156.214953271028" y="1052.0" name="top"/>
  <outline>
    <contour>
      <point x="22.0" y="1052.0" type="line"/>
      <point x="439.7135663380702" y="1052.0" type="line"/>
      <point x="502.14872188793584" y="577.9552340716084" type="line" smooth="yes"/>
      <point x="508.4455255409039" y="539.5533649127299"/>
      <point x="520.8168394998506" y="449.52336448598123"/>
      <point x="523.206588998421" y="410.58878504672896" type="qcurve"/>
      <point x="528.3283403746852" y="410.58878504672896" type="line"/>
      <point x="530.7180898732557" y="448.9906542056075"/>
      <point x="551.5839627875218" y="540.0860751931037"/>
      <point x="559.2232748687748" y="577.9552340716084" type="qcurve" smooth="yes"/>
      <point x="640.744292237443" y="1052.0" type="line"/>
      <point x="1067.111552084667" y="1052.0" type="line"/>
      <point x="1155.819741390347" y="577.9552340716084" type="line" smooth="yes"/>
      <point x="1164.5214441172707" y="539.0206546323561"/>
      <point x="1178.0541543976444" y="448.9906542056075"/>
      <point x="1181.384543165621" y="410.58878504672896" type="qcurve"/>
      <point x="1186.5062945418854" y="410.58878504672896" type="line"/>
      <point x="1187.9554047710494" y="449.52336448598123"/>
      <point x="1200.8030981948534" y="540.6187854734776"/>
      <point x="1207.0999018478215" y="577.9552340716084" type="qcurve" smooth="yes"/>
      <point x="1270.0235565228522" y="1052.0" type="line"/>
      <point x="1683.5345452993643" y="1052.0" type="line"/>
      <point x="1497.7828703110997" y="0.0" type="line"/>
      <point x="987.372423505313" y="0.0" type="line"/>
      <point x="896.5745743182691" y="476.3367473221526" type="line" smooth="yes"/>
      <point x="888.4025519566424" y="513.6731959202834"/>
      <point x="872.8316903512142" y="612.4859813084113"/>
      <point x="868.9122604873469" y="650.355140186916" type="qcurve"/>
      <point x="863.2577988307089" y="650.355140186916" type="line"/>
      <point x="859.9334698928861" y="612.4859813084113"/>
      <point x="847.4964793240301" y="514.2059062006573"/>
      <point x="840.922587803525" y="476.3367473221526" type="qcurve" smooth="yes"/>
      <point x="765.6357273929927" y="0.0" type="line"/>
      <point x="255.2252805872061" y="0.0" type="line"/>
    </contour>
  </outline>
</glyph>
<glyph name="z" format="2">
  <advance width="1005.9670806128111"/>
  <unicode hex="007A"/>
  <anchor x="410.4859813084113" y="0.0" name="bottom"/>
  <anchor x="410.4859813084113" y="1052.0" name="top"/>
  <outline>
    <contour>
      <point x="58.0" y="0.0" type="line"/>
      <point x="58.0" y="250.18677639838188" type="line"/>
      <point x="424.61801732599326" y="788.5223880597015" type="line"/>
      <point x="66.0" y="788.5223880597015" type="line"/>
      <point x="66.0" y="1052.0" type="line"/>
      <point x="920.4685731501245" y="1052.0" type="line"/>
      <point x="920.4685731501245" y="807.5223880597015" type="line"/>
      <point x="533.5548381508155" y="267.69154228855723" type="line"/>
      <point x="952.767080612811" y="267.69154228855723" type="line"/>
      <point x="952.767080612811" y="0.0" type="line"/>
    </contour>
  </outline>
</glyph>
<glyph name="exclamdown" format="2">
  <advance width="753.0953271028037"/>
  <unicode hex="00A1"/>
  <outline>
    <contour>
      <point x="602.2953271028038" y="958.7102803738319" type="qcurve" smooth="yes"/>
      <point x="602.2953271028038" y="869.2242990654206"/>
      <point x="485.5570093457943" y="741.6915887850467"/>
      <point x="376.54766355140185" y="741.6915887850467" type="qcurve" smooth="yes"/>
      <point x="267.00560747663553" y="741.6915887850467"/>
      <point x="150.8" y="869.2242990654206"/>
      <point x="150.8" y="958.7102803738319" type="qcurve" smooth="yes"/>
      <point x="150.8" y="1047.6635514018692"/>
      <point x="267.00560747663553" y="1175.196261682243"/>
      <point x="376.54766355140185" y="1175.196261682243" type="qcurve" smooth="yes"/>
      <point x="485.5570093457943" y="1175.196261682243"/>
      <point x="602.2953271028038" y="1047.6635514018692"/>
    </contour>
    <contour>
      <point x="458.5476635514018" y="643.5794392523364" type="line"/>
      <point x="580.0897196261683" y="-318.78504672897196" type="line"/>
      <point x="173.00560747663553" y="-318.78504672897196" type="line"/>
      <point x="294.54766355140185" y="643.5794392523364" type="line"/>
    </contour>
  </outline>
</glyph>
<glyph name="sterling" format="2">
  <advance width="1447.7682242990654"/>
  <unicode hex="00A3"/>
  <outline>
    <contour>
      <point x="1448.9682242990657" y="0.0" type="line"/>
      <point x="30.8" y="0.0" type="line"/>
      <point x="30.8" y="160.0" type="line"/>
      <point x="86.80000000000001" y="160.0" type="line" smooth="yes"/>
      <point x="178.8" y="160.0"/>
      <point x="258.8" y="324.0"/>
      <point x="244.8" y="467.0" type="qcurve" smooth="yes"/>
      <point x="189.8" y="1039.0" type="line" smooth="yes"/>
      <point x="171.8" y="1228.0"/>
      <point x="481.3420560747664" y="1476.0"/>
      <point x="788.8841121495327" y="1476.0" type="qcurve" smooth="yes"/>
      <point x="1085.426168224299" y="1476.0"/>
      <point x="1404.9682242990655" y="1270.0"/>
      <point x="1404.9682242990655" y="1103.0" type="qcurve" smooth="yes"/>
      <point x="1404.9682242990655" y="1087.0" type="line"/>
      <point x="999.8841121495327" y="1087.0" type="line"/>
      <point x="999.8841121495327" y="1103.0" type="line" smooth="yes"/>
      <point x="999.8841121495327" y="1218.0"/>
      <point x="882.8841121495327" y="1309.0"/>
      <point x="790.8841121495327" y="1309.0" type="qcurve" smooth="yes"/>
      <point x="693.8841121495327" y="1309.0"/>
      <point x="576.8841121495327" y="1185.0"/>
      <point x="590.8841121495327" y="1039.0" type="qcurve" smooth="yes"/>
      <point x="632.8280373831776" y="599.6261682242991" type="line" smooth="yes"/>
      <point x="649.5570093457944" y="425.80373831775705"/>
      <point x="555.1364485981309" y="211.7943925233645"/>
      <point x="396.7065420560748" y="166.0" type="qcurve"/>
      <point x="1448.9682242990657" y="166.0" type="line"/>
    </contour>
    <contour>
      <point x="1244.9682242990655" y="625.0000000000001" type="line"/>
      <point x="46.8" y="625.0000000000001" type="line"/>
      <point x="46.8" y="780.0" type="line"/>
      <point x="1244.9682242990655" y="780.0" type="line"/>
    </contour>
  </outline>
</glyph>
<glyph name="copyright" format="2">
  <advance width="1642.8000000000002"/>
  <unicode hex="00A9"/>
  <guideline y="901.0000000000001" identifier="0Pjz0qKr8z"/>
  <guideline y="555.0" identifier="sJo8BlDiJ7"/>
  <outline>
    <contour>
      <point x="1008.4186915887851" y="546.0" type="qcurve"/>
      <point x="1254.343925233645" y="546.0" type="line"/>
      <point x="1254.343925233645" y="375.0"/>
      <point x="1002.2971962616823" y="205.0"/>
      <point x="807.4000000000001" y="205.0" type="qcurve" smooth="yes"/>
      <point x="614.558878504673" y="205.0"/>
      <point x="354.8018691588785" y="452.98130841121497"/>
      <point x="354.8018691588785" y="664.0" type="qcurve" smooth="yes"/>
      <point x="354.8018691588785" y="703.0" type="line" smooth="yes"/>
      <point x="354.8018691588785" y="915.018691588785"/>
      <point x="615.5588785046729" y="1170.0"/>
      <point x="824.4000000000001" y="1170.0" type="qcurve" smooth="yes"/>
      <point x="1038.5682242990654" y="1170.0"/>
      <point x="1255.3439252336448" y="983.0"/>
      <point x="1255.3439252336448" y="829.0000000000001" type="qcurve"/>
      <point x="1009.4186915887851" y="829.0000000000001" type="line"/>
      <point x="1009.4186915887851" y="917.0"/>
      <point x="922.4000000000001" y="1006.0"/>
      <point x="823.4000000000001" y="1006.0" type="qcurve" smooth="yes"/>
      <point x="716.4000000000001" y="1006.0"/>
      <point x="622.381308411215" y="868.0"/>
      <point x="622.381308411215" y="747.0" type="qcurve" smooth="yes"/>
      <point x="622.381308411215" y="621.0" type="line" smooth="yes"/>
      <point x="622.381308411215" y="499.0"/>
      <point x="725.4" y="362.0"/>
      <point x="832.4000000000001" y="362.0" type="qcurve" smooth="yes"/>
      <point x="931.4000000000001" y="362.0"/>
      <point x="1008.4186915887851" y="457.00000000000006"/>
    </contour>
    <contour>
      <point x="180.40000000000003" y="687.0" type="qcurve" smooth="yes"/>
      <point x="180.40000000000003" y="400.0"/>
      <point x="557.4" y="4.0"/>
      <point x="822.4" y="4.0" type="qcurve" smooth="yes"/>
      <point x="1086.4" y="4.0"/>
      <point x="1463.4" y="400.0"/>
      <point x="1463.4" y="687.0" type="qcurve" smooth="yes"/>
      <point x="1463.4" y="975.0"/>
      <point x="1086.4" y="1367.0"/>
      <point x="822.4" y="1367.0" type="qcurve" smooth="yes"/>
      <point x="557.4" y="1367.0"/>
      <point x="180.40000000000003" y="975.0"/>
    </contour>
    <contour>
      <point x="32.400000000000006" y="687.0" type="qcurve" smooth="yes"/>
      <point x="32.400000000000006" y="1039.0"/>
      <point x="495.4000000000001" y="1519.0"/>
      <point x="821.4000000000001" y="1519.0" type="qcurve" smooth="yes"/>
      <point x="1146.4" y="1519.0"/>
      <point x="1610.4" y="1039.0"/>
      <point x="1610.4" y="687.0" type="qcurve" smooth="yes"/>
      <point x="1610.4" y="337.0"/>
      <point x="1146.4" y="-147.0"/>
      <point x="821.4000000000001" y="-147.0" type="qcurve" smooth="yes"/>
      <point x="495.4000000000001" y="-147.0"/>
      <point x="32.400000000000006" y="337.0"/>
    </contour>
  </outline>
</glyph>
<glyph name="logicalnot" format="2">
  <advance width="1103.7420560747664"/>
  <unicode hex="00AC"/>
  <outline>
    <contour>
      <point x="1024.9420560747665" y="801.0" type="line"/>
      <point x="1024.9420560747665" y="269.4579439252337" type="line"/>
      <point x="633.8579439252337" y="269.4579439252337" type="line"/>
      <point x="633.8579439252337" y="637.0" type="line"/>
      <point x="48.400000000000006" y="637.0" type="line"/>
      <point x="48.400000000000006" y="801.0" type="line"/>
    </contour>
  </outline>
</glyph>
<glyph name="twosuperior" format="2">
  <advance width="1041.3644859813082"/>
  <unicode hex="00B2"/>
  <outline>
    <contour>
      <point x="62.011214953271036" y="697.0" type="line"/>
      <point x="62.011214953271036" y="805.0" type="line"/>
      <point x="397.9551401869159" y="1066.9345794392525" type="line" smooth="yes"/>
      <point x="469.21682242990653" y="1123.607476635514"/>
      <point x="577.7308411214954" y="1233.0467289719627"/>
      <point x="577.7308411214954" y="1266.0467289719627" type="qcurve" smooth="yes"/>
      <point x="577.7308411214954" y="1308.1869158878505"/>
      <point x="531.0579439252338" y="1347.0"/>
      <point x="472.0579439252337" y="1347.0" type="qcurve" smooth="yes"/>
      <point x="407.05794392523364" y="1347.0"/>
      <point x="336.403738317757" y="1277.6728971962616"/>
      <point x="336.403738317757" y="1202.6728971962616" type="qcurve" smooth="yes"/>
      <point x="336.403738317757" y="1195.3364485981308" type="line"/>
      <point x="64.66542056074766" y="1195.3364485981308" type="line"/>
      <point x="64.66542056074766" y="1202.6728971962616" type="line" smooth="yes"/>
      <point x="64.66542056074766" y="1333.6728971962616"/>
      <point x="298.49719626168223" y="1487.0"/>
      <point x="548.6373831775701" y="1487.0" type="qcurve" smooth="yes"/>
      <point x="772.6654205607476" y="1487.0"/>
      <point x="964.618691588785" y="1359.0"/>
      <point x="964.618691588785" y="1251.0" type="qcurve" smooth="yes"/>
      <point x="964.618691588785" y="1171.0"/>
      <point x="802.0299065420561" y="1036.2803738317757"/>
      <point x="706.0392523364487" y="971.0" type="qcurve" smooth="yes"/>
      <point x="513.0953271028037" y="845.0" type="line"/>
      <point x="984.9644859813084" y="845.0" type="line"/>
      <point x="984.9644859813084" y="697.0" type="line"/>
    </contour>
  </outline>
</glyph>
<glyph name="periodcentered" format="2">
  <advance width="713.1233644859814"/>
  <unicode hex="00B7"/>
  <outline>
    <contour>
      <point x="142.8" y="749.0" type="qcurve" smooth="yes"/>
      <point x="142.8" y="833.6915887850469"/>
      <point x="253.14579439252338" y="954.2990654205607"/>
      <point x="356.29532710280375" y="954.2990654205607" type="qcurve" smooth="yes"/>
      <point x="459.977570093458" y="954.2990654205607"/>
      <point x="570.3233644859813" y="833.6915887850469"/>
      <point x="570.3233644859813" y="749.0" type="qcurve" smooth="yes"/>
      <point x="570.3233644859813" y="664.3084112149534"/>
      <point x="459.977570093458" y="543.7009345794393"/>
      <point x="356.29532710280375" y="543.7009345794393" type="qcurve" smooth="yes"/>
      <point x="253.14579439252338" y="543.7009345794393"/>
      <point x="142.8" y="664.3084112149534"/>
    </contour>
  </outline>
</glyph>
<glyph name="onesuperior" format="2">
  <advance width="893.4841121495328"/>
  <unicode hex="00B9"/>
  <outline>
    <contour>
      <point x="100.4" y="1211.0" type="line"/>
      <point x="100.4" y="1370.0" type="line"/>
      <point x="434.40000000000003" y="1486.0" type="line"/>
      <point x="691.4841121495327" y="1486.0" type="line"/>
      <point x="691.4841121495327" y="697.0" type="line"/>
      <point x="316.40000000000003" y="697.0" type="line"/>
      <point x="316.40000000000003" y="1288.0" type="line"/>
    </contour>
  </outline>
</glyph>
<glyph name="multiply" format="2">
  <advance width="993.0"/>
  <unicode hex="00D7"/>
  <outline>
    <contour>
      <point x="126.59626168224301" y="184.26168224299067" type="line"/>
      <point x="18.596261682242996" y="296.2616822429907" type="line"/>
      <point x="859.9420560747665" y="1157.803738317757" type="line"/>
      <point x="967.9420560747662" y="1044.803738317757" type="line"/>
    </contour>
    <contour>
      <point x="745.9327102803738" y="183.7289719626168" type="line"/>
      <point x="18.93271028037384" y="926.7289719626168" type="line"/>
      <point x="244.4747663551402" y="1157.2710280373833" type="line"/>
      <point x="971.4747663551403" y="413.2710280373832" type="line"/>
    </contour>
  </outline>
</glyph>
<glyph name="Thorn" format="2">
  <advance width="1589.7289719626172"/>
  <unicode hex="00DE"/>
  <guideline y="901.0000000000001" identifier="i9jYwjBDP4"/>
  <guideline y="555.0" identifier="T8KKW8oxop"/>
  <outline>
    <contour>
      <point x="138.0" y="0.0" type="line"/>
      <point x="138.0" y="1456.0" type="line"/>
      <point x="549.4018691588785" y="1456.0" type="line"/>
      <point x="549.4018691588785" y="0.0" type="line"/>
    </contour>
    <contour>
      <point x="349.5420560747664" y="314.0" type="line"/>
      <point x="349.5420560747664" y="465.0" type="line"/>
      <point x="827.4018691588785" y="465.0" type="line" smooth="yes"/>
      <point x="987.4018691588785" y="465.0"/>
      <point x="1129.4018691588785" y="604.0"/>
      <point x="1129.4018691588785" y="736.0" type="qcurve" smooth="yes"/>
      <point x="1129.4018691588785" y="868.0"/>
      <point x="987.4018691588785" y="1012.0"/>
      <point x="827.4018691588785" y="1012.0" type="qcurve" smooth="yes"/>
      <point x="349.5420560747664" y="1012.0" type="line"/>
      <point x="349.5420560747664" y="1163.0" type="line"/>
      <point x="910.5046728971963" y="1163.0" type="line" smooth="yes"/>
      <point x="1212.626168224299" y="1163.0"/>
      <point x="1547.728971962617" y="935.0"/>
      <point x="1547.728971962617" y="738.0" type="qcurve" smooth="yes"/>
      <point x="1547.728971962617" y="541.0"/>
      <point x="1212.626168224299" y="314.0"/>
      <point x="910.5046728971963" y="314.0" type="qcurve" smooth="yes"/>
    </contour>
  </outline>
</glyph>
<glyph name="germandbls" format="2">
  <advance width="1576.9682242990655"/>
  <unicode hex="00DF"/>
  <outline>
    <contour>
      <point x="517.4841121495327" y="1092.0" type="qcurve" name="hr00"/>
      <point x="517.4841121495327" y="0.0" type="line"/>
      <point x="120.40000000000002" y="0.0" type="line"/>
      <point x="120.40000000000002" y="1043.5233644859813" type="line" smooth="yes"/>
      <point x="120.40000000000002" y="1295.0"/>
      <point x="434.94205607476636" y="1534.0"/>
      <point x="714.381308411215" y="1534.0" type="qcurve" smooth="yes"/>
      <point x="1000.3719626168224" y="1534.0"/>
      <point x="1315.5682242990654" y="1361.0"/>
      <point x="1315.5682242990654" y="1213.9345794392525" type="qcurve" smooth="yes"/>
      <point x="1315.5682242990654" y="1099.2990654205607"/>
      <point x="1154.2317757009346" y="981.9065420560748"/>
      <point x="1021.3439252336448" y="931.4485981308412" type="qcurve" smooth="yes"/>
      <point x="981.8859813084114" y="907.2990654205607"/>
      <point x="924.4841121495328" y="859.0"/>
      <point x="924.4841121495328" y="830.0" type="qcurve" smooth="yes"/>
      <point x="924.4841121495328" y="792.6542056074767"/>
      <point x="1068.1383177570092" y="723.0841121495328"/>
      <point x="1175.773831775701" y="677.0654205607477" type="qcurve" smooth="yes"/>
      <point x="1350.7271028037383" y="615.4018691588785"/>
      <point x="1536.5682242990654" y="447.7570093457944"/>
      <point x="1536.5682242990654" y="303.30841121495325" type="qcurve" smooth="yes"/>
      <point x="1536.5682242990654" y="160.72897196261684"/>
      <point x="1285.007476635514" y="-20.0"/>
      <point x="1048.755140186916" y="-20.0" type="qcurve" smooth="yes"/>
      <point x="796.3252336448598" y="-20.0"/>
      <point x="577.4841121495327" y="129.0"/>
      <point x="577.4841121495327" y="278.0" type="qcurve" smooth="yes"/>
      <point x="577.4841121495327" y="304.0" type="line"/>
      <point x="740.4841121495326" y="304.0" type="line"/>
      <point x="740.4841121495326" y="295.0" type="line" smooth="yes"/>
      <point x="740.4841121495326" y="211.0"/>
      <point x="845.4841121495327" y="131.0"/>
      <point x="940.4841121495326" y="131.0" type="qcurve" smooth="yes"/>
      <point x="1041.4841121495328" y="131.0"/>
      <point x="1148.4841121495328" y="218.00000000000003"/>
      <point x="1148.4841121495328" y="302.0" type="qcurve" smooth="yes"/>
      <point x="1148.4841121495328" y="371.0"/>
      <point x="1049.4841121495328" y="466.0"/>
      <point x="992.4841121495327" y="512.0" type="qcurve" smooth="yes"/>
      <point x="920.4841121495326" y="569.0"/>
      <point x="748.4841121495327" y="706.0"/>
      <point x="748.4841121495327" y="797.0000000000001" type="qcurve" smooth="yes"/>
      <point x="748.4841121495327" y="871.0"/>
      <point x="831.4841121495327" y="981.9999999999999"/>
      <point x="863.4841121495327" y="1026.0" type="qcurve" smooth="yes"/>
      <point x="892.4841121495327" y="1066.0000000000002"/>
      <point x="927.4841121495327" y="1149.0000000000002"/>
      <point x="927.4841121495327" y="1204.0" type="qcurve" smooth="yes"/>
      <point x="927.4841121495327" y="1293.0"/>
      <point x="818.4841121495328" y="1383.0"/>
      <point x="736.4841121495326" y="1383.0" type="qcurve" smooth="yes"/>
      <point x="633.4841121495327" y="1383.0"/>
      <point x="517.4841121495327" y="1241.0"/>
    </contour>
  </outline>
</glyph>
<glyph name="ae" format="2">
  <advance width="2350.355140186916"/>
  <unicode hex="00E6"/>
  <anchor x="1469.9813084112152" y="1052.0" name="top"/>
  <outline>
    <contour>
      <point x="537.3457943925234" y="-20.0" type="qcurve" smooth="yes"/>
      <point x="322.88785046728975" y="-20.0"/>
      <point x="74.0" y="150.0"/>
      <point x="74.0" y="305.32710280373834" type="qcurve" smooth="yes"/>
      <point x="74.0" y="470.0"/>
      <point x="374.3457943925234" y="648.0"/>
      <point x="652.9158878504672" y="648.0" type="qcurve" smooth="yes"/>
      <point x="1136.467289719626" y="648.0" type="line"/>
      <point x="1136.467289719626" y="516.0" type="line"/>
      <point x="743.2336448598131" y="516.0" type="line" smooth="yes"/>
      <point x="603.2336448598131" y="516.0"/>
      <point x="459.23364485981307" y="410.0"/>
      <point x="459.23364485981307" y="320.0" type="qcurve" smooth="yes"/>
      <point x="459.23364485981307" y="230.0"/>
      <point x="563.2336448598131" y="128.0"/>
      <point x="673.233644859813" y="128.0" type="qcurve" smooth="yes"/>
      <point x="783.2336448598131" y="128.0"/>
      <point x="961.233644859813" y="280.0"/>
      <point x="961.233644859813" y="365.0" type="qcurve"/>
      <point x="961.233644859813" y="697.0934579439253" type="line" smooth="yes"/>
      <point x="961.233644859813" y="820.3271028037384"/>
      <point x="863.233644859813" y="934.0"/>
      <point x="740.570093457944" y="934.0" type="qcurve" smooth="yes"/>
      <point x="623.233644859813" y="934.0"/>
      <point x="506.91588785046736" y="835.0"/>
      <point x="509.0467289719626" y="770.0" type="qcurve" smooth="yes"/>
      <point x="509.0467289719626" y="759.6728971962617" type="line"/>
      <point x="136.0" y="759.6728971962617" type="line"/>
      <point x="136.0" y="770.0" type="line" smooth="yes"/>
      <point x="136.0" y="895.0"/>
      <point x="435.177570093458" y="1082.0"/>
      <point x="715.7383177570093" y="1082.0" type="qcurve" smooth="yes"/>
      <point x="941.5327102803737" y="1082.0"/>
      <point x="1148.6915887850469" y="985.2242990654206"/>
      <point x="1188.5233644859813" y="925.803738317757" type="qcurve"/>
      <point x="1228.766355140187" y="984.626168224299"/>
      <point x="1442.5794392523364" y="1082.0"/>
      <point x="1629.5981308411215" y="1082.0" type="qcurve" smooth="yes"/>
      <point x="1944.2149532710282" y="1082.0"/>
      <point x="2284.355140186916" y="800.0"/>
      <point x="2284.355140186916" y="560.0" type="qcurve" smooth="yes"/>
      <point x="2284.355140186916" y="484.0" type="line"/>
      <point x="1174.373831775701" y="484.0" type="line"/>
      <point x="1174.373831775701" y="632.0000000000001" type="line"/>
      <point x="1883.803738317757" y="632.0000000000001" type="line"/>
      <point x="1884.271028037383" y="656.0" type="line"/>
      <point x="1883.803738317757" y="770.0"/>
      <point x="1754.271028037383" y="930.0"/>
      <point x="1627.1308411214955" y="930.0" type="qcurve" smooth="yes"/>
      <point x="1484.2710280373833" y="930.0"/>
      <point x="1338.271028037383" y="705.0"/>
      <point x="1338.271028037383" y="542.0" type="qcurve" smooth="yes"/>
      <point x="1338.271028037383" y="510.0" type="line" smooth="yes"/>
      <point x="1338.271028037383" y="347.0"/>
      <point x="1548.7383177570093" y="122.00000000000001"/>
      <point x="1746.429906542056" y="122.00000000000001" type="qcurve" smooth="yes"/>
      <point x="1905.5607476635514" y="122.00000000000001"/>
      <point x="2101.7663551401865" y="210.0"/>
      <point x="2163.2803738317753" y="270.0" type="qcurve"/>
      <point x="2272.093457943925" y="175.0" type="line"/>
      <point x="2199.7196261682243" y="100.0"/>
      <point x="1893.233644859813" y="-30.0"/>
      <point x="1727.7850467289718" y="-30.0" type="qcurve" smooth="yes"/>
      <point x="1503.4766355140187" y="-30.0"/>
      <point x="1212.3457943925234" y="75.08411214953273"/>
      <point x="1119.9906542056074" y="195.42056074766356" type="qcurve"/>
      <point x="1007.6074766355141" y="73.96261682242991"/>
      <point x="730.3644859813085" y="-20.0"/>
    </contour>
  </outline>
</glyph>
<glyph name="eth" format="2">
  <advance width="1510.1682242990655"/>
  <unicode hex="00F0"/>
  <outline>
    <contour>
      <point x="412.08411214953276" y="1421.0" type="qcurve"/>
      <point x="469.0841121495327" y="1581.0" type="line"/>
      <point x="868.4112149532712" y="1478.2990654205607"/>
      <point x="1440.1682242990655" y="981.3644859813086"/>
      <point x="1440.1682242990655" y="614.8878504672898" type="qcurve"/>
      <point x="1440.1682242990655" y="562.7009345794393" type="line"/>
      <point x="1440.1682242990655" y="278.3457943925234"/>
      <point x="1026.607476635514" y="-20.0"/>
      <point x="704.214953271028" y="-20.0" type="qcurve" smooth="yes"/>
      <point x="393.53271028037386" y="-20.0"/>
      <point x="70.0" y="265.0"/>
      <point x="70.0" y="468.00000000000006" type="qcurve" smooth="yes"/>
      <point x="70.0" y="698.0"/>
      <point x="431.5420560747664" y="978.0000000000002"/>
      <point x="676.2149532710281" y="978.0000000000002" type="qcurve" smooth="yes"/>
      <point x="900.0841121495328" y="978.0000000000002"/>
      <point x="1151.3271028037384" y="755.3925233644861"/>
      <point x="1166.7757009345796" y="614.0" type="qcurve"/>
      <point x="1062.0841121495328" y="614.0" type="line"/>
      <point x="1050.8971962616824" y="687.9906542056076"/>
      <point x="918.0841121495328" y="826.0"/>
      <point x="775.0841121495328" y="826.0" type="qcurve" smooth="yes"/>
      <point x="629.0841121495326" y="826.0"/>
      <point x="469.0841121495327" y="632.0000000000001"/>
      <point x="469.0841121495327" y="468.00000000000006" type="qcurve" smooth="yes"/>
      <point x="469.0841121495327" y="345.0"/>
      <point x="622.0841121495328" y="132.0"/>
      <point x="763.0841121495328" y="132.0" type="qcurve" smooth="yes"/>
      <point x="891.0841121495328" y="132.0"/>
      <point x="1041.0841121495328" y="363.0"/>
      <point x="1041.0841121495328" y="535.0" type="qcurve" smooth="yes"/>
      <point x="1041.0841121495328" y="635.0" type="line" smooth="yes"/>
      <point x="1041.0841121495328" y="984.0"/>
      <point x="666.0841121495328" y="1355.0"/>
    </contour>
    <contour>
      <point x="1135.0841121495328" y="1427.0" type="line"/>
      <point x="598.0841121495328" y="1061.0" type="line"/>
      <point x="515.0841121495328" y="1181.0" type="line"/>
      <point x="1052.0841121495328" y="1546.0" type="line"/>
    </contour>
  </outline>
</glyph>
<glyph name="divide" format="2">
  <advance width="1005.2"/>
  <unicode hex="00F7"/>
  <outline>
    <contour>
      <point x="298.82429906542063" y="1142.2429906542056" type="qcurve" smooth="yes"/>
      <point x="298.82429906542063" y="1228.803738317757"/>
      <point x="400.17943925233646" y="1341.9532710280373"/>
      <point x="501.06728971962616" y="1341.9532710280373" type="qcurve" smooth="yes"/>
      <point x="599.8897196261682" y="1341.9532710280373"/>
      <point x="704.8429906542057" y="1228.803738317757"/>
      <point x="704.8429906542057" y="1142.2429906542056" type="qcurve" smooth="yes"/>
      <point x="704.8429906542057" y="1059.8130841121495"/>
      <point x="599.8897196261682" y="948.196261682243"/>
      <point x="501.06728971962616" y="948.196261682243" type="qcurve" smooth="yes"/>
      <point x="400.17943925233646" y="948.196261682243"/>
      <point x="298.82429906542063" y="1059.8130841121495"/>
    </contour>
    <contour>
      <point x="299.35700934579444" y="204.36448598130843" type="qcurve" smooth="yes"/>
      <point x="299.35700934579444" y="288.32710280373834"/>
      <point x="400.7121495327103" y="403.5420560747664"/>
      <point x="501.6" y="403.5420560747664" type="qcurve" smooth="yes"/>
      <point x="600.4224299065421" y="403.5420560747664"/>
      <point x="705.3757009345795" y="288.32710280373834"/>
      <point x="705.3757009345795" y="204.36448598130843" type="qcurve" smooth="yes"/>
      <point x="705.3757009345795" y="121.40186915887851"/>
      <point x="600.4224299065421" y="8.252336448598172"/>
      <point x="501.6" y="8.252336448598172" type="qcurve" smooth="yes"/>
      <point x="400.7121495327103" y="8.252336448598172"/>
      <point x="299.35700934579444" y="121.40186915887851"/>
    </contour>
    <contour>
      <point x="47.6" y="588.0" type="line"/>
      <point x="47.6" y="760.0" type="line"/>
      <point x="957.5999999999999" y="760.0" type="line"/>
      <point x="957.5999999999999" y="588.0" type="line"/>
    </contour>
  </outline>
</glyph>
<glyph name="thorn" format="2">
  <advance width="1560.4934579439253"/>
  <unicode hex="00FE"/>
  <outline>
    <contour>
      <point x="519.4841121495326" y="-416.0" type="line"/>
      <point x="120.40000000000002" y="-416.0" type="line"/>
      <point x="120.40000000000002" y="1536.0" type="line"/>
      <point x="519.4841121495326" y="1536.0" type="line"/>
      <point x="519.4841121495326" y="928.0" type="line"/>
    </contour>
    <contour>
      <point x="790.4841121495327" y="132.0" type="qcurve" smooth="yes"/>
      <point x="940.4841121495326" y="132.0"/>
      <point x="1080.4841121495326" y="350.0"/>
      <point x="1080.4841121495326" y="510.0" type="qcurve" smooth="yes"/>
      <point x="1080.4841121495326" y="542.0" type="line" smooth="yes"/>
      <point x="1080.4841121495326" y="702.0"/>
      <point x="940.4841121495326" y="920.0"/>
      <point x="790.4841121495327" y="920.0" type="qcurve" smooth="yes"/>
      <point x="649.4841121495327" y="920.0"/>
      <point x="476.48411214953273" y="698.0"/>
      <point x="476.48411214953273" y="549.0" type="qcurve" smooth="yes"/>
      <point x="476.48411214953273" y="521.0" type="line" smooth="yes"/>
      <point x="476.48411214953273" y="348.0"/>
      <point x="654.4841121495327" y="132.0"/>
    </contour>
    <contour>
      <point x="919.4467289719627" y="-20.0" type="qcurve" smooth="yes"/>
      <point x="668.9140186915888" y="-20.0"/>
      <point x="373.2598130841121" y="265.0"/>
      <point x="373.2598130841121" y="520.0" type="qcurve" smooth="yes"/>
      <point x="373.2598130841121" y="554.0" type="line" smooth="yes"/>
      <point x="373.2598130841121" y="765.0"/>
      <point x="654.7177570093459" y="1072.0"/>
      <point x="919.4467289719627" y="1072.0" type="qcurve" smooth="yes"/>
      <point x="1179.1102803738318" y="1072.0"/>
      <point x="1490.4934579439255" y="772.0000000000001"/>
      <point x="1490.4934579439255" y="542.0" type="qcurve" smooth="yes"/>
      <point x="1490.4934579439255" y="510.0" type="line" smooth="yes"/>
      <point x="1490.4934579439255" y="280.0"/>
      <point x="1179.1102803738318" y="-20.0"/>
    </contour>
  </outline>
</glyph>
<glyph name="kgreenlandic" format="2">
  <advance width="1474.3682242990653"/>
  <unicode hex="0138"/>
  <outline>
    <contour>
      <point x="524.0841121495326" y="1052.0" type="line"/>
      <point x="524.0841121495326" y="0.0" type="line"/>
      <point x="126.0" y="0.0" type="line"/>
      <point x="126.0" y="1052.0" type="line"/>
    </contour>
    <contour>
      <point x="1317.626168224299" y="1052.0" type="line"/>
      <point x="807.6261682242991" y="462.0" type="line"/>
      <point x="327.5420560747664" y="462.0" type="line"/>
      <point x="327.5420560747664" y="624.0" type="line"/>
      <point x="722.6261682242991" y="624.0" type="line"/>
      <point x="1093.626168224299" y="1052.0" type="line"/>
    </contour>
    <contour>
      <point x="1038.0841121495328" y="0.0" type="line"/>
      <point x="615.0747663551402" y="484.1401869158879" type="line"/>
      <point x="890.6915887850466" y="682.0654205607477" type="line"/>
      <point x="1485.1682242990655" y="0.0" type="line"/>
    </contour>
  </outline>
</glyph>
<glyph name="OE" format="2">
  <advance width="2300.2691588785046"/>
  <unicode hex="0152"/>
  <outline>
    <contour>
      <point x="802.8224299065421" y="-21.0" type="qcurve" smooth="yes"/>
      <point x="530.7570093457945" y="-21.0"/>
      <point x="94.0" y="347.4579439252337"/>
      <point x="94.0" y="696.3831775700935" type="qcurve" smooth="yes"/>
      <point x="94.0" y="750.6915887850469" type="line" smooth="yes"/>
      <point x="94.0" y="1093.8130841121497"/>
      <point x="526.6915887850466" y="1477.0"/>
      <point x="855.0093457943925" y="1477.0" type="qcurve" smooth="yes"/>
      <point x="897.0654205607477" y="1477.0"/>
      <point x="1089.6168224299067" y="1464.0000000000002"/>
      <point x="1174.728971962617" y="1456.0" type="qcurve"/>
      <point x="2233.8691588785045" y="1456.0" type="line"/>
      <point x="2233.8691588785045" y="1298.0" type="line"/>
      <point x="1511.8691588785045" y="1298.0" type="line"/>
      <point x="1511.8691588785045" y="157.0" type="line"/>
      <point x="2243.8691588785045" y="157.0" type="line"/>
      <point x="2243.8691588785045" y="0.0" type="line"/>
      <point x="1174.728971962617" y="0.0" type="line"/>
      <point x="1089.6168224299067" y="-7.000000000000001"/>
      <point x="899.5981308411215" y="-21.0"/>
    </contour>
    <contour>
      <point x="925.7289719626167" y="128.0" type="qcurve" smooth="yes"/>
      <point x="978.7289719626168" y="128.0"/>
      <point x="1058.728971962617" y="137.0"/>
      <point x="1096.728971962617" y="143.0" type="qcurve"/>
      <point x="1096.728971962617" y="1310.0" type="line"/>
      <point x="1044.728971962617" y="1317.0"/>
      <point x="949.7289719626167" y="1325.0"/>
      <point x="927.7289719626168" y="1325.0" type="qcurve" smooth="yes"/>
      <point x="750.7289719626167" y="1325.0"/>
      <point x="520.7289719626168" y="1030.0"/>
      <point x="520.7289719626168" y="774.0" type="qcurve" smooth="yes"/>
      <point x="520.7289719626168" y="682.0000000000001" type="line" smooth="yes"/>
      <point x="520.7289719626168" y="418.00000000000006"/>
      <point x="753.7289719626167" y="128.0"/>
    </contour>
    <contour>
      <point x="1307.3364485981308" y="673.0" type="line"/>
      <point x="1307.3364485981308" y="830.0" type="line"/>
      <point x="2141.869158878505" y="830.0" type="line"/>
      <point x="2141.869158878505" y="673.0" type="line"/>
    </contour>
  </outline>
</glyph>
<glyph name="oe" format="2">
  <advance width="2469.9532710280373"/>
  <unicode hex="0153"/>
  <outline>
    <contour>
      <point x="773.5887850467288" y="-30.0" type="qcurve" smooth="yes"/>
      <point x="460.392523364486" y="-30.0"/>
      <point x="70.0" y="274.13084112149534"/>
      <point x="70.0" y="513.7289719626168" type="qcurve" smooth="yes"/>
      <point x="70.0" y="536.6728971962617" type="line" smooth="yes"/>
      <point x="70.0" y="777.3364485981308"/>
      <point x="459.9252336448599" y="1081.532710280374"/>
      <point x="781.9999999999999" y="1081.532710280374" type="qcurve" smooth="yes"/>
      <point x="982.9158878504672" y="1081.532710280374"/>
      <point x="1224.8691588785045" y="960.4205607476637"/>
      <point x="1274.1682242990655" y="915.0093457943926" type="qcurve"/>
      <point x="1323.467289719626" y="962.2242990654206"/>
      <point x="1550.1869158878505" y="1082.0"/>
      <point x="1762.2803738317757" y="1082.0" type="qcurve" smooth="yes"/>
      <point x="2063.8130841121497" y="1082.0"/>
      <point x="2403.9532710280373" y="800.0"/>
      <point x="2403.9532710280373" y="560.0" type="qcurve" smooth="yes"/>
      <point x="2403.9532710280373" y="484.0" type="line"/>
      <point x="1285.9813084112147" y="484.0" type="line"/>
      <point x="1285.9813084112147" y="632.0000000000001" type="line"/>
      <point x="2003.4018691588785" y="632.0000000000001" type="line"/>
      <point x="2003.8691588785048" y="656.0" type="line"/>
      <point x="2003.4018691588785" y="770.0"/>
      <point x="1873.8691588785048" y="930.0"/>
      <point x="1751.8691588785048" y="930.0" type="qcurve" smooth="yes"/>
      <point x="1603.8691588785045" y="930.0"/>
      <point x="1457.8691588785048" y="705.4672897196261"/>
      <point x="1457.8691588785048" y="542.0" type="qcurve" smooth="yes"/>
      <point x="1457.8691588785048" y="510.0" type="line" smooth="yes"/>
      <point x="1457.8691588785048" y="346.53271028037386"/>
      <point x="1663.6635514018692" y="122.00000000000001"/>
      <point x="1861.3551401869158" y="122.00000000000001" type="qcurve" smooth="yes"/>
      <point x="2020.4859813084113" y="122.00000000000001"/>
      <point x="2221.3644859813085" y="210.0"/>
      <point x="2282.878504672897" y="270.0" type="qcurve"/>
      <point x="2391.691588785047" y="175.0" type="line"/>
      <point x="2319.3177570093458" y="100.0"/>
      <point x="2012.8317757009347" y="-30.0"/>
      <point x="1802.8598130841124" y="-30.0" type="qcurve" smooth="yes"/>
      <point x="1587.2149532710282" y="-30.0"/>
      <point x="1356.2429906542054" y="78.57009345794393"/>
      <point x="1276.1682242990655" y="143.98130841121497" type="qcurve"/>
      <point x="1190.766355140187" y="73.17757009345794"/>
      <point x="962.7289719626168" y="-30.0"/>
    </contour>
    <contour>
      <point x="787.0747663551402" y="122.00000000000001" type="qcurve" smooth="yes"/>
      <point x="939.0747663551401" y="122.00000000000001"/>
      <point x="1093.0747663551401" y="346.53271028037386"/>
      <point x="1093.0747663551401" y="510.0" type="qcurve" smooth="yes"/>
      <point x="1093.0747663551401" y="542.0" type="line" smooth="yes"/>
      <point x="1093.0747663551401" y="705.4672897196261"/>
      <point x="939.0747663551401" y="930.0"/>
      <point x="787.0747663551402" y="930.0" type="qcurve" smooth="yes"/>
      <point x="635.0747663551402" y="930.0"/>
      <point x="481.0747663551402" y="705.0"/>
      <point x="481.0747663551402" y="542.0" type="qcurve" smooth="yes"/>
      <point x="481.0747663551402" y="510.0" type="line" smooth="yes"/>
      <point x="481.0747663551402" y="347.0"/>
      <point x="635.0747663551402" y="122.00000000000001"/>
    </contour>
  </outline>
</glyph>
<glyph name="florin" format="2">
  <advance width="1184.0841121495325"/>
  <unicode hex="0192"/>
  <outline>
    <contour>
      <point x="1057.2841121495328" y="882.0000000000001" type="line"/>
      <point x="1057.2841121495328" y="740.0" type="line"/>
      <point x="105.20000000000002" y="740.0" type="line"/>
      <point x="105.20000000000002" y="882.0000000000001" type="line"/>
    </contour>
    <contour>
      <point x="744.2841121495327" y="111.0" type="line" smooth="yes"/>
      <point x="744.2841121495327" y="-173.0"/>
      <point x="485.0130841121496" y="-437.0"/>
      <point x="185.20934579439253" y="-437.0" type="qcurve" smooth="yes"/>
      <point x="90.81682242990655" y="-437.0"/>
      <point x="-3.734579439252336" y="-428.93457943925233"/>
      <point x="-32.800000000000004" y="-420.0" type="qcurve"/>
      <point x="-18.8" y="-271.0" type="line"/>
      <point x="-3.8000000000000007" y="-277.0"/>
      <point x="65.2" y="-284.00000000000006"/>
      <point x="79.20000000000002" y="-284.00000000000006" type="qcurve" smooth="yes"/>
      <point x="200.20000000000002" y="-284.00000000000006"/>
      <point x="346.20000000000005" y="-122.00000000000001"/>
      <point x="346.20000000000005" y="111.0" type="qcurve" smooth="yes"/>
      <point x="346.20000000000005" y="1126.0" type="line" smooth="yes"/>
      <point x="346.20000000000005" y="1301.0000000000002"/>
      <point x="559.16261682243" y="1487.0"/>
      <point x="796.0691588785046" y="1487.0" type="qcurve" smooth="yes"/>
      <point x="930.0130841121495" y="1487.0"/>
      <point x="1104.2934579439252" y="1439.8598130841124"/>
      <point x="1152.2841121495328" y="1404.0" type="qcurve"/>
      <point x="1071.2841121495328" y="1259.0" type="line"/>
      <point x="1032.2841121495326" y="1290.0000000000002"/>
      <point x="948.2841121495326" y="1320.0"/>
      <point x="901.2841121495328" y="1320.0" type="qcurve" smooth="yes"/>
      <point x="831.2841121495327" y="1320.0"/>
      <point x="744.2841121495327" y="1224.0"/>
      <point x="744.2841121495327" y="1126.0" type="qcurve" smooth="yes"/>
    </contour>
  </outline>
</glyph>
<glyph name="apostrophemod" format="2">
  <advance width="648.2130841121495"/>
  <unicode hex="02BC"/>
  <outline>
    <contour>
      <point x="159.02803738317758" y="918.1682242990654" type="line"/>
      <point x="199.02803738317758" y="948.1682242990655"/>
      <point x="314.21495327102804" y="1088.0093457943926"/>
      <point x="335.07476635514024" y="1178.981308411215" type="qcurve"/>
      <point x="238.50467289719626" y="1178.981308411215"/>
      <point x="129.73831775700936" y="1281.1495327102803"/>
      <point x="129.73831775700936" y="1361.4579439252338" type="qcurve" smooth="yes"/>
      <point x="129.73831775700936" y="1440.2336448598132"/>
      <point x="239.5046728971963" y="1544.9345794392525"/>
      <point x="325.41121495327104" y="1544.9345794392525" type="qcurve" smooth="yes"/>
      <point x="405.7196261682243" y="1544.9345794392525"/>
      <point x="535.8130841121495" y="1414.3084112149536"/>
      <point x="535.8130841121495" y="1309.607476635514" type="qcurve" smooth="yes"/>
      <point x="535.8130841121495" y="1143.9252336448599"/>
      <point x="307.02803738317755" y="919.1682242990655"/>
      <point x="202.02803738317758" y="869.1682242990655" type="qcurve"/>
    </contour>
  </outline>
</glyph>
<glyph name="gravecomb" format="2">
  <unicode hex="0300"/>
  <anchor x="0.0" y="1052.0" name="_top"/>
  <anchor x="0.0" y="1642.1495327102805" name="top"/>
  <outline>
    <contour>
      <point x="-7.430654944455797" y="1195.337905275823" type="line"/>
      <point x="-236.58029274954126" y="1535.1170998164985" type="line"/>
      <point x="-38.62100456621006" y="1643.015661673708" type="line"/>
      <point x="159.44902487944353" y="1282.4962175424248" type="line"/>
    </contour>
  </outline>
</glyph>
<glyph name="macroncomb" format="2">
  <unicode hex="0304"/>
  <anchor x="0.0" y="1052.0" name="_top"/>
  <anchor x="0.0" y="1382.0" name="top"/>
  <outline>
    <contour>
      <point x="314.0" y="1438.6965174129355" type="line"/>
      <point x="314.0" y="1230.0" type="line"/>
      <point x="-314.0" y="1230.0" type="line"/>
      <point x="-314.0" y="1438.6965174129355" type="line"/>
    </contour>
  </outline>
</glyph>
<glyph name="dotaccentcomb" format="2">
  <unicode hex="0307"/>
  <anchor x="0.0" y="1052.0" name="_top"/>
  <anchor x="0.0" y="1511.803738317757" name="top"/>
  <outline>
    <contour>
      <point x="-153.70093457943926" y="1363.6355140186915" type="qcurve" smooth="yes"/>
      <point x="-153.70093457943926" y="1426.355140186916"/>
      <point x="-74.3177570093458" y="1511.803738317757"/>
      <point x="0.0" y="1511.803738317757" type="qcurve" smooth="yes"/>
      <point x="74.3177570093458" y="1511.803738317757"/>
      <point x="153.70093457943926" y="1426.355140186916"/>
      <point x="153.70093457943926" y="1363.6355140186915" type="qcurve" smooth="yes"/>
      <point x="153.70093457943926" y="1301.4485981308412"/>
      <point x="74.3177570093458" y="1216.0"/>
      <point x="0.0" y="1216.0" type="qcurve" smooth="yes"/>
      <point x="-74.3177570093458" y="1216.0"/>
      <point x="-153.70093457943926" y="1301.4485981308412"/>
    </contour>
  </outline>
</glyph>
<glyph name="hookabovecomb" format="2">
  <unicode hex="0309"/>
  <anchor x="0.0" y="1052.0" name="_top"/>
  <anchor x="0.0" y="1718.1028037383178" name="top"/>
  <outline>
    <contour>
      <point x="-70.0" y="1220.0" type="line"/>
      <point x="-70.0" y="1259.0" type="line" smooth="yes"/>
      <point x="-70.0" y="1311.0"/>
      <point x="-13.66355140186916" y="1379.4018691588785"/>
      <point x="47.0" y="1392.0" type="qcurve" smooth="yes"/>
      <point x="90.21495327102805" y="1400.8691588785048"/>
      <point x="121.69158878504675" y="1426.6728971962616"/>
      <point x="121.69158878504675" y="1458.6168224299067" type="qcurve" smooth="yes"/>
      <point x="121.69158878504675" y="1486.4299065420562"/>
      <point x="61.8785046728972" y="1521.3644859813085"/>
      <point x="18.0" y="1521.3644859813085" type="qcurve" smooth="yes"/>
      <point x="-46.0" y="1521.3644859813085"/>
      <point x="-145.0" y="1487.3644859813087"/>
      <point x="-168.0" y="1472.3644859813085" type="qcurve"/>
      <point x="-250.76635514018693" y="1645.8504672897197" type="line"/>
      <point x="-193.37383177570095" y="1676.710280373832"/>
      <point x="-61.65420560747664" y="1718.6355140186918"/>
      <point x="49.0" y="1718.6355140186918" type="qcurve" smooth="yes"/>
      <point x="169.0" y="1718.6355140186918"/>
      <point x="332.6355140186916" y="1604.6355140186918"/>
      <point x="332.6355140186916" y="1482.0" type="qcurve" smooth="yes"/>
      <point x="332.6355140186916" y="1381.0"/>
      <point x="184.0" y="1261.0000000000002"/>
      <point x="70.0" y="1251.0" type="qcurve"/>
      <point x="70.0" y="1220.0" type="line"/>
    </contour>
  </outline>
</glyph>
<glyph name="hungarumlautcomb" format="2">
  <unicode hex="030B"/>
  <anchor x="0.0" y="1052.0" name="_top"/>
  <anchor x="0.0" y="1628.4112149532712" name="top"/>
  <outline>
    <contour>
      <point x="-252.80373831775705" y="1293.9345794392525" type="line"/>
      <point x="-26.121495327102803" y="1627.3457943925234" type="line"/>
      <point x="157.22429906542055" y="1481.5233644859813" type="line"/>
      <point x="-158.00000000000003" y="1218.0" type="line"/>
    </contour>
    <contour>
      <point x="55.598130841121495" y="1295.532710280374" type="line"/>
      <point x="292.4018691588785" y="1622.0186915887853" type="line"/>
      <point x="478.41121495327104" y="1473.532710280374" type="line"/>
      <point x="152.0" y="1219.5981308411217" type="line"/>
    </contour>
  </outline>
</glyph>
<glyph name="commaaccentturnedcomb" format="2">
  <unicode hex="0312"/>
  <anchor x="0.0" y="1052.0" name="_top"/>
  <outline>
    <contour>
      <point x="160.8691588785047" y="1652.0" type="line"/>
      <point x="115.82242990654206" y="1258.5046728971963" type="line"/>
      <point x="-157.08411214953273" y="1293.1588785046729" type="line"/>
      <point x="6.0" y="1676.532710280374" type="line"/>
    </contour>
  </outline>
</glyph>
<glyph name="Delta" format="2">
  <advance width="1536.973831775701"/>
  <unicode hex="0394"/>
  <outline>
    <contour>
      <point x="25.200000000000003" y="0.0" type="line"/>
      <point x="25.200000000000003" y="107.0" type="line"/>
      <point x="557.2" y="1466.0" type="line"/>
      <point x="979.5738317757009" y="1466.0" type="line"/>
      <point x="1512.573831775701" y="107.0" type="line"/>
      <point x="1512.573831775701" y="0.0" type="line"/>
    </contour>
    <contour>
      <point x="236.2" y="158.00000000000003" type="line"/>
      <point x="1043.2" y="158.00000000000003" type="line"/>
      <point x="683.2" y="1100.0" type="line" smooth="yes"/>
      <point x="670.2" y="1133.0"/>
      <point x="653.2" y="1195.0"/>
      <point x="646.2" y="1228.0" type="qcurve"/>
      <point x="636.2" y="1228.0" type="line"/>
      <point x="629.2" y="1195.0"/>
      <point x="611.2" y="1133.0"/>
      <point x="599.2" y="1100.0" type="qcurve" smooth="yes"/>
    </contour>
  </outline>
</glyph>
<glyph name="Pi" format="2">
  <advance width="1830.0"/>
  <unicode hex="03A0"/>
  <outline>
    <contour>
      <point x="138.0" y="0.0" type="line"/>
      <point x="138.0" y="1456.0" type="line"/>
      <point x="1692.0" y="1456.0" type="line"/>
      <point x="1692.0" y="0.0" type="line"/>
      <point x="1272.0" y="0.0" type="line"/>
      <point x="1272.0" y="1298.0" type="line"/>
      <point x="558.0" y="1298.0" type="line"/>
      <point x="558.0" y="0.0" type="line"/>
    </contour>
  </outline>
</glyph>
<glyph name="Omega" format="2">
  <advance width="1894.1308411214955"/>
  <unicode hex="03A9"/>
  <anchor x="-15.999999999999998" y="1074.0" name="tonos"/>
  <outline>
    <contour>
      <point x="94.0" y="0.0" type="line"/>
      <point x="94.0" y="159.0" type="line"/>
      <point x="580.4859813084112" y="159.0" type="line"/>
      <point x="580.4859813084112" y="310.06542056074767" type="line"/>
      <point x="323.80373831775705" y="353.42056074766356"/>
      <point x="94.0" y="636.6542056074766"/>
      <point x="94.0" y="845.6542056074767" type="qcurve"/>
      <point x="94.0" y="880.3457943925234" type="line"/>
      <point x="94.0" y="1160.3457943925234"/>
      <point x="527.2242990654205" y="1486.0"/>
      <point x="947.0654205607477" y="1486.0" type="qcurve"/>
      <point x="1366.9065420560748" y="1486.0"/>
      <point x="1800.1308411214955" y="1160.3457943925234"/>
      <point x="1800.1308411214955" y="880.3457943925234" type="qcurve"/>
      <point x="1800.1308411214955" y="845.6542056074767" type="line"/>
      <point x="1800.1308411214955" y="605.2242990654206"/>
      <point x="1521.3177570093458" y="353.42056074766356"/>
      <point x="1313.6448598130842" y="310.59813084112153" type="qcurve"/>
      <point x="1313.6448598130842" y="159.0" type="line"/>
      <point x="1800.1308411214955" y="159.0" type="line"/>
      <point x="1800.1308411214955" y="0.0" type="line"/>
      <point x="1067.0654205607475" y="0.0" type="line"/>
      <point x="1067.0654205607475" y="437.0" type="line"/>
      <point x="1226.065420560748" y="467.4672897196262"/>
      <point x="1377.0654205607477" y="688.2616822429907"/>
      <point x="1377.0654205607477" y="836.0654205607476" type="qcurve"/>
      <point x="1377.0654205607477" y="892.0654205607477" type="line"/>
      <point x="1377.0654205607477" y="1096.0654205607477"/>
      <point x="1148.0654205607477" y="1322.0000000000002"/>
      <point x="947.0654205607477" y="1322.0000000000002" type="qcurve"/>
      <point x="746.0654205607476" y="1322.0000000000002"/>
      <point x="517.0654205607476" y="1096.0654205607477"/>
      <point x="517.0654205607476" y="892.0654205607477" type="qcurve"/>
      <point x="517.0654205607476" y="836.0654205607476" type="line"/>
      <point x="517.0654205607476" y="688.2616822429907"/>
      <point x="668.0654205607477" y="467.4672897196262"/>
      <point x="827.0654205607477" y="437.0" type="qcurve"/>
      <point x="827.0654205607477" y="0.0" type="line"/>
    </contour>
  </outline>
</glyph>
<glyph name="gamma" format="2">
  <advance width="1159.0841121495328"/>
  <unicode hex="03B3"/>
  <outline>
    <contour>
      <point x="380.0" y="-366.00000000000006" type="line"/>
      <point x="380.0" y="58.0" type="line"/>
      <point x="2.0" y="1052.0" type="line"/>
      <point x="395.0841121495327" y="1052.0" type="line"/>
      <point x="649.0841121495328" y="350.0" type="line" smooth="yes"/>
      <point x="663.0841121495328" y="310.0"/>
      <point x="682.0841121495326" y="240.0"/>
      <point x="686.0841121495326" y="220.0" type="qcurve"/>
      <point x="692.0841121495328" y="220.0" type="line"/>
      <point x="696.0841121495328" y="240.0"/>
      <point x="717.747663551402" y="309.4672897196262"/>
      <point x="729.0841121495329" y="350.0" type="qcurve" smooth="yes"/>
      <point x="981.0841121495328" y="1052.0" type="line"/>
      <point x="1157.0841121495328" y="1052.0" type="line"/>
      <point x="779.0841121495326" y="58.0" type="line"/>
      <point x="779.0841121495326" y="-366.00000000000006" type="line"/>
    </contour>
  </outline>
</glyph>
<glyph name="delta" format="2">
  <advance width="1538.1682242990653"/>
  <unicode hex="03B4"/>
  <outline>
    <contour>
      <point x="759.0841121495328" y="-30.0" type="qcurve" smooth="yes"/>
      <point x="449.85046728971963" y="-30.0"/>
      <point x="70.0" y="231.0"/>
      <point x="70.0" y="438.99999999999994" type="qcurve" smooth="yes"/>
      <point x="70.0" y="469.0" type="line" smooth="yes"/>
      <point x="70.0" y="679.0"/>
      <point x="492.74766355140184" y="957.2056074766357"/>
      <point x="762.0841121495326" y="984.0" type="qcurve"/>
      <point x="904.0841121495328" y="910.0" type="line"/>
      <point x="692.0841121495328" y="900.0"/>
      <point x="472.0841121495327" y="674.0"/>
      <point x="472.0841121495327" y="492.0" type="qcurve" smooth="yes"/>
      <point x="472.0841121495327" y="472.00000000000006" type="line" smooth="yes"/>
      <point x="472.0841121495327" y="310.0"/>
      <point x="614.0841121495328" y="124.0"/>
      <point x="760.0841121495328" y="122.00000000000001" type="qcurve"/>
      <point x="903.0841121495328" y="121.0"/>
      <point x="1066.0841121495328" y="318.0"/>
      <point x="1066.0841121495328" y="482.0" type="qcurve" smooth="yes"/>
      <point x="1066.0841121495328" y="501.0" type="line" smooth="yes"/>
      <point x="1066.0841121495328" y="621.1308411214953"/>
      <point x="945.6261682242991" y="844.7102803738319"/>
      <point x="752.7850467289719" y="911.1869158878504" type="qcurve" smooth="yes"/>
      <point x="525.8598130841121" y="986.9158878504674"/>
      <point x="255.00000000000003" y="1146.7943925233644"/>
      <point x="255.00000000000003" y="1262.5140186915887" type="qcurve" smooth="yes"/>
      <point x="255.00000000000003" y="1395.1214953271028"/>
      <point x="536.8504672897197" y="1556.0"/>
      <point x="779.4579439252336" y="1556.0" type="qcurve" smooth="yes"/>
      <point x="925.2710280373833" y="1556.0"/>
      <point x="1116.0841121495328" y="1516.4018691588785"/>
      <point x="1177.0841121495328" y="1487.0" type="qcurve"/>
      <point x="1146.0841121495328" y="1333.0000000000002" type="line"/>
      <point x="1060.0841121495325" y="1374.0"/>
      <point x="917.4953271028037" y="1404.0"/>
      <point x="856.1682242990655" y="1404.0" type="qcurve" smooth="yes"/>
      <point x="756.1588785046729" y="1404.0"/>
      <point x="652.6168224299065" y="1316.1308411214955"/>
      <point x="652.0841121495328" y="1249.4018691588785" type="qcurve" smooth="yes"/>
      <point x="651.5514018691589" y="1188.5420560747664"/>
      <point x="735.5981308411216" y="1088.822429906542"/>
      <point x="875.4766355140187" y="1026.336448598131" type="qcurve" smooth="yes"/>
      <point x="1159.018691588785" y="904.9345794392525"/>
      <point x="1468.1682242990655" y="652.5233644859813"/>
      <point x="1468.1682242990655" y="495.0" type="qcurve" smooth="yes"/>
      <point x="1468.1682242990655" y="466.0" type="line" smooth="yes"/>
      <point x="1468.1682242990655" y="229.0"/>
      <point x="1062.710280373832" y="-30.0"/>
    </contour>
  </outline>
</glyph>
<glyph name="iota" format="2">
  <advance width="779.4841121495328"/>
  <unicode hex="03B9"/>
  <anchor x="319.67102803738317" y="1052.0" name="top"/>
  <outline>
    <contour>
      <point x="445.37196261682243" y="-30.0" type="qcurve" smooth="yes"/>
      <point x="298.40934579439255" y="-30.0"/>
      <point x="112.4" y="135.57009345794393"/>
      <point x="112.4" y="291.9626168224299" type="qcurve" smooth="yes"/>
      <point x="112.4" y="1052.0" type="line"/>
      <point x="511.4841121495327" y="1052.0" type="line"/>
      <point x="511.4841121495327" y="260.0" type="line" smooth="yes"/>
      <point x="511.4841121495327" y="190.0"/>
      <point x="567.4841121495326" y="130.0"/>
      <point x="627.4841121495326" y="130.0" type="qcurve" smooth="yes"/>
      <point x="655.4841121495327" y="130.0"/>
      <point x="709.4841121495327" y="142.00000000000003"/>
      <point x="737.4841121495327" y="152.0" type="qcurve"/>
      <point x="737.4841121495327" y="0.0" type="line"/>
      <point x="711.4841121495326" y="-12.0"/>
      <point x="559.829906542056" y="-30.0"/>
    </contour>
  </outline>
</glyph>
<glyph name="kappa" format="2">
  <advance width="1446.5682242990656"/>
  <unicode hex="03BA"/>
  <outline>
    <contour>
      <point x="1015.4841121495326" y="0.0" type="line"/>
      <point x="596.4841121495328" y="477.00000000000006" type="line"/>
      <point x="876.1570093457943" y="654.6728971962617" type="line"/>
      <point x="1456.5682242990656" y="0.0" type="line"/>
    </contour>
    <contour>
      <point x="319.94205607476636" y="610.0" type="line"/>
      <point x="722.6803738317757" y="610.0" type="line"/>
      <point x="1107.6803738317756" y="1052.0" type="line"/>
      <point x="1325.6803738317758" y="1052.0" type="line"/>
      <point x="810.6803738317757" y="465.0" type="line"/>
      <point x="319.94205607476636" y="465.0" type="line"/>
    </contour>
    <contour>
      <point x="519.4841121495326" y="1052.0" type="line"/>
      <point x="519.4841121495326" y="0.0" type="line"/>
      <point x="120.40000000000002" y="0.0" type="line"/>
      <point x="120.40000000000002" y="1052.0" type="line"/>
    </contour>
  </outline>
</glyph>
<glyph name="lambda" format="2">
  <advance width="1178.0841121495328"/>
  <unicode hex="03BB"/>
  <outline>
    <contour>
      <point x="2.0" y="0.0" type="line"/>
      <point x="405.0" y="1048.0" type="line"/>
      <point x="383.0" y="1110.0" type="line" smooth="yes"/>
      <point x="325.0" y="1277.0"/>
      <point x="239.0" y="1396.0"/>
      <point x="161.00000000000003" y="1396.0" type="qcurve" smooth="yes"/>
      <point x="135.0" y="1396.0"/>
      <point x="68.0" y="1389.0"/>
      <point x="42.0" y="1381.0" type="qcurve"/>
      <point x="42.0" y="1536.0" type="line"/>
      <point x="70.0" y="1546.0"/>
      <point x="156.04672897196264" y="1556.0"/>
      <point x="280.5420560747664" y="1556.0" type="qcurve" smooth="yes"/>
      <point x="446.6261682242991" y="1556.0"/>
      <point x="676.196261682243" y="1381.5046728971963"/>
      <point x="743.7196261682243" y="1194.467289719626" type="qcurve" smooth="yes"/>
      <point x="1176.0841121495328" y="0.0" type="line"/>
      <point x="763.0000000000001" y="0.0" type="line"/>
      <point x="541.0" y="637.0" type="line" smooth="yes"/>
      <point x="521.0" y="693.0000000000001"/>
      <point x="505.0" y="757.0000000000001"/>
      <point x="492.99999999999994" y="808.0" type="qcurve"/>
      <point x="487.0000000000001" y="808.0" type="line"/>
      <point x="476.0" y="759.0"/>
      <point x="454.0" y="679.0"/>
      <point x="438.00000000000006" y="637.0" type="qcurve" smooth="yes"/>
      <point x="202.0" y="0.0" type="line"/>
    </contour>
  </outline>
</glyph>
<glyph name="pi" format="2">
  <advance width="1604.1682242990655"/>
  <unicode hex="03C0"/>
  <outline>
    <contour>
      <point x="2.0" y="900.0" type="line"/>
      <point x="2.0" y="1052.0" type="line"/>
      <point x="1562.1682242990653" y="1052.0" type="line"/>
      <point x="1562.1682242990653" y="900.0" type="line"/>
    </contour>
    <contour>
      <point x="168.0" y="0.0" type="line"/>
      <point x="168.0" y="971.0" type="line"/>
      <point x="567.0841121495328" y="971.0" type="line"/>
      <point x="567.0841121495328" y="0.0" type="line"/>
    </contour>
    <contour>
      <point x="1337.6261682242991" y="-30.0" type="qcurve" smooth="yes"/>
      <point x="1189.5981308411215" y="-30.0"/>
      <point x="996.0841121495328" y="124.15887850467288"/>
      <point x="996.0841121495328" y="300.7289719626168" type="qcurve"/>
      <point x="996.0841121495328" y="971.0" type="line"/>
      <point x="1395.1682242990653" y="971.0" type="line"/>
      <point x="1395.1682242990653" y="279.0" type="line"/>
      <point x="1395.1682242990653" y="196.0"/>
      <point x="1436.1682242990655" y="130.0"/>
      <point x="1492.1682242990655" y="130.0" type="qcurve"/>
      <point x="1506.1682242990655" y="130.0"/>
      <point x="1548.1682242990655" y="139.0"/>
      <point x="1559.1682242990653" y="144.0" type="qcurve"/>
      <point x="1559.1682242990653" y="-8.0" type="line"/>
      <point x="1519.8598130841121" y="-19.13084112149533"/>
      <point x="1410.7850467289718" y="-30.0"/>
    </contour>
  </outline>
</glyph>
<glyph name="rho" format="2">
  <advance width="1551.970093457944"/>
  <unicode hex="03C1"/>
  <outline>
    <contour>
      <point x="118.80186915887852" y="-416.0" type="line"/>
      <point x="118.80186915887852" y="507.4392523364487" type="line" smooth="yes"/>
      <point x="118.80186915887852" y="792.2616822429907"/>
      <point x="468.9514018691589" y="1072.0"/>
      <point x="798.8859813084111" y="1072.0" type="qcurve" smooth="yes"/>
      <point x="1145.4280373831775" y="1072.0"/>
      <point x="1481.9700934579441" y="782.0"/>
      <point x="1481.9700934579441" y="552.0" type="qcurve" smooth="yes"/>
      <point x="1481.9700934579441" y="520.0" type="line" smooth="yes"/>
      <point x="1481.9700934579441" y="290.0"/>
      <point x="1135.4280373831778" y="-20.0"/>
      <point x="890.6803738317757" y="-20.0" type="qcurve" smooth="yes"/>
      <point x="690.8859813084111" y="-20.0"/>
      <point x="464.5401869158879" y="123.57943925233644"/>
      <point x="357.69906542056077" y="263.0" type="qcurve"/>
      <point x="357.69906542056077" y="537.6355140186915" type="line"/>
      <point x="441.74579439252335" y="363.3457943925234"/>
      <point x="650.5682242990654" y="132.0"/>
      <point x="788.8859813084113" y="132.0" type="qcurve" smooth="yes"/>
      <point x="938.8859813084111" y="132.0"/>
      <point x="1078.8859813084111" y="360.0"/>
      <point x="1078.8859813084111" y="520.0" type="qcurve" smooth="yes"/>
      <point x="1078.8859813084111" y="552.0" type="line" smooth="yes"/>
      <point x="1078.8859813084111" y="712.0"/>
      <point x="948.8859813084114" y="920.0"/>
      <point x="798.8859813084111" y="920.0" type="qcurve" smooth="yes"/>
      <point x="678.8859813084111" y="920.0"/>
      <point x="517.8859813084111" y="750.0"/>
      <point x="517.8859813084111" y="546.0" type="qcurve" smooth="yes"/>
      <point x="517.8859813084111" y="-416.0" type="line"/>
    </contour>
  </outline>
</glyph>
<glyph name="finalsigma" format="2">
  <advance width="1424.7327102803738"/>
  <unicode hex="03C2"/>
  <outline>
    <contour>
      <point x="837.0841121495328" y="-348.0" type="line"/>
      <point x="863.8130841121497" y="-295.53271028037386"/>
      <point x="891.0841121495328" y="-216.30841121495325"/>
      <point x="891.0841121495328" y="-174.96261682242994" type="qcurve"/>
      <point x="891.0841121495328" y="-115.96261682242991"/>
      <point x="814.6355140186917" y="-66.88785046728972"/>
      <point x="705.5981308411216" y="-42.02803738317757" type="qcurve" smooth="yes"/>
      <point x="631.4953271028037" y="-25.168224299065418" type="line" smooth="yes"/>
      <point x="420.9065420560747" y="22.96261682242991"/>
      <point x="70.0" y="287.0"/>
      <point x="70.0" y="505.0" type="qcurve" smooth="yes"/>
      <point x="70.0" y="542.0" type="line" smooth="yes"/>
      <point x="70.0" y="772.0000000000001"/>
      <point x="446.3271028037384" y="1082.0"/>
      <point x="779.0841121495328" y="1082.0" type="qcurve" smooth="yes"/>
      <point x="1100.6261682242991" y="1082.0"/>
      <point x="1383.5327102803737" y="851.0"/>
      <point x="1383.5327102803737" y="715.0" type="qcurve" smooth="yes"/>
      <point x="1383.5327102803737" y="710.0" type="line"/>
      <point x="1017.0841121495328" y="710.0" type="line"/>
      <point x="1017.0841121495328" y="715.0" type="line" smooth="yes"/>
      <point x="1017.0841121495328" y="800.0"/>
      <point x="894.2897196261683" y="930.5327102803737"/>
      <point x="774.2897196261682" y="930.5327102803737" type="qcurve"/>
      <point x="628.2897196261682" y="930.5327102803737"/>
      <point x="473.0841121495327" y="741.6542056074766"/>
      <point x="473.0841121495327" y="578.6355140186917" type="qcurve" smooth="yes"/>
      <point x="473.0841121495327" y="539.6355140186917" type="line" smooth="yes"/>
      <point x="473.0841121495327" y="422.5981308411215"/>
      <point x="597.0841121495326" y="284.23364485981307"/>
      <point x="757.0841121495326" y="247.23364485981307" type="qcurve" smooth="yes"/>
      <point x="809.0841121495328" y="235.2336448598131" type="line" smooth="yes"/>
      <point x="965.0841121495326" y="199.2336448598131"/>
      <point x="1090.392523364486" y="64.06542056074765"/>
      <point x="1090.392523364486" y="-52.037383177570106" type="qcurve"/>
      <point x="1090.392523364486" y="-115.0373831775701"/>
      <point x="1043.3457943925234" y="-276.4018691588785"/>
      <point x="1007.0841121495328" y="-348.0" type="qcurve"/>
    </contour>
  </outline>
</glyph>
<glyph name="tau" format="2">
  <advance width="1027.0841121495328"/>
  <unicode hex="03C4"/>
  <outline>
    <contour>
      <point x="2.0" y="900.0" type="line"/>
      <point x="2.0" y="1052.0" type="line"/>
      <point x="985.0841121495328" y="1052.0" type="line"/>
      <point x="985.0841121495328" y="900.0" type="line"/>
    </contour>
    <contour>
      <point x="618.2990654205607" y="-30.0" type="qcurve" smooth="yes"/>
      <point x="450.5607476635514" y="-30.0"/>
      <point x="280.0" y="131.8411214953271"/>
      <point x="280.0" y="324.9906542056075" type="qcurve" smooth="yes"/>
      <point x="280.0" y="971.0" type="line"/>
      <point x="679.0841121495328" y="971.0" type="line"/>
      <point x="679.0841121495328" y="260.0" type="line" smooth="yes"/>
      <point x="679.0841121495328" y="190.0"/>
      <point x="735.0841121495326" y="130.0"/>
      <point x="795.0841121495328" y="130.0" type="qcurve" smooth="yes"/>
      <point x="823.0841121495328" y="130.0"/>
      <point x="877.0841121495328" y="142.00000000000003"/>
      <point x="905.0841121495328" y="152.0" type="qcurve"/>
      <point x="905.0841121495328" y="0.0" type="line"/>
      <point x="871.6261682242991" y="-11.46728971962617"/>
      <point x="754.5981308411215" y="-30.0"/>
    </contour>
  </outline>
</glyph>
<glyph name="chi" format="2">
  <advance width="1241.3551401869158"/>
  <unicode hex="03C7"/>
  <outline>
    <contour>
      <point x="743.0" y="-416.0" type="line"/>
      <point x="434.00000000000006" y="270.0" type="line"/>
      <point x="425.0" y="270.0" type="line"/>
      <point x="22.0" y="1052.0" type="line"/>
      <point x="501.35514018691583" y="1052.0" type="line"/>
      <point x="795.3551401869158" y="418.00000000000006" type="line"/>
      <point x="805.3551401869158" y="418.00000000000006" type="line"/>
      <point x="1223.3551401869158" y="-416.0" type="line"/>
    </contour>
    <contour>
      <point x="18.0" y="-416.0" type="line"/>
      <point x="448.0" y="438.00000000000006" type="line"/>
      <point x="731.3551401869158" y="438.00000000000006" type="line"/>
      <point x="1003.3551401869158" y="1052.0" type="line"/>
      <point x="1213.355140186916" y="1052.0" type="line"/>
      <point x="830.355140186916" y="283.0" type="line"/>
      <point x="547.0" y="283.0" type="line"/>
      <point x="228.0" y="-416.0" type="line"/>
    </contour>
  </outline>
</glyph>
<glyph name="Kaisymbol" format="2">
  <advance width="1589.9887850467294"/>
  <unicode hex="03CF"/>
  <outline>
    <contour>
      <point x="138.0" y="0.0" type="line"/>
      <point x="138.0" y="1456.0" type="line"/>
      <point x="553.7383177570093" y="1456.0" type="line"/>
      <point x="553.7383177570093" y="0.0" type="line"/>
    </contour>
    <contour>
      <point x="425.24299065420564" y="261.15887850467294" type="line"/>
      <point x="425.24299065420564" y="498.1588785046729" type="line"/>
      <point x="1288.03738317757" y="1456.0" type="line"/>
      <point x="1521.1028037383178" y="1456.0" type="line"/>
      <point x="846.467289719626" y="720.570093457944" type="line"/>
    </contour>
    <contour>
      <point x="1187.8411214953271" y="-33.990654205607456" type="line"/>
      <point x="684.7383177570093" y="645.8504672897196" type="line"/>
      <point x="943.5140186915888" y="927.8785046728974" type="line"/>
      <point x="1597.5887850467288" y="74.19626168224298" type="line"/>
      <point x="781.0654205607476" y="-589.4672897196263" type="line"/>
      <point x="666.5327102803739" y="-453.3364485981308" type="line"/>
    </contour>
  </outline>
</glyph>
<glyph name="Dje" format="2">
  <advance width="2067.2467289719625"/>
  <unicode hex="0402"/>
  <guideline x="568.0000000000001" y="625.0000000000001" angle="90.0" identifier="YDADns81zF"/>
  <outline>
    <contour>
      <point x="469.20000000000005" y="0.0" type="line"/>
      <point x="469.20000000000005" y="1378.0000000000002" type="line"/>
      <point x="883.8728971962618" y="1378.0000000000002" type="line"/>
      <point x="883.8728971962618" y="0.0" type="line"/>
    </contour>
    <contour>
      <point x="1326.8728971962616" y="0.0" type="line"/>
      <point x="1326.8728971962616" y="182.0" type="line"/>
      <point x="1334.8728971962619" y="182.0" type="line" smooth="yes"/>
      <point x="1437.8728971962616" y="182.0"/>
      <point x="1538.8728971962616" y="305.0"/>
      <point x="1538.8728971962616" y="407.0" type="qcurve" smooth="yes"/>
      <point x="1538.8728971962616" y="423.00000000000006" type="line" smooth="yes"/>
      <point x="1538.8728971962616" y="551.0"/>
      <point x="1382.8728971962616" y="692.0"/>
      <point x="1181.5831775700935" y="692.0" type="qcurve" smooth="yes"/>
      <point x="1053.819103038862" y="692.0"/>
      <point x="880.8728971962618" y="671.0"/>
      <point x="762.3028037383178" y="642.6074766355141" type="qcurve"/>
      <point x="762.3028037383178" y="800.607476635514" type="line"/>
      <point x="879.8728971962616" y="829.0000000000001"/>
      <point x="1087.1937657057401" y="850.0"/>
      <point x="1222.2841121495328" y="850.0" type="qcurve" smooth="yes"/>
      <point x="1590.4710280373831" y="850.0"/>
      <point x="1962.6018691588788" y="624.0"/>
      <point x="1962.6018691588788" y="432.00000000000006" type="qcurve" smooth="yes"/>
      <point x="1962.6018691588788" y="409.0" type="line" smooth="yes"/>
      <point x="1962.6018691588788" y="235.0"/>
      <point x="1639.4803738317758" y="0.0"/>
      <point x="1377.4897196261682" y="0.0" type="qcurve" smooth="yes"/>
    </contour>
    <contour>
      <point x="21.200000000000003" y="1298.0" type="line"/>
      <point x="21.200000000000003" y="1456.0" type="line"/>
      <point x="1371.8728971962619" y="1456.0" type="line"/>
      <point x="1371.8728971962619" y="1298.0" type="line"/>
    </contour>
  </outline>
</glyph>
<glyph name="Nje" format="2">
  <advance width="2658.8130841121497"/>
  <unicode hex="040A"/>
  <outline>
    <contour>
      <point x="138.0" y="0.0" type="line"/>
      <point x="552.1401869158879" y="0.0" type="line"/>
      <point x="552.1401869158879" y="1456.0" type="line"/>
      <point x="138.0" y="1456.0" type="line"/>
    </contour>
    <contour>
      <point x="1186.1401869158879" y="0.0" type="line"/>
      <point x="2055.9532710280373" y="0.0" type="line" smooth="yes"/>
      <point x="2326.3177570093458" y="0.0"/>
      <point x="2616.8130841121497" y="241.0"/>
      <point x="2616.8130841121497" y="437.0" type="qcurve" smooth="yes"/>
      <point x="2616.8130841121497" y="633.0"/>
      <point x="2326.3177570093458" y="870.0"/>
      <point x="2055.9532710280373" y="870.0" type="qcurve" smooth="yes"/>
      <point x="1445.1121495327102" y="870.0" type="line"/>
      <point x="1445.1121495327102" y="712.0" type="line"/>
      <point x="1890.8130841121497" y="712.0" type="line" smooth="yes"/>
      <point x="2060.813084112149" y="712.0"/>
      <point x="2196.8130841121497" y="554.0"/>
      <point x="2196.8130841121497" y="437.0" type="qcurve" smooth="yes"/>
      <point x="2196.8130841121497" y="320.0"/>
      <point x="2060.813084112149" y="158.00000000000003"/>
      <point x="1890.8130841121497" y="158.00000000000003" type="qcurve" smooth="yes"/>
      <point x="1600.8130841121497" y="158.00000000000003" type="line"/>
      <point x="1600.8130841121497" y="1456.0" type="line"/>
      <point x="1186.1401869158879" y="1456.0" type="line"/>
    </contour>
    <contour>
      <point x="341.21495327102804" y="712.0" type="line"/>
      <point x="1399.2616822429907" y="712.0" type="line"/>
      <point x="1399.2616822429907" y="870.0" type="line"/>
      <point x="341.21495327102804" y="870.0" type="line"/>
    </contour>
  </outline>
</glyph>
<glyph name="Dzhe" format="2">
  <advance width="1818.8130841121497"/>
  <unicode hex="040F"/>
  <outline>
    <contour>
      <point x="138.0" y="0.0" type="line"/>
      <point x="138.0" y="1456.0" type="line"/>
      <point x="552.6728971962616" y="1456.0" type="line"/>
      <point x="552.6728971962616" y="158.00000000000003" type="line"/>
      <point x="1266.140186915888" y="158.00000000000003" type="line"/>
      <point x="1266.140186915888" y="1456.0" type="line"/>
      <point x="1680.8130841121495" y="1456.0" type="line"/>
      <point x="1680.8130841121495" y="0.0" type="line"/>
    </contour>
    <contour>
      <point x="823.6728971962618" y="-290.0" type="line"/>
      <point x="823.6728971962618" y="80.0" type="line"/>
      <point x="995.6728971962618" y="80.0" type="line"/>
      <point x="995.6728971962618" y="-290.0" type="line"/>
    </contour>
  </outline>
</glyph>
<glyph name="De" format="2">
  <advance width="1910.1495327102805"/>
  <unicode hex="0414"/>
  <outline>
    <contour>
      <point x="1712.1495327102805" y="-290.0" type="line"/>
      <point x="1712.1495327102805" y="0.0" type="line"/>
      <point x="182.0" y="0.0" type="line"/>
      <point x="182.0" y="-290.0" type="line"/>
      <point x="10.0" y="-290.0" type="line"/>
      <point x="10.0" y="158.00000000000003" type="line"/>
      <point x="1884.1495327102805" y="158.00000000000003" type="line"/>
      <point x="1884.1495327102805" y="-290.0" type="line"/>
    </contour>
    <contour>
      <point x="310.0" y="1456.0" type="line"/>
      <point x="1704.1495327102803" y="1456.0" type="line"/>
      <point x="1704.1495327102803" y="79.00000000000001" type="line"/>
      <point x="1288.411214953271" y="79.00000000000001" type="line"/>
      <point x="1288.411214953271" y="1298.0" type="line"/>
      <point x="697.4112149532709" y="1298.0" type="line"/>
      <point x="656.4112149532712" y="659.0" type="line" smooth="yes"/>
      <point x="642.411214953271" y="447.0"/>
      <point x="592.411214953271" y="205.0"/>
      <point x="544.411214953271" y="79.00000000000001" type="qcurve"/>
      <point x="123.0" y="79.00000000000001" type="line"/>
      <point x="186.0" y="209.00000000000003"/>
      <point x="245.00000000000003" y="457.00000000000006"/>
      <point x="258.0" y="657.0000000000001" type="qcurve" smooth="yes"/>
    </contour>
  </outline>
</glyph>
<glyph name="Ka" format="2">
  <advance width="1687.4766355140187"/>
  <unicode hex="041A"/>
  <guideline x="480.0" y="796.0" angle="90.0" identifier="LxfLwWU0sJ"/>
  <anchor x="625.0000000000001" y="1456.0" name="top"/>
  <anchor x="1493.514018691589" y="0.0" name="cy_descender"/>
  <outline>
    <contour>
      <point x="1241.7383177570096" y="0.0" type="line"/>
      <point x="623.3271028037383" y="727.747663551402" type="line"/>
      <point x="928.7570093457945" y="901.8411214953271" type="line"/>
      <point x="1701.4766355140187" y="0.0" type="line"/>
    </contour>
    <contour>
      <point x="457.7383177570094" y="830.0" type="line"/>
      <point x="755.9065420560747" y="830.0" type="line"/>
      <point x="1300.9065420560748" y="1456.0" type="line"/>
      <point x="1517.9065420560748" y="1456.0" type="line"/>
      <point x="833.9065420560748" y="672.0" type="line"/>
      <point x="457.7383177570094" y="672.0" type="line"/>
    </contour>
    <contour>
      <point x="138.0" y="0.0" type="line"/>
      <point x="138.0" y="1456.0" type="line"/>
      <point x="553.7383177570093" y="1456.0" type="line"/>
      <point x="553.7383177570093" y="0.0" type="line"/>
    </contour>
  </outline>
</glyph>
<glyph name="Ucyr" format="2">
  <advance width="1485.3084112149531"/>
  <unicode hex="0423"/>
  <anchor x="891.2990654205606" y="1456.0" name="top"/>
  <outline>
    <contour>
      <point x="151.0" y="161.85981308411215" type="line"/>
      <point x="177.0" y="153.85981308411218"/>
      <point x="267.6355140186916" y="138.0"/>
      <point x="324.2710280373832" y="138.0" type="qcurve" smooth="yes"/>
      <point x="417.0747663551402" y="138.0"/>
      <point x="543.5981308411215" y="186.5140186915888"/>
      <point x="604.6728971962617" y="256.6542056074767" type="qcurve"/>
      <point x="604.6728971962617" y="256.6542056074767" type="line"/>
      <point x="14.0" y="1456.0" type="line"/>
      <point x="481.30841121495325" y="1456.0" type="line"/>
      <point x="828.3084112149531" y="720.0" type="line" smooth="yes"/>
      <point x="853.3084112149533" y="668.0"/>
      <point x="879.3084112149534" y="615.0"/>
      <point x="895.3084112149531" y="579.0" type="qcurve"/>
      <point x="901.3084112149534" y="579.0" type="line"/>
      <point x="916.3084112149534" y="615.0"/>
      <point x="937.8411214953271" y="667.5327102803739"/>
      <point x="960.3084112149534" y="720.0" type="qcurve" smooth="yes"/>
      <point x="1275.3084112149531" y="1456.0" type="line"/>
      <point x="1471.3084112149531" y="1456.0" type="line"/>
      <point x="1033.607476635514" y="460.58878504672896" type="line" smooth="yes"/>
      <point x="905.4953271028038" y="169.57009345794393"/>
      <point x="633.3831775700935" y="-30.0"/>
      <point x="424.6542056074767" y="-30.0" type="qcurve" smooth="yes"/>
      <point x="308.6542056074767" y="-30.0"/>
      <point x="179.53271028037386" y="-13.074766355140188"/>
      <point x="151.0" y="-4.140186915887852" type="qcurve"/>
    </contour>
  </outline>
</glyph>
<glyph name="Che" format="2">
  <advance width="1791.859813084112"/>
  <unicode hex="0427"/>
  <guideline x="1123.0" y="741.0" angle="90.0" identifier="nfCxFSb4p1"/>
  <anchor x="1556.196261682243" y="0.0" name="cy_descender"/>
  <outline>
    <contour>
      <point x="538.2616822429906" y="1032.0" type="line" smooth="yes"/>
      <point x="538.2616822429906" y="854.0"/>
      <point x="701.2616822429906" y="733.4672897196263"/>
      <point x="899.2616822429907" y="734.0" type="qcurve" smooth="yes"/>
      <point x="1038.963412301686" y="734.532710280374"/>
      <point x="1287.452055344363" y="761.4704456410022"/>
      <point x="1448.1214953271028" y="809.6261682242991" type="qcurve"/>
      <point x="1448.1214953271028" y="651.6261682242991" type="line"/>
      <point x="1259.3307088017227" y="603.0035213083473"/>
      <point x="1005.9903391788314" y="576.0"/>
      <point x="848.5700934579439" y="576.0" type="qcurve" smooth="yes"/>
      <point x="494.42056074766356" y="576.0"/>
      <point x="116.66355140186917" y="788.8878504672897"/>
      <point x="115.5981308411215" y="1054.710280373832" type="qcurve" smooth="yes"/>
      <point x="114.0" y="1456.0" type="line"/>
      <point x="538.2616822429906" y="1456.0" type="line"/>
    </contour>
    <contour>
      <point x="1653.859813084112" y="1456.0" type="line"/>
      <point x="1653.859813084112" y="0.0" type="line"/>
      <point x="1232.261682242991" y="0.0" type="line"/>
      <point x="1232.261682242991" y="1456.0" type="line"/>
    </contour>
  </outline>
</glyph>
<glyph name="ghe" format="2">
  <advance width="1045.4841121495328"/>
  <unicode hex="0433"/>
  <anchor x="477.4000000000001" y="1052.0" name="top"/>
  <outline>
    <contour>
      <point x="120.40000000000002" y="1052.0" type="line"/>
      <point x="1019.4841121495328" y="1052.0" type="line"/>
      <point x="1019.4841121495328" y="907.0" type="line"/>
      <point x="519.4841121495326" y="907.0" type="line"/>
      <point x="519.4841121495326" y="0.0" type="line"/>
      <point x="120.40000000000002" y="0.0" type="line"/>
    </contour>
  </outline>
</glyph>
<glyph name="zhe" format="2">
  <advance width="2048.2523364485983"/>
  <unicode hex="0436"/>
  <anchor x="1022.0934579439252" y="1052.0" name="top"/>
  <anchor x="1903.0093457943926" y="0.0" name="cy_descender"/>
  <outline>
    <contour>
      <point x="1218.1682242990655" y="0.0" type="line"/>
      <point x="825.0841121495326" y="0.0" type="line"/>
      <point x="825.0841121495326" y="1052.0" type="line"/>
      <point x="1218.1682242990655" y="1052.0" type="line"/>
    </contour>
    <contour>
      <point x="1643.1682242990653" y="0.0" type="line"/>
      <point x="1293.5233644859813" y="498.63551401869165" type="line"/>
      <point x="1626.6074766355139" y="617.6355140186915" type="line"/>
      <point x="2066.252336448598" y="0.0" type="line"/>
    </contour>
    <contour>
      <point x="1021.6261682242989" y="610.0" type="line"/>
      <point x="1466.981308411215" y="610.0" type="line"/>
      <point x="1771.981308411215" y="1052.0" type="line"/>
      <point x="1975.981308411215" y="1052.0" type="line"/>
      <point x="1563.981308411215" y="465.0" type="line"/>
      <point x="1021.6261682242989" y="465.0" type="line"/>
    </contour>
    <contour>
      <point x="400.0841121495327" y="0.0" type="line"/>
      <point x="-18.0" y="0.0" type="line"/>
      <point x="418.4485981308411" y="614.4392523364486" type="line"/>
      <point x="744.532710280374" y="495.43925233644865" type="line"/>
    </contour>
    <contour>
      <point x="1021.6261682242989" y="610.0" type="line"/>
      <point x="1021.6261682242989" y="465.0" type="line"/>
      <point x="477.2710280373832" y="465.0" type="line"/>
      <point x="65.27102803738318" y="1052.0" type="line"/>
      <point x="271.27102803738313" y="1052.0" type="line"/>
      <point x="576.2710280373832" y="610.0" type="line"/>
    </contour>
  </outline>
</glyph>
<glyph name="en" format="2">
  <advance width="1508.9682242990655"/>
  <unicode hex="043D"/>
  <anchor x="1293.7084112149532" y="0.0" name="cy_descender"/>
  <outline>
    <contour>
      <point x="120.40000000000002" y="0.0" type="line"/>
      <point x="120.40000000000002" y="1052.0" type="line"/>
      <point x="519.4841121495326" y="1052.0" type="line"/>
      <point x="519.4841121495326" y="0.0" type="line"/>
    </contour>
    <contour>
      <point x="322.94205607476636" y="465.0" type="line"/>
      <point x="322.94205607476636" y="610.0" type="line"/>
      <point x="1186.026168224299" y="610.0" type="line"/>
      <point x="1186.026168224299" y="465.0" type="line"/>
    </contour>
    <contour>
      <point x="989.4841121495328" y="0.0" type="line"/>
      <point x="989.4841121495328" y="1052.0" type="line"/>
      <point x="1388.5682242990652" y="1052.0" type="line"/>
      <point x="1388.5682242990652" y="0.0" type="line"/>
    </contour>
  </outline>
</glyph>
<glyph name="pe" format="2">
  <advance width="1498.9682242990655"/>
  <unicode hex="043F"/>
  <outline>
    <contour>
      <point x="120.40000000000002" y="1052.0" type="line"/>
      <point x="1378.5682242990654" y="1052.0" type="line"/>
      <point x="1378.5682242990654" y="0.0" type="line"/>
      <point x="979.4841121495328" y="0.0" type="line"/>
      <point x="979.4841121495328" y="907.0" type="line"/>
      <point x="519.4841121495326" y="907.0" type="line"/>
      <point x="519.4841121495326" y="0.0" type="line"/>
      <point x="120.40000000000002" y="0.0" type="line"/>
    </contour>
  </outline>
</glyph>
<glyph name="sha" format="2">
  <advance width="2258.052336448598"/>
  <unicode hex="0448"/>
  <anchor x="2039.521495327103" y="0.0" name="cy_descender"/>
  <outline>
    <contour>
      <point x="120.40000000000002" y="0.0" type="line"/>
      <point x="120.40000000000002" y="1052.0" type="line"/>
      <point x="519.4841121495326" y="1052.0" type="line"/>
      <point x="519.4841121495326" y="145.0" type="line"/>
      <point x="929.4841121495326" y="145.0" type="line"/>
      <point x="929.4841121495326" y="1052.0" type="line"/>
      <point x="1328.5682242990654" y="1052.0" type="line"/>
      <point x="1328.5682242990654" y="145.0" type="line"/>
      <point x="1738.5682242990656" y="145.0" type="line"/>
      <point x="1738.5682242990656" y="1052.0" type="line"/>
      <point x="2137.6523364485984" y="1052.0" type="line"/>
      <point x="2137.6523364485984" y="0.0" type="line"/>
    </contour>
  </outline>
</glyph>
<glyph name="soft" format="2">
  <advance width="1436.5682242990654"/>
  <unicode hex="044C"/>
  <outline>
    <contour>
      <point x="120.40000000000002" y="0.0" type="line"/>
      <point x="120.40000000000002" y="1052.0" type="line"/>
      <point x="519.4841121495326" y="1052.0" type="line"/>
      <point x="519.4841121495326" y="145.0" type="line"/>
      <point x="761.4841121495326" y="145.0" type="line" smooth="yes"/>
      <point x="886.4841121495326" y="145.0"/>
      <point x="987.4841121495326" y="260.0"/>
      <point x="987.4841121495326" y="348.0" type="qcurve" smooth="yes"/>
      <point x="987.4841121495326" y="435.0"/>
      <point x="886.4841121495326" y="547.0"/>
      <point x="761.4841121495326" y="547.0" type="qcurve" smooth="yes"/>
      <point x="322.94205607476636" y="547.0" type="line"/>
      <point x="322.94205607476636" y="692.0" type="line"/>
      <point x="927.1570093457944" y="692.0" type="line" smooth="yes"/>
      <point x="1148.063551401869" y="692.0"/>
      <point x="1386.5682242990654" y="506.0"/>
      <point x="1386.5682242990654" y="348.0" type="qcurve" smooth="yes"/>
      <point x="1386.5682242990654" y="190.0"/>
      <point x="1148.063551401869" y="0.0"/>
      <point x="927.1570093457944" y="0.0" type="qcurve" smooth="yes"/>
    </contour>
  </outline>
</glyph>
<glyph name="ya" format="2">
  <advance width="1500.5682242990654"/>
  <unicode hex="044F"/>
  <anchor x="784.9439252336449" y="1052.0" name="top"/>
  <outline>
    <contour>
      <point x="70.0" y="0.0" type="line"/>
      <point x="396.00000000000006" y="454.00000000000006" type="line"/>
      <point x="794.0841121495328" y="437.0" type="line"/>
      <point x="487.08411214953276" y="0.0" type="line"/>
    </contour>
    <contour>
      <point x="104.0" y="716.0" type="qcurve" smooth="yes"/>
      <point x="104.0" y="869.0"/>
      <point x="336.97196261682245" y="1052.0"/>
      <point x="552.3457943925234" y="1052.0" type="qcurve" smooth="yes"/>
      <point x="1380.1682242990655" y="1052.0" type="line"/>
      <point x="1380.1682242990655" y="0.0" type="line"/>
      <point x="981.0841121495328" y="0.0" type="line"/>
      <point x="981.0841121495328" y="907.0" type="line"/>
      <point x="719.0841121495328" y="907.0" type="line" smooth="yes"/>
      <point x="600.0841121495328" y="907.0"/>
      <point x="503.0841121495327" y="799.1329145600427"/>
      <point x="503.0841121495327" y="716.0" type="qcurve" smooth="yes"/>
      <point x="503.0841121495327" y="633.1254320471944"/>
      <point x="599.0841121495328" y="529.0"/>
      <point x="719.0841121495328" y="529.0" type="qcurve" smooth="yes"/>
      <point x="1177.6261682242991" y="529.0" type="line"/>
      <point x="1177.6261682242991" y="384.0" type="line"/>
      <point x="737.0841121495328" y="384.0" type="line"/>
      <point x="552.3457943925234" y="396.0" type="line"/>
      <point x="336.97196261682245" y="396.0"/>
      <point x="104.0" y="569.0"/>
    </contour>
  </outline>
</glyph>
<glyph name="ieukran" format="2">
  <advance width="1461.5084112149532"/>
  <unicode hex="0454"/>
  <guideline x="180.0" y="548.0" angle="90.0" identifier="n4jm0tBg3Y"/>
  <outline>
    <contour>
      <point x="70.0" y="510.0" type="qcurve" smooth="yes"/>
      <point x="70.0" y="542.0" type="line" smooth="yes"/>
      <point x="70.0" y="787.7289719626169"/>
      <point x="446.196261682243" y="1082.0"/>
      <point x="765.8878504672897" y="1082.0" type="qcurve" smooth="yes"/>
      <point x="1077.1028037383178" y="1082.0"/>
      <point x="1400.0467289719627" y="855.0"/>
      <point x="1400.0467289719627" y="715.0" type="qcurve" smooth="yes"/>
      <point x="1400.0467289719627" y="710.0" type="line"/>
      <point x="1014.9532710280373" y="710.0" type="line"/>
      <point x="1014.9532710280373" y="715.0" type="line" smooth="yes"/>
      <point x="1014.9532710280373" y="798.4018691588785"/>
      <point x="894.2897196261683" y="930.0"/>
      <point x="761.626168224299" y="930.0" type="qcurve" smooth="yes"/>
      <point x="619.6168224299065" y="930.0"/>
      <point x="468.01869158878503" y="715.1308411214953"/>
      <point x="468.01869158878503" y="564.0" type="qcurve" smooth="yes"/>
      <point x="468.01869158878503" y="500.00000000000006" type="line" smooth="yes"/>
      <point x="468.01869158878503" y="337.93457943925233"/>
      <point x="619.0841121495326" y="122.00000000000001"/>
      <point x="763.7570093457944" y="122.00000000000001" type="qcurve" smooth="yes"/>
      <point x="896.4205607476636" y="122.00000000000001"/>
      <point x="1017.0841121495328" y="252.00000000000003"/>
      <point x="1017.0841121495328" y="337.0" type="qcurve" smooth="yes"/>
      <point x="1017.0841121495328" y="342.00000000000006" type="line"/>
      <point x="1404.3084112149534" y="342.00000000000006" type="line"/>
      <point x="1404.3084112149534" y="337.0" type="line" smooth="yes"/>
      <point x="1404.3084112149534" y="197.0"/>
      <point x="1081.3644859813085" y="-30.0"/>
      <point x="770.1495327102804" y="-30.0" type="qcurve" smooth="yes"/>
      <point x="448.32710280373834" y="-30.0"/>
      <point x="70.0" y="263.7383177570093"/>
    </contour>
    <contour>
      <point x="271.47663551401865" y="610.0" type="line"/>
      <point x="908.0841121495328" y="610.0" type="line"/>
      <point x="908.0841121495328" y="465.0" type="line"/>
      <point x="271.47663551401865" y="465.0" type="line"/>
    </contour>
  </outline>
</glyph>
<glyph name="nje" format="2">
  <advance width="2302.6523364485984"/>
  <unicode hex="045A"/>
  <outline>
    <contour>
      <point x="120.40000000000002" y="0.0" type="line"/>
      <point x="120.40000000000002" y="1052.0" type="line"/>
      <point x="519.4841121495326" y="1052.0" type="line"/>
      <point x="519.4841121495326" y="0.0" type="line"/>
    </contour>
    <contour>
      <point x="322.94205607476636" y="525.0000000000001" type="line"/>
      <point x="322.94205607476636" y="670.0" type="line"/>
      <point x="1183.026168224299" y="670.0" type="line"/>
      <point x="1183.026168224299" y="525.0000000000001" type="line"/>
    </contour>
    <contour>
      <point x="986.4841121495328" y="0.0" type="line"/>
      <point x="986.4841121495328" y="1052.0" type="line"/>
      <point x="1385.5682242990656" y="1052.0" type="line"/>
      <point x="1385.5682242990656" y="145.0" type="line"/>
      <point x="1627.5682242990656" y="145.0" type="line" smooth="yes"/>
      <point x="1752.5682242990656" y="145.0"/>
      <point x="1853.5682242990654" y="254.88378707842224"/>
      <point x="1853.5682242990654" y="337.0" type="qcurve" smooth="yes"/>
      <point x="1853.5682242990654" y="418.12473520250114"/>
      <point x="1752.5682242990656" y="525.0000000000001"/>
      <point x="1627.5682242990656" y="525.0000000000001" type="qcurve" smooth="yes"/>
      <point x="1209.026168224299" y="525.0000000000001" type="line"/>
      <point x="1209.026168224299" y="670.0" type="line"/>
      <point x="1793.2411214953272" y="670.0" type="line" smooth="yes"/>
      <point x="2014.1476635514018" y="670.0"/>
      <point x="2252.6523364485984" y="490.99999999999994"/>
      <point x="2252.6523364485984" y="337.0" type="qcurve" smooth="yes"/>
      <point x="2252.6523364485984" y="183.00000000000003"/>
      <point x="2014.1476635514018" y="0.0"/>
      <point x="1793.2411214953272" y="0.0" type="qcurve" smooth="yes"/>
    </contour>
  </outline>
</glyph>
<glyph name="gheup" format="2">
  <advance width="1013.5214953271028"/>
  <unicode hex="0491"/>
  <outline>
    <contour>
      <point x="120.40000000000002" y="1052.0" type="line"/>
      <point x="851.4841121495327" y="1052.0" type="line"/>
      <point x="851.4841121495327" y="1322.0000000000002" type="line"/>
      <point x="1019.4841121495328" y="1322.0000000000002" type="line"/>
      <point x="1019.4841121495328" y="907.0" type="line"/>
      <point x="519.4841121495326" y="907.0" type="line"/>
      <point x="519.4841121495326" y="0.0" type="line"/>
      <point x="120.40000000000002" y="0.0" type="line"/>
    </contour>
  </outline>
</glyph>
<glyph name="Kaverticalstrokecyr" format="2">
  <advance width="2082.327102803738"/>
  <unicode hex="049C"/>
  <guideline x="637.0" y="675.0" angle="90.0" identifier="5CJVZV5P4J"/>
  <outline>
    <contour>
      <point x="138.0" y="0.0" type="line"/>
      <point x="138.0" y="1456.0" type="line"/>
      <point x="552.1401869158879" y="1456.0" type="line"/>
      <point x="552.1401869158879" y="0.0" type="line"/>
    </contour>
    <contour>
      <point x="1654.2429906542054" y="0.0" type="line"/>
      <point x="1090.6261682242991" y="719.7570093457944" type="line"/>
      <point x="1416.2990654205607" y="861.3551401869158" type="line"/>
      <point x="2096.3271028037384" y="0.0" type="line"/>
    </contour>
    <contour>
      <point x="923.0280373831777" y="830.0" type="line"/>
      <point x="1256.7663551401868" y="830.0" type="line"/>
      <point x="1746.4392523364488" y="1456.0" type="line"/>
      <point x="1956.4392523364486" y="1456.0" type="line"/>
      <point x="1334.766355140187" y="672.0" type="line"/>
      <point x="923.0280373831777" y="672.0" type="line"/>
    </contour>
    <contour>
      <point x="742.1401869158879" y="300.0" type="line"/>
      <point x="742.1401869158879" y="1156.0" type="line"/>
      <point x="1093.2616822429907" y="1156.0" type="line"/>
      <point x="1093.2616822429907" y="300.0" type="line"/>
    </contour>
  </outline>
</glyph>
<glyph name="ustraight" format="2">
  <advance width="1159.0841121495328"/>
  <unicode hex="04AF"/>
  <outline>
    <contour>
      <point x="380.0" y="-416.0" type="line"/>
      <point x="380.0" y="0.0" type="line"/>
      <point x="2.0" y="1052.0" type="line"/>
      <point x="395.0841121495327" y="1052.0" type="line"/>
      <point x="649.0841121495328" y="289.0" type="line" smooth="yes"/>
      <point x="662.0841121495326" y="249.00000000000006"/>
      <point x="682.0841121495326" y="179.0"/>
      <point x="686.0841121495326" y="159.0" type="qcurve"/>
      <point x="692.0841121495328" y="159.0" type="line"/>
      <point x="696.0841121495328" y="179.0"/>
      <point x="718.7476635514018" y="248.4672897196262"/>
      <point x="729.0841121495329" y="289.0" type="qcurve" smooth="yes"/>
      <point x="981.0841121495328" y="1052.0" type="line"/>
      <point x="1157.0841121495328" y="1052.0" type="line"/>
      <point x="779.0841121495326" y="0.0" type="line"/>
      <point x="779.0841121495326" y="-416.0" type="line"/>
    </contour>
  </outline>
</glyph>
<glyph name="Cheverticalstroke-cy" format="2">
  <advance width="1791.859813084112"/>
  <unicode hex="04B8"/>
  <outline>
    <contour>
      <point x="969.0654205607477" y="1106.0000000000002" type="line"/>
      <point x="969.0654205607477" y="250.00000000000003" type="line"/>
      <point x="799.0654205607476" y="250.00000000000003" type="line"/>
      <point x="799.0654205607476" y="1106.0000000000002" type="line"/>
    </contour>
    <contour>
      <point x="538.2616822429906" y="1032.0" type="line" smooth="yes"/>
      <point x="538.2616822429906" y="854.0"/>
      <point x="701.2616822429906" y="733.4672897196263"/>
      <point x="899.2616822429907" y="734.0" type="qcurve" smooth="yes"/>
      <point x="1039.03738317757" y="734.532710280374"/>
      <point x="1287.8598130841121" y="761.4579439252337"/>
      <point x="1448.5887850467288" y="809.6261682242991" type="qcurve"/>
      <point x="1448.5887850467288" y="651.6261682242991" type="line"/>
      <point x="1259.7196261682243" y="602.9906542056075"/>
      <point x="1006.0654205607476" y="576.0"/>
      <point x="848.5700934579439" y="576.0" type="qcurve" smooth="yes"/>
      <point x="494.42056074766356" y="576.0"/>
      <point x="116.66355140186917" y="788.8878504672897"/>
      <point x="115.5981308411215" y="1054.710280373832" type="qcurve" smooth="yes"/>
      <point x="114.0" y="1456.0" type="line"/>
      <point x="538.2616822429906" y="1456.0" type="line"/>
    </contour>
    <contour>
      <point x="1653.859813084112" y="1456.0" type="line"/>
      <point x="1653.859813084112" y="0.0" type="line"/>
      <point x="1232.261682242991" y="0.0" type="line"/>
      <point x="1232.261682242991" y="1456.0" type="line"/>
    </contour>
  </outline>
</glyph>
<glyph name="emdash" format="2">
  <advance width="1948.0"/>
  <unicode hex="2014"/>
  <outline>
    <contour>
      <point x="210.0" y="532.0" type="line"/>
      <point x="210.0" y="700.0" type="line"/>
      <point x="1738.0" y="700.0" type="line"/>
      <point x="1738.0" y="532.0" type="line"/>
    </contour>
  </outline>
</glyph>
<glyph name="horizontalbar" format="2">
  <advance width="857.0242990654205"/>
  <unicode hex="2015"/>
  <anchor x="425.5420560747664" y="708.0" name="_center"/>
  <outline>
    <contour>
      <point x="18.0" y="626.0" type="line"/>
      <point x="18.0" y="792.0" type="line"/>
      <point x="836.0841121495328" y="792.0" type="line"/>
      <point x="836.0841121495328" y="626.0" type="line"/>
    </contour>
  </outline>
</glyph>
<glyph name="quoteleft" format="2">
  <advance width="581.6841121495328"/>
  <unicode hex="2018"/>
  <outline>
    <contour>
      <point x="75.6" y="993.0934579439254" type="line"/>
      <point x="75.6" y="1140.728971962617" type="line" smooth="yes"/>
      <point x="75.6" y="1278.6728971962618"/>
      <point x="265.6841121495327" y="1505.0467289719627"/>
      <point x="462.6841121495327" y="1556.0" type="qcurve"/>
      <point x="567.6841121495327" y="1483.0" type="line"/>
      <point x="521.6841121495327" y="1417.0"/>
      <point x="471.6841121495327" y="1224.7289719626167"/>
      <point x="471.6841121495327" y="1143.728971962617" type="qcurve" smooth="yes"/>
      <point x="471.6841121495327" y="993.0934579439254" type="line"/>
    </contour>
  </outline>
</glyph>
<glyph name="quotesinglbase" format="2">
  <advance width="581.8841121495327"/>
  <unicode hex="201A"/>
  <outline>
    <contour>
      <point x="506.2841121495327" y="299.9065420560747" type="line"/>
      <point x="506.2841121495327" y="92.0" type="line" smooth="yes"/>
      <point x="506.2841121495327" y="2.0"/>
      <point x="280.5084112149533" y="-221.71028037383178"/>
      <point x="120.20000000000002" y="-270.0" type="qcurve"/>
      <point x="14.2" y="-197.0" type="line"/>
      <point x="61.199999999999996" y="-131.0"/>
      <point x="109.2" y="8.0"/>
      <point x="109.2" y="89.0" type="qcurve" smooth="yes"/>
      <point x="109.2" y="299.9065420560747" type="line"/>
    </contour>
  </outline>
</glyph>
<glyph name="quotedblleft" format="2">
  <advance width="1214.7682242990654"/>
  <unicode hex="201C"/>
  <outline>
    <contour>
      <point x="75.6" y="993.0934579439254" type="line"/>
      <point x="75.6" y="1194.0" type="line" smooth="yes"/>
      <point x="75.6" y="1289.3271028037384"/>
      <point x="248.6373831775701" y="1498.6542056074768"/>
      <point x="462.6841121495327" y="1556.0" type="qcurve"/>
      <point x="567.6841121495327" y="1483.0" type="line"/>
      <point x="521.6841121495327" y="1417.0"/>
      <point x="471.6841121495327" y="1278.0"/>
      <point x="471.6841121495327" y="1197.0" type="qcurve" smooth="yes"/>
      <point x="471.6841121495327" y="993.0934579439254" type="line"/>
    </contour>
    <contour>
      <point x="708.6841121495327" y="993.0934579439254" type="line"/>
      <point x="708.6841121495327" y="1194.0" type="line" smooth="yes"/>
      <point x="708.6841121495327" y="1289.3271028037384"/>
      <point x="909.955140186916" y="1507.710280373832"/>
      <point x="1095.7682242990654" y="1556.0" type="qcurve"/>
      <point x="1200.7682242990654" y="1483.0" type="line"/>
      <point x="1154.7682242990657" y="1417.0"/>
      <point x="1104.7682242990654" y="1278.0"/>
      <point x="1104.7682242990654" y="1197.0" type="qcurve" smooth="yes"/>
      <point x="1104.7682242990654" y="993.0934579439254" type="line"/>
    </contour>
  </outline>
</glyph>
<glyph name="bullet" format="2">
  <advance width="746.4000000000001"/>
  <unicode hex="2022"/>
  <outline>
    <contour>
      <point x="85.2" y="773.0" type="qcurve" smooth="yes"/>
      <point x="85.2" y="889.0"/>
      <point x="247.2" y="1061.0"/>
      <point x="373.20000000000005" y="1061.0" type="qcurve" smooth="yes"/>
      <point x="499.20000000000005" y="1061.0"/>
      <point x="661.2" y="889.0"/>
      <point x="661.2" y="773.0" type="qcurve" smooth="yes"/>
      <point x="661.2" y="659.0"/>
      <point x="499.20000000000005" y="487.0"/>
      <point x="373.20000000000005" y="487.0" type="qcurve" smooth="yes"/>
      <point x="247.2" y="487.0"/>
      <point x="85.2" y="659.0"/>
    </contour>
  </outline>
</glyph>
<glyph name="franc" format="2">
  <advance width="1232.6841121495327"/>
  <unicode hex="20A3"/>
  <outline>
    <contour>
      <point x="178.0" y="0.0" type="line"/>
      <point x="178.0" y="1456.0" type="line"/>
      <point x="1213.0841121495328" y="1456.0" type="line"/>
      <point x="1213.0841121495328" y="1298.0" type="line"/>
      <point x="583.0841121495326" y="1298.0" type="line"/>
      <point x="583.0841121495326" y="0.0" type="line"/>
    </contour>
    <contour>
      <point x="18.0" y="296.00000000000006" type="line"/>
      <point x="18.0" y="454.00000000000006" type="line"/>
      <point x="936.0841121495328" y="454.00000000000006" type="line"/>
      <point x="936.0841121495328" y="296.00000000000006" type="line"/>
    </contour>
    <contour>
      <point x="493.0841121495327" y="703.0" type="line"/>
      <point x="493.0841121495327" y="861.0000000000001" type="line"/>
      <point x="1124.0841121495328" y="861.0000000000001" type="line"/>
      <point x="1124.0841121495328" y="703.0" type="line"/>
    </contour>
  </outline>
</glyph>
<glyph name="naira" format="2">
  <advance width="1457.3682242990653"/>
  <unicode hex="20A6"/>
  <outline>
    <contour>
      <point x="1348.7682242990654" y="1456.0" type="line"/>
      <point x="1348.7682242990654" y="0.0" type="line"/>
      <point x="954.6841121495327" y="0.0" type="line"/>
      <point x="483.6841121495327" y="1142.0" type="line"/>
      <point x="461.6841121495328" y="1253.0" type="line"/>
      <point x="449.68411214953267" y="1253.0" type="line"/>
      <point x="462.6841121495327" y="1125.0000000000002" type="line"/>
      <point x="462.6841121495327" y="0.0" type="line"/>
      <point x="99.60000000000001" y="0.0" type="line"/>
      <point x="99.60000000000001" y="1456.0" type="line"/>
      <point x="498.6841121495327" y="1456.0" type="line"/>
      <point x="952.6841121495328" y="347.0" type="line"/>
      <point x="981.6841121495329" y="227.00000000000003" type="line"/>
      <point x="995.6841121495327" y="230.0" type="line"/>
      <point x="985.6841121495327" y="351.0" type="line"/>
      <point x="985.6841121495327" y="1456.0" type="line"/>
    </contour>
    <contour>
      <point x="743.3102803738318" y="834.4766355140187" type="line"/>
      <point x="1163.2261682242993" y="834.4766355140187" type="line"/>
      <point x="1163.2261682242993" y="842.1401869158879" type="line"/>
      <point x="1461.7682242990654" y="844.1401869158879" type="line"/>
      <point x="1461.7682242990654" y="707.1401869158879" type="line"/>
      <point x="1163.2261682242993" y="705.1401869158879" type="line"/>
      <point x="1163.2261682242993" y="712.4766355140188" type="line"/>
      <point x="743.3102803738318" y="712.4766355140188" type="line"/>
    </contour>
    <contour>
      <point x="-4.4" y="705.1401869158879" type="line"/>
      <point x="-4.4" y="842.1401869158879" type="line"/>
      <point x="284.1420560747664" y="842.1401869158879" type="line"/>
      <point x="284.1420560747664" y="834.4766355140187" type="line"/>
      <point x="743.3102803738318" y="834.4766355140187" type="line"/>
      <point x="743.3102803738318" y="712.4766355140188" type="line"/>
      <point x="284.1420560747664" y="712.4766355140188" type="line"/>
      <point x="284.1420560747664" y="705.1401869158879" type="line"/>
    </contour>
    <contour>
      <point x="735.63738317757" y="814.5233644859813" type="line"/>
      <point x="1163.2261682242993" y="814.5233644859813" type="line"/>
      <point x="1163.2261682242993" y="821.8598130841121" type="line"/>
      <point x="1461.7682242990654" y="823.8598130841123" type="line"/>
      <point x="1461.7682242990654" y="686.8598130841121" type="line"/>
      <point x="1163.2261682242993" y="684.8598130841121" type="line"/>
      <point x="1163.2261682242993" y="692.5233644859813" type="line"/>
      <point x="735.63738317757" y="692.5233644859813" type="line"/>
    </contour>
    <contour>
      <point x="-4.4" y="684.8598130841121" type="line"/>
      <point x="-4.4" y="821.8598130841121" type="line"/>
      <point x="284.1420560747664" y="821.8598130841121" type="line"/>
      <point x="284.1420560747664" y="814.5233644859813" type="line"/>
      <point x="735.63738317757" y="814.5233644859813" type="line"/>
      <point x="735.63738317757" y="692.5233644859813" type="line"/>
      <point x="284.1420560747664" y="692.5233644859813" type="line"/>
      <point x="284.1420560747664" y="684.8598130841121" type="line"/>
    </contour>
  </outline>
</glyph>
<glyph name="peseta" format="2">
  <advance width="2253.9439252336447"/>
  <unicode hex="20A7"/>
  <outline>
    <contour>
      <point x="833.2261682242992" y="565.0" type="qcurve"/>
      <point x="405.83389517653063" y="565.0" type="line"/>
      <point x="405.83389517653063" y="717.0000000000001" type="line"/>
      <point x="726.6841121495328" y="717.0000000000001" type="line"/>
      <point x="899.7200167387339" y="717.0000000000001"/>
      <point x="1003.6841121495328" y="898.8803180359964"/>
      <point x="1003.6841121495328" y="1009.0" type="qcurve"/>
      <point x="1003.6841121495328" y="1120.9840424048086"/>
      <point x="899.7200167387339" y="1304.0"/>
      <point x="726.6841121495328" y="1304.0" type="qcurve"/>
      <point x="533.6841121495328" y="1304.0" type="line"/>
      <point x="533.6841121495328" y="0.0" type="line"/>
      <point x="135.6" y="0.0" type="line"/>
      <point x="135.6" y="1456.0" type="line"/>
      <point x="833.2261682242992" y="1456.0" type="line"/>
      <point x="1148.5503138512993" y="1456.0"/>
      <point x="1381.4598130841123" y="1202.0119681964004"/>
      <point x="1381.4598130841123" y="1011.0000000000001" type="qcurve"/>
      <point x="1381.4598130841123" y="819.0558515832107"/>
      <point x="1148.5503138512993" y="565.0"/>
    </contour>
    <contour>
      <point x="2140.543925233645" y="1026.0" type="line"/>
      <point x="2140.543925233645" y="884.0" type="line"/>
      <point x="1232.362336697004" y="884.0" type="line"/>
      <point x="1232.362336697004" y="1026.0" type="line"/>
    </contour>
    <contour>
      <point x="1520.459813084112" y="1345.0" type="line"/>
      <point x="1918.5439252336448" y="1345.0" type="line"/>
      <point x="1918.5439252336448" y="268.0" type="line"/>
      <point x="1918.5439252336448" y="185.04388338681028"/>
      <point x="1991.4721160552426" y="139.0"/>
      <point x="2037.5439252336446" y="139.0" type="qcurve" smooth="yes"/>
      <point x="2073.8975868321922" y="139.0"/>
      <point x="2138.5345794392524" y="145.79439252336448"/>
      <point x="2189.543925233645" y="163.0" type="qcurve"/>
      <point x="2189.543925233645" y="12.0" type="line"/>
      <point x="2140.011214953271" y="-3.3364485981308416"/>
      <point x="1979.1412470358578" y="-20.0"/>
      <point x="1877.001869158879" y="-20.0" type="qcurve" smooth="yes"/>
      <point x="1721.6670107407024" y="-20.0"/>
      <point x="1520.459813084112" y="138.9785744176215"/>
      <point x="1520.459813084112" y="322.2710280373832" type="qcurve"/>
    </contour>
  </outline>
</glyph>
<glyph name="uni20B2" format="2">
  <advance width="1442.3682242990653"/>
  <unicode hex="20B2"/>
  <outline>
    <contour>
      <point x="675.2841121495328" y="-190.0" type="line"/>
      <point x="675.2841121495328" y="57.0" type="line"/>
      <point x="693.2841121495328" y="71.00000000000001" type="line"/>
      <point x="693.2841121495328" y="708.0" type="line"/>
      <point x="823.2841121495327" y="708.0" type="line"/>
      <point x="823.2841121495327" y="70.0" type="line"/>
      <point x="845.2841121495327" y="60.0" type="line"/>
      <point x="845.2841121495327" y="-190.0" type="line"/>
    </contour>
    <contour>
      <point x="693.2841121495328" y="708.0" type="line"/>
      <point x="693.2841121495328" y="1392.0" type="line"/>
      <point x="678.2841121495328" y="1402.0" type="line"/>
      <point x="678.2841121495328" y="1632.0" type="line"/>
      <point x="838.2841121495327" y="1632.0" type="line"/>
      <point x="838.2841121495327" y="1402.0" type="line"/>
      <point x="823.2841121495327" y="1389.0" type="line"/>
      <point x="823.2841121495327" y="708.0" type="line"/>
    </contour>
    <contour>
      <point x="1404.3682242990653" y="745.0" type="line"/>
      <point x="1404.3682242990653" y="452.0" type="line" smooth="yes"/>
      <point x="1404.3682242990653" y="232.0"/>
      <point x="1077.8261682242992" y="-5.0"/>
      <point x="767.2841121495327" y="-5.0" type="qcurve" smooth="yes"/>
      <point x="430.74205607476637" y="-5.0"/>
      <point x="77.20000000000002" y="278.0"/>
      <point x="77.20000000000002" y="542.0" type="qcurve" smooth="yes"/>
      <point x="77.20000000000002" y="897.0000000000001" type="line" smooth="yes"/>
      <point x="77.20000000000002" y="1180.0"/>
      <point x="425.7420560747663" y="1485.0"/>
      <point x="757.2841121495328" y="1485.0" type="qcurve" smooth="yes"/>
      <point x="1052.4990654205608" y="1485.0"/>
      <point x="1402.3682242990653" y="1264.0000000000002"/>
      <point x="1402.3682242990653" y="1065.6542056074766" type="qcurve" smooth="yes"/>
      <point x="1402.3682242990653" y="1019.0993317881212" type="line"/>
      <point x="999.2841121495326" y="1016.3271028037384" type="line"/>
      <point x="999.2841121495326" y="1061.6542056074768" type="line" smooth="yes"/>
      <point x="999.2841121495326" y="1178.3271028037384"/>
      <point x="877.2841121495328" y="1328.0"/>
      <point x="753.2841121495328" y="1328.0" type="qcurve" smooth="yes"/>
      <point x="623.2841121495328" y="1328.0"/>
      <point x="484.2841121495327" y="1106.0000000000002"/>
      <point x="484.2841121495327" y="899.0" type="qcurve" smooth="yes"/>
      <point x="484.2841121495327" y="544.0" type="line" smooth="yes"/>
      <point x="484.2841121495327" y="356.0"/>
      <point x="638.2841121495328" y="153.0"/>
      <point x="781.2841121495328" y="153.0" type="qcurve" smooth="yes"/>
      <point x="896.2841121495327" y="153.0"/>
      <point x="1019.2841121495326" y="298.0"/>
      <point x="1019.2841121495326" y="433.0" type="qcurve" smooth="yes"/>
      <point x="1019.2841121495326" y="589.0" type="line"/>
      <point x="882.2841121495326" y="589.0" type="line"/>
      <point x="882.2841121495326" y="745.0" type="line"/>
    </contour>
  </outline>
</glyph>
<glyph name="hryvnia" format="2">
  <advance width="1404.6971962616824"/>
  <unicode hex="20B4"/>
  <outline>
    <contour>
      <point x="82.0" y="301.5046728971963" type="qcurve" smooth="yes"/>
      <point x="82.0" y="444.68224299065423"/>
      <point x="321.3551401869159" y="647.0093457943925"/>
      <point x="572.4485981308412" y="778.6355140186918" type="qcurve" smooth="yes"/>
      <point x="750.4485981308412" y="874.981308411215" type="line" smooth="yes"/>
      <point x="867.6448598130842" y="938.6542056074768"/>
      <point x="966.448598130841" y="1054.0"/>
      <point x="966.448598130841" y="1146.0000000000002" type="qcurve" smooth="yes"/>
      <point x="966.448598130841" y="1220.0"/>
      <point x="842.4485981308411" y="1328.0"/>
      <point x="726.4485981308412" y="1328.0" type="qcurve" smooth="yes"/>
      <point x="597.4485981308412" y="1328.0"/>
      <point x="475.4485981308411" y="1230.0"/>
      <point x="471.4485981308411" y="1172.0" type="qcurve" smooth="yes"/>
      <point x="469.4485981308411" y="1146.0000000000002" type="line"/>
      <point x="111.0" y="1146.0000000000002" type="line"/>
      <point x="112.00000000000001" y="1172.0" type="line" smooth="yes"/>
      <point x="118.0" y="1325.0"/>
      <point x="391.74766355140184" y="1485.4672897196263"/>
      <point x="729.4485981308412" y="1486.0" type="qcurve" smooth="yes"/>
      <point x="1068.0841121495328" y="1486.5327102803737"/>
      <point x="1325.8971962616822" y="1323.1121495327102"/>
      <point x="1325.8971962616822" y="1176.4859813084113" type="qcurve" smooth="yes"/>
      <point x="1325.8971962616822" y="1061.1121495327102"/>
      <point x="1068.6261682242991" y="865.6728971962617"/>
      <point x="832.7757009345794" y="740.0373831775702" type="qcurve" smooth="yes"/>
      <point x="636.7757009345794" y="632.6915887850467" type="line" smooth="yes"/>
      <point x="534.6448598130842" y="576.9532710280374"/>
      <point x="442.4485981308411" y="449.0"/>
      <point x="442.4485981308411" y="348.0" type="qcurve" smooth="yes"/>
      <point x="442.4485981308411" y="245.00000000000003"/>
      <point x="582.4485981308411" y="128.0"/>
      <point x="713.4485981308411" y="128.0" type="qcurve" smooth="yes"/>
      <point x="847.4485981308412" y="128.0"/>
      <point x="995.4485981308412" y="241.0"/>
      <point x="1002.4485981308412" y="307.0" type="qcurve" smooth="yes"/>
      <point x="1003.4485981308412" y="326.0" type="line"/>
      <point x="1366.8971962616822" y="326.0" type="line"/>
      <point x="1365.8971962616822" y="313.0" type="line" smooth="yes"/>
      <point x="1352.8971962616824" y="143.0"/>
      <point x="1036.6355140186915" y="-30.0"/>
      <point x="713.4485981308411" y="-30.0" type="qcurve" smooth="yes"/>
      <point x="382.78504672897196" y="-30.0"/>
      <point x="82.0" y="145.6822429906542"/>
    </contour>
    <contour>
      <point x="-6.0" y="831.0" type="line"/>
      <point x="-6.0" y="976.0000000000001" type="line"/>
      <point x="1409.8971962616824" y="976.0000000000001" type="line"/>
      <point x="1409.8971962616824" y="831.0" type="line"/>
    </contour>
    <contour>
      <point x="-6.0" y="511.0" type="line"/>
      <point x="-6.0" y="656.0" type="line"/>
      <point x="1409.8971962616824" y="656.0" type="line"/>
      <point x="1409.8971962616824" y="511.0" type="line"/>
    </contour>
  </outline>
</glyph>
<glyph name="tenge" format="2">
  <advance width="1231.4841121495326"/>
  <unicode hex="20B8"/>
  <outline>
    <contour>
      <point x="413.20000000000005" y="0.0" type="line"/>
      <point x="413.20000000000005" y="1038.0" type="line"/>
      <point x="818.2841121495326" y="1038.0" type="line"/>
      <point x="818.2841121495326" y="0.0" type="line"/>
    </contour>
    <contour>
      <point x="21.200000000000003" y="968.0" type="line"/>
      <point x="21.200000000000003" y="1126.0" type="line"/>
      <point x="1210.2841121495326" y="1126.0" type="line"/>
      <point x="1210.2841121495326" y="968.0" type="line"/>
    </contour>
    <contour>
      <point x="21.200000000000003" y="1311.0" type="line"/>
      <point x="21.200000000000003" y="1456.0" type="line"/>
      <point x="1210.2841121495326" y="1456.0" type="line"/>
      <point x="1210.2841121495326" y="1311.0" type="line"/>
    </contour>
  </outline>
</glyph>
<glyph name="rupeeIndian" format="2">
  <advance width="1234.2841121495326"/>
  <unicode hex="20B9"/>
  <outline>
    <contour>
      <point x="17.200000000000003" y="934.0" type="line"/>
      <point x="17.200000000000003" y="1089.0" type="line"/>
      <point x="1201.2841121495328" y="1089.0" type="line"/>
      <point x="1201.2841121495328" y="934.0" type="line"/>
    </contour>
    <contour>
      <point x="804.2" y="0.0" type="line"/>
      <point x="658.2" y="267.0" type="line" smooth="yes"/>
      <point x="564.2" y="438.99999999999994"/>
      <point x="320.2" y="566.0"/>
      <point x="130.20000000000002" y="574.0" type="qcurve" smooth="yes"/>
      <point x="17.200000000000003" y="579.0" type="line"/>
      <point x="17.200000000000003" y="732.0000000000001" type="line"/>
      <point x="305.2" y="732.0000000000001" type="line" smooth="yes"/>
      <point x="496.20000000000005" y="732.0000000000001"/>
      <point x="651.2" y="885.0"/>
      <point x="651.2" y="1019.0" type="qcurve" smooth="yes"/>
      <point x="651.2" y="1145.0"/>
      <point x="490.20000000000005" y="1299.0"/>
      <point x="319.20000000000005" y="1299.0" type="qcurve" smooth="yes"/>
      <point x="17.200000000000003" y="1299.0" type="line"/>
      <point x="17.200000000000003" y="1456.0" type="line"/>
      <point x="1210.2841121495328" y="1456.0" type="line"/>
      <point x="1210.2841121495328" y="1300.0" type="line"/>
      <point x="927.3401869158878" y="1300.0" type="line"/>
      <point x="850.3401869158879" y="1308.0" type="line"/>
      <point x="852.3401869158879" y="1300.0" type="line"/>
      <point x="947.6953271028037" y="1261.3457943925234"/>
      <point x="1049.2841121495326" y="1112.0"/>
      <point x="1049.2841121495326" y="1019.0" type="qcurve" smooth="yes"/>
      <point x="1049.2841121495326" y="831.0"/>
      <point x="872.2841121495328" y="663.0"/>
      <point x="686.2841121495327" y="642.0" type="qcurve"/>
      <point x="780.2841121495327" y="619.0"/>
      <point x="972.7514018691588" y="461.00000000000006"/>
      <point x="1050.2841121495328" y="317.0" type="qcurve" smooth="yes"/>
      <point x="1220.2841121495326" y="0.0" type="line"/>
    </contour>
  </outline>
</glyph>
<glyph name="manat" format="2">
  <advance width="1641.252336448598"/>
  <unicode hex="20BC"/>
  <outline>
    <contour>
      <point x="1587.2523364485978" y="916.0" type="qcurve" smooth="yes"/>
      <point x="1587.2523364485978" y="0.0" type="line"/>
      <point x="1192.1682242990655" y="0.0" type="line"/>
      <point x="1192.1682242990655" y="881.3738317757011" type="line" smooth="yes"/>
      <point x="1192.1682242990655" y="1078.0"/>
      <point x="1015.747663551402" y="1252.0"/>
      <point x="820.626168224299" y="1252.0" type="qcurve" smooth="yes"/>
      <point x="626.4392523364486" y="1252.0"/>
      <point x="450.01869158878503" y="1078.0"/>
      <point x="449.08411214953276" y="881.3738317757011" type="qcurve" smooth="yes"/>
      <point x="449.08411214953276" y="0.0" type="line"/>
      <point x="54.0" y="0.0" type="line"/>
      <point x="54.0" y="916.0" type="line" smooth="yes"/>
      <point x="54.0" y="1157.0"/>
      <point x="395.7383177570093" y="1416.0"/>
      <point x="820.626168224299" y="1416.0" type="qcurve" smooth="yes"/>
      <point x="1244.1121495327102" y="1416.0"/>
      <point x="1585.8504672897197" y="1157.0"/>
    </contour>
    <contour>
      <point x="1007.1682242990654" y="0.0" type="line"/>
      <point x="634.0841121495328" y="0.0" type="line"/>
      <point x="634.0841121495328" y="1582.0" type="line"/>
      <point x="1007.1682242990654" y="1582.0" type="line"/>
    </contour>
  </outline>
</glyph>
<glyph name="numero" format="2">
  <advance width="3102.5046728971965"/>
  <unicode hex="2116"/>
  <outline>
    <contour>
      <point x="138.0" y="0.0" type="line"/>
      <point x="138.0" y="1456.0" type="line"/>
      <point x="546.0841121495328" y="1456.0" type="line"/>
      <point x="1148.0841121495328" y="416.0" type="line" smooth="yes"/>
      <point x="1166.0841121495328" y="386.00000000000006"/>
      <point x="1202.0841121495328" y="326.0"/>
      <point x="1214.0841121495328" y="301.0" type="qcurve"/>
      <point x="1224.0841121495328" y="301.0" type="line"/>
      <point x="1220.0841121495325" y="331.0"/>
      <point x="1219.6822429906542" y="406.0"/>
      <point x="1218.0841121495328" y="436.00000000000006" type="qcurve" smooth="yes"/>
      <point x="1218.0841121495328" y="1456.0" type="line"/>
      <point x="1608.1682242990655" y="1456.0" type="line"/>
      <point x="1608.1682242990655" y="0.0" type="line"/>
      <point x="1198.0841121495328" y="0.0" type="line"/>
      <point x="588.0841121495328" y="1028.0000000000002" type="line" smooth="yes"/>
      <point x="569.0841121495328" y="1059.0"/>
      <point x="543.0841121495326" y="1118.0"/>
      <point x="536.0841121495328" y="1145.0" type="qcurve"/>
      <point x="526.0841121495326" y="1145.0" type="line"/>
      <point x="530.0841121495326" y="1115.0"/>
      <point x="532.6822429906542" y="1040.0"/>
      <point x="531.0841121495328" y="1010.0" type="qcurve" smooth="yes"/>
      <point x="531.0841121495328" y="0.0" type="line"/>
    </contour>
    <contour>
      <point x="1747.1682242990655" y="992.0" type="qcurve" smooth="yes"/>
      <point x="1747.1682242990655" y="1019.0" type="line" smooth="yes"/>
      <point x="1747.1682242990655" y="1219.0"/>
      <point x="2108.0934579439254" y="1473.0"/>
      <point x="2380.803738317757" y="1473.0" type="qcurve" smooth="yes"/>
      <point x="2654.0467289719627" y="1473.0"/>
      <point x="3016.504672897196" y="1219.0"/>
      <point x="3016.504672897196" y="1019.0" type="qcurve" smooth="yes"/>
      <point x="3016.504672897196" y="992.0" type="line" smooth="yes"/>
      <point x="3016.504672897196" y="792.0"/>
      <point x="2670.3084112149536" y="539.0"/>
      <point x="2380.803738317757" y="539.0" type="qcurve" smooth="yes"/>
      <point x="2090.766355140187" y="539.0"/>
      <point x="1747.1682242990655" y="792.0"/>
    </contour>
    <contour>
      <point x="2143.336448598131" y="1016.0" type="qcurve" smooth="yes"/>
      <point x="2143.336448598131" y="991.0" type="line" smooth="yes"/>
      <point x="2143.336448598131" y="864.0000000000001"/>
      <point x="2260.336448598131" y="699.0"/>
      <point x="2381.336448598131" y="699.0" type="qcurve" smooth="yes"/>
      <point x="2502.336448598131" y="699.0"/>
      <point x="2620.336448598131" y="864.0000000000001"/>
      <point x="2620.336448598131" y="991.0" type="qcurve" smooth="yes"/>
      <point x="2620.336448598131" y="1016.0" type="line" smooth="yes"/>
      <point x="2620.336448598131" y="1143.0"/>
      <point x="2501.336448598131" y="1308.0"/>
      <point x="2381.336448598131" y="1308.0" type="qcurve" smooth="yes"/>
      <point x="2261.336448598131" y="1308.0"/>
      <point x="2143.336448598131" y="1143.0"/>
    </contour>
    <contour>
      <point x="1787.1682242990655" y="232.0" type="line"/>
      <point x="1787.1682242990655" y="414.0" type="line"/>
      <point x="2976.5046728971965" y="414.0" type="line"/>
      <point x="2976.5046728971965" y="232.0" type="line"/>
    </contour>
  </outline>
</glyph>
<glyph name="arrowright" format="2">
  <advance width="1814.0186915887853"/>
  <unicode hex="2192"/>
  <guideline x="1094.0" y="773.0" angle="90.0" identifier="xShtOjvBze"/>
  <outline>
    <contour>
      <point x="138.0" y="607.0" type="line"/>
      <point x="138.0" y="779.0" type="line"/>
      <point x="1162.0" y="779.0" type="line"/>
      <point x="1162.0" y="696.0067682328341" type="line"/>
      <point x="1162.0" y="607.0" type="line"/>
    </contour>
    <contour>
      <point x="887.0" y="142.45794392523368" type="line"/>
      <point x="804.0560747663552" y="228.2803738317757" type="line"/>
      <point x="1118.065420560748" y="695.3364485981308" type="line"/>
      <point x="803.9906542056076" y="1159.317757009346" type="line"/>
      <point x="887.0" y="1241.5420560747664" type="line"/>
      <point x="1676.0186915887853" y="718.5327102803739" type="line"/>
      <point x="1676.0186915887853" y="665.8691588785047" type="line"/>
    </contour>
  </outline>
</glyph>
<glyph name="minus" format="2">
  <advance width="1005.2"/>
  <unicode hex="2212"/>
  <outline>
    <contour>
      <point x="47.6" y="586.0" type="line"/>
      <point x="47.6" y="759.0" type="line"/>
      <point x="957.5999999999999" y="759.0" type="line"/>
      <point x="957.5999999999999" y="586.0" type="line"/>
    </contour>
  </outline>
</glyph>
<glyph name="divisionslash" format="2">
  <advance width="792.2796019900497"/>
  <unicode hex="2215"/>
  <outline>
    <contour>
      <point x="-57.2" y="-121.0" type="line"/>
      <point x="552.8" y="1536.0" type="line"/>
      <point x="844.8796019900498" y="1536.0" type="line"/>
      <point x="234.87960199004976" y="-121.0" type="line"/>
    </contour>
  </outline>
</glyph>
<glyph name="bulletoperator" format="2">
  <advance width="1057.6598130841123"/>
  <unicode hex="2219"/>
  <outline>
    <contour>
      <point x="296.4" y="674.0" type="qcurve" smooth="yes"/>
      <point x="296.4" y="767.158878504673"/>
      <point x="427.4747663551402" y="906.4299065420562"/>
      <point x="528.8299065420562" y="906.4299065420562" type="qcurve" smooth="yes"/>
      <point x="630.185046728972" y="906.4299065420562"/>
      <point x="761.2598130841122" y="767.158878504673"/>
      <point x="761.2598130841122" y="674.0" type="qcurve" smooth="yes"/>
      <point x="761.2598130841122" y="581.8411214953272"/>
      <point x="630.185046728972" y="442.5700934579439"/>
      <point x="528.8299065420562" y="442.5700934579439" type="qcurve" smooth="yes"/>
      <point x="427.4747663551402" y="442.5700934579439"/>
      <point x="296.4" y="581.8411214953272"/>
    </contour>
  </outline>
</glyph>
<glyph name="greaterequal" format="2">
  <advance width="1005.2"/>
  <unicode hex="2265"/>
  <outline>
    <contour>
      <point x="74.49719626168225" y="146.45794392523368" type="line"/>
      <point x="74.49719626168225" y="509.2710280373832" type="line"/>
      <point x="554.955140186916" y="678.4672897196263" type="line"/>
      <point x="74.49719626168225" y="848.196261682243" type="line"/>
      <point x="74.49719626168225" y="1201.5420560747664" type="line"/>
      <point x="942.0392523364487" y="831.2336448598131" type="line"/>
      <point x="942.0392523364487" y="517.2990654205609" type="line"/>
    </contour>
    <contour>
      <point x="961.6" y="1.0" type="line"/>
      <point x="51.60000000000001" y="1.0" type="line"/>
      <point x="51.60000000000001" y="170.0" type="line"/>
      <point x="961.6" y="170.0" type="line"/>
    </contour>
  </outline>
</glyph>
<glyph name="rightanglebracket" format="2">
  <advance width="741.3850467289719"/>
  <unicode hex="27E9"/>
  <outline>
    <contour>
      <point x="2.0" y="-220.13084112149534" type="line"/>
      <point x="372.0467289719627" y="597.9252336448598" type="line"/>
      <point x="4.065420560747664" y="1411.8691588785048" type="line"/>
      <point x="111.80373831775702" y="1499.0" type="line"/>
      <point x="729.785046728972" y="699.4859813084113" type="line"/>
      <point x="729.785046728972" y="495.9065420560747" type="line"/>
      <point x="111.80373831775702" y="-304.0" type="line"/>
    </contour>
  </outline>
</glyph>
<glyph name="Obarcyr-stroke" format="2">
  <advance width="1673.0841121495328"/>
  <guideline x="212.0" y="786.0" angle="90.0" identifier="UtNSclIhRG"/>
  <guideline x="1461.0841121495328" y="740.1214953271028" angle="90.0" identifier="hwb5F7EShy"/>
  <outline>
    <contour>
      <point x="212.0" y="830.0" type="line"/>
      <point x="1461.0841121495328" y="830.0" type="line"/>
      <point x="1461.0841121495328" y="672.0" type="line"/>
      <point x="212.0" y="672.0" type="line"/>
    </contour>
  </outline>
</glyph>
<glyph name="be.locl" format="2">
  <advance width="1558.1682242990655"/>
  <outline>
    <contour>
      <point x="473.0841121495327" y="522.0" type="qcurve" smooth="yes"/>
      <point x="473.0841121495327" y="490.00000000000006" type="line" smooth="yes"/>
      <point x="473.0841121495327" y="335.0"/>
      <point x="627.0841121495328" y="122.00000000000001"/>
      <point x="779.0841121495328" y="122.00000000000001" type="qcurve" smooth="yes"/>
      <point x="931.0841121495328" y="122.00000000000001"/>
      <point x="1085.0841121495328" y="335.0"/>
      <point x="1085.0841121495328" y="490.00000000000006" type="qcurve" smooth="yes"/>
      <point x="1085.0841121495328" y="522.0" type="line" smooth="yes"/>
      <point x="1085.0841121495328" y="670.0"/>
      <point x="934.0841121495329" y="890.0000000000001"/>
      <point x="779.0841121495328" y="890.0000000000001" type="qcurve" smooth="yes"/>
      <point x="627.0841121495328" y="890.0000000000001"/>
      <point x="473.0841121495327" y="677.0"/>
    </contour>
    <contour>
      <point x="70.0" y="490.00000000000006" type="qcurve" smooth="yes"/>
      <point x="70.0" y="522.0" type="line" smooth="yes"/>
      <point x="70.0" y="676.1243266006092"/>
      <point x="289.254571684883" y="908.8979587727013"/>
      <point x="518.4392523364486" y="969.0000000000001" type="qcurve"/>
      <point x="518.4392523364486" y="973.0" type="line"/>
      <point x="313.57943925233644" y="1005.0"/>
      <point x="156.6355140186916" y="1129.0"/>
      <point x="156.6355140186916" y="1221.0000000000002" type="qcurve" smooth="yes"/>
      <point x="156.6355140186916" y="1344.0"/>
      <point x="424.6728971962617" y="1485.0"/>
      <point x="754.0841121495328" y="1485.0" type="qcurve" smooth="yes"/>
      <point x="994.3831775700935" y="1485.0" type="line" smooth="yes"/>
      <point x="1100.3831775700933" y="1485.0"/>
      <point x="1194.3831775700935" y="1503.0"/>
      <point x="1203.3831775700933" y="1536.0" type="qcurve"/>
      <point x="1366.3831775700935" y="1536.0" type="line"/>
      <point x="1354.3831775700935" y="1422.0"/>
      <point x="1196.3831775700935" y="1316.0"/>
      <point x="1006.3831775700935" y="1316.0" type="qcurve" smooth="yes"/>
      <point x="766.0841121495328" y="1316.0" type="line" smooth="yes"/>
      <point x="626.0841121495328" y="1316.0"/>
      <point x="520.0841121495326" y="1265.0000000000002"/>
      <point x="520.0841121495326" y="1205.0" type="qcurve" smooth="yes"/>
      <point x="520.0841121495326" y="1134.0"/>
      <point x="715.5514018691588" y="1058.271028037383"/>
      <point x="857.0841121495326" y="1039.5981308411215" type="qcurve" smooth="yes"/>
      <point x="1197.8691588785048" y="998.2710280373833"/>
      <point x="1488.1682242990655" y="724.0"/>
      <point x="1488.1682242990655" y="522.0" type="qcurve" smooth="yes"/>
      <point x="1488.1682242990655" y="490.00000000000006" type="line" smooth="yes"/>
      <point x="1488.1682242990655" y="261.0"/>
      <point x="1104.1682242990655" y="-30.0"/>
      <point x="779.0841121495328" y="-30.0" type="qcurve" smooth="yes"/>
      <point x="459.32710280373834" y="-30.0"/>
      <point x="70.0" y="261.0"/>
    </contour>
  </outline>
</glyph>
<glyph name="breve.cyrcomb.case" format="2">
  <anchor x="0.0" y="1456.0" name="_top"/>
  <anchor x="0.0" y="1939.0" name="top"/>
  <outline>
    <contour>
      <point x="0.0" y="1758.0000000000002" type="qcurve" smooth="yes"/>
      <point x="87.0" y="1758.0000000000002"/>
      <point x="197.0" y="1835.0"/>
      <point x="233.0" y="1939.0" type="qcurve"/>
      <point x="488.5420560747663" y="1849.0" type="line"/>
      <point x="434.7383177570094" y="1722.92523364486"/>
      <point x="179.93457943925236" y="1600.0"/>
      <point x="0.0" y="1600.0" type="qcurve" smooth="yes"/>
      <point x="-180.46728971962617" y="1600.0"/>
      <point x="-435.2056074766355" y="1722.92523364486"/>
      <point x="-488.5420560747663" y="1849.0" type="qcurve"/>
      <point x="-233.0" y="1939.0" type="line"/>
      <point x="-198.0" y="1836.0"/>
      <point x="-87.0" y="1758.0000000000002"/>
    </contour>
  </outline>
</glyph>
<glyph name="brevebelowcomb.case" format="2">
  <anchor x="0.0" y="0.0" name="_bottom"/>
  <anchor x="0.0" y="-468.00000000000006" name="bottom"/>
  <outline>
    <contour>
      <point x="291.00000000000006" y="-116.01869158878506" type="qcurve"/>
      <point x="384.0" y="-186.01869158878503" type="line"/>
      <point x="350.3271028037383" y="-316.44859813084116"/>
      <point x="144.0" y="-498.89719626168227"/>
      <point x="0.0" y="-498.89719626168227" type="qcurve" smooth="yes"/>
      <point x="-128.0" y="-498.89719626168227"/>
      <point x="-340.3271028037383" y="-332.04672897196264"/>
      <point x="-383.0" y="-185.0186915887851" type="qcurve"/>
      <point x="-283.0" y="-116.01869158878506" type="line"/>
      <point x="-240.0" y="-172.09345794392524"/>
      <point x="-95.0" y="-264.373831775701"/>
      <point x="0.0" y="-264.373831775701" type="qcurve" smooth="yes"/>
      <point x="102.0" y="-264.373831775701"/>
      <point x="248.0" y="-176.5607476635514"/>
    </contour>
  </outline>
</glyph>
